<svg version="1.1" id="_1" xmlns="http://www.w3.org/2000/svg" xmlns:xlink="http://www.w3.org/1999/xlink" x="0px" y="0px"
	 width="16px" height="16px" viewBox="0 0 16 16" enable-background="new 0 0 16 16" xml:space="preserve">
<g id="open">
	<g>
		<path d="M8,4C2.475,4,0,8,0,8s2.686,4,8,4c5.314,0,8-4,8-4S13.525,4,8,4z M8,11.064C4.298,11.064,1.373,8,1.373,8
			S4.075,4.935,8,4.935C11.926,4.935,14.627,8,14.627,8S11.701,11.064,8,11.064z M8,5.474C6.567,5.474,5.405,6.605,5.405,8
			c0,1.396,1.162,2.525,2.595,2.525c1.434,0,2.596-1.131,2.596-2.525C10.596,6.605,9.434,5.474,8,5.474z"/>
	</g>
</g>
	<g id="close">
	<g>
		<path d="M5.213,5.505C5.057,5.391,4.926,5.287,4.809,5.189L1.585,2l-0.59,0.73l2.384,2.358C1.078,6.274,0,7.998,0,7.998
			S2.686,12,8,12c0.768,0,1.475-0.089,2.13-0.23L13.396,15l0.59-0.73L5.155,5.531C5.175,5.523,5.193,5.513,5.213,5.505z
			 M5.528,7.215C5.453,7.45,5.405,7.695,5.405,7.953c0,1.38,1.162,2.499,2.595,2.499c0.244,0,0.477-0.038,0.7-0.099l0.522,0.516
			C8.831,10.967,8.426,11.037,8,11.037c-3.575,0-6.4-3.039-6.4-3.039s1.002-1.156,2.656-2.042L5.528,7.215z M8,3.995
			c-0.611,0-1.185,0.049-1.722,0.136c0.11,0.183,0.586,0.771,0.7,0.922C7.32,5.004,7.715,4.958,8,4.958c3.791,0,6.4,3.04,6.4,3.04
			s-1.033,1.111-2.642,1.99c0.246,0.133,0.697,0.638,0.935,0.84C14.893,9.646,16,7.998,16,7.998S13.525,3.995,8,3.995z M10.51,8.588
			c0.057-0.203,0.086-0.416,0.086-0.635c0-1.381-1.162-2.5-2.596-2.5c-0.206,0-0.406,0.023-0.599,0.067
			C8.55,6.613,8.87,7.058,10.51,8.588z"/>
	</g>
</g>
</svg>
