<svg version="1.1" id="_x31_" xmlns="http://www.w3.org/2000/svg" xmlns:xlink="http://www.w3.org/1999/xlink" x="0px" y="0px"
	 width="48px" height="48px" viewBox="0 0 48 48" enable-background="new 0 0 48 48" xml:space="preserve">
<g id="c_add">
	<g>
		<polygon fill-rule="evenodd" clip-rule="evenodd" points="48,19.992 27.986,19.992 27.986,0 20.013,0 20.013,19.992 0,19.992 
			0,28.008 20.013,28.008 20.013,48 27.986,48 27.986,28.008 48,28.008 		"/>
	</g>
</g>
<g id="c_drag">
	<g>
		<path fill-rule="evenodd" clip-rule="evenodd" d="M38.863,16.719c-3.058-13.332-19.283-9.141-20.442-2.185
			c-3.426-1.892-10.806,0.711-11.264,6.991c-10.126,1.071-8.94,17.251,0,17.476c0-0.004,12.682,0,12.396,0
			c-0.006,0-0.004-1.824,0-1.824c0.009,0-11.556-0.003-11.556,0c-8.307-0.433-8.241-14.188,0.734-13.492
			c-0.031-7.622,7.419-8.81,10.904-6.351c1.265-8.37,15.809-11.372,17.81,1.121c12.613,1.518,10.964,18.722-0.114,18.722
			c0.006,0-8,0.05-8,0c0,0,0.024,1.824,0,1.824s8.704,0,8.697,0C49.871,39,52.388,19.391,38.863,16.719z M24.446,21.686l-7.56,8.651
			h5.333V39h4.444v-8.663h5.334L24.446,21.686z"/>
	</g>
</g>
<g id="input-email-a">
	<g>
		<path fill-rule="evenodd" clip-rule="evenodd" fill="#009688" d="M24,47C11.318,47,1,36.683,1,24C1,11.318,11.318,1,24,1
			c12.683,0,23,10.318,23,23C47,36.683,36.683,47,24,47z"/>
		<path fill="#80CBC4" d="M24,2c12.131,0,22,9.869,22,22s-9.869,22-22,22S2,36.131,2,24S11.869,2,24,2 M24,0C10.745,0,0,10.745,0,24
			s10.745,24,24,24s24-10.745,24-24S37.255,0,24,0L24,0z"/>
	</g>
	<g>
		<g>
			<path fill-rule="evenodd" clip-rule="evenodd" fill="#E0F2F1" d="M26.633,29.527c0.558,0.852,3.567,3.091,4.189,3.755
				c0.682,0.445,1.324,0.069,1.506,0.003c0.92-0.817,3.587-2.888,4.111-3.793c0.333-0.574-0.744-0.488-0.744-0.488s-8.002,0-8.291,0
				C26.551,29.004,26.543,29.391,26.633,29.527z M32,28c0.408,0.032,0.842,0.012,1.731-0.251c-0.056-0.404-0.122-0.736-0.202-0.949
				c-0.846-2.242-5.521-2.8-5.521-2.8l-4.776,3.267L18.003,24c-0.725,0.036-4.651,0.946-5.536,2.8C12.034,27.71,12,33.62,12,33.62
				L23.233,38c0,0,0.909-0.37,2.198-0.895C24.258,28.362,24.57,27.572,32,28z M22.999,23.066c2.608,0,4.915-4.325,4.915-7.934
				S27.322,10,23.233,10c-3.878,0-5.148,1.524-5.148,5.133S20.285,23.066,22.999,23.066z M31.648,34.731c0,0-0.137,0.185-0.288,0
				c-0.089-0.108-1.21-1.171-1.657-1.595c-0.046,0.016-3.131,3.485-3.131,3.485s-0.012,0.375,0.311,0.375c0.144,0,9.242,0,9.242,0
				s0.313-0.014,0.313-0.403c0,0-3.119-3.218-3.23-3.365C32.754,33.666,31.648,34.731,31.648,34.731z M26,30.006v5.991l3-2.999
				L26,30.006z M34,32.998l3,2.999v-5.991L34,32.998z"/>
		</g>
	</g>
</g>
<g id="input-email-b">
	<g>
		<path fill="#009688" d="M24,47C11.318,47,1,36.684,1,24C1,11.318,11.318,1,24,1c12.684,0,23,10.318,23,23
			C47,36.684,36.684,47,24,47z"/>
		<path fill="#00796B" d="M24,2c12.131,0,22,9.869,22,22s-9.869,22-22,22S2,36.131,2,24S11.869,2,24,2 M24,0C10.745,0,0,10.745,0,24
			s10.745,24,24,24s24-10.745,24-24S37.255,0,24,0L24,0z"/>
	</g>
	<g>
		<g>
			<path fill="#00695C" d="M26.633,29.527c0.559,0.852,3.567,3.091,4.189,3.755c0.682,0.444,1.324,0.069,1.506,0.003
				c0.92-0.817,3.587-2.889,4.111-3.793c0.332-0.574-0.744-0.488-0.744-0.488s-8.002,0-8.291,0
				C26.551,29.004,26.543,29.391,26.633,29.527z M32,28c0.408,0.032,0.842,0.012,1.73-0.251c-0.056-0.403-0.121-0.735-0.201-0.949
				c-0.846-2.241-5.521-2.8-5.521-2.8l-4.776,3.268L18.003,24c-0.725,0.036-4.651,0.945-5.536,2.8C12.034,27.71,12,33.62,12,33.62
				L23.233,38c0,0,0.909-0.37,2.199-0.895C24.258,28.361,24.57,27.572,32,28z M22.999,23.066c2.608,0,4.915-4.325,4.915-7.934
				c0-3.609-0.592-5.132-4.681-5.132c-3.878,0-5.148,1.524-5.148,5.133C18.085,18.742,20.285,23.066,22.999,23.066z M31.648,34.73
				c0,0-0.137,0.186-0.289,0c-0.088-0.107-1.209-1.17-1.656-1.595c-0.046,0.017-3.131,3.485-3.131,3.485s-0.012,0.375,0.311,0.375
				c0.145,0,9.242,0,9.242,0s0.313-0.014,0.313-0.403c0,0-3.119-3.218-3.229-3.364C32.754,33.666,31.648,34.73,31.648,34.73z
				 M26,30.006v5.991l3-2.999L26,30.006z M34,32.998l3,2.999v-5.991L34,32.998z"/>
		</g>
	</g>
</g>
<g id="input-info-a">
	<g>
		<path fill-rule="evenodd" clip-rule="evenodd" fill="#009688" d="M24,47C11.318,47,1,36.683,1,24C1,11.318,11.318,1,24,1
			c12.683,0,23,10.318,23,23C47,36.683,36.683,47,24,47z"/>
		<path fill="#80CBC4" d="M24,2c12.131,0,22,9.869,22,22s-9.869,22-22,22S2,36.131,2,24S11.869,2,24,2 M24,0C10.745,0,0,10.745,0,24
			s10.745,24,24,24s24-10.745,24-24S37.255,0,24,0L24,0z"/>
	</g>
	<g>
		<g>
			<path fill-rule="evenodd" clip-rule="evenodd" fill="#E0F2F1" d="M23.241,23.072c2.659,0,5.011-4.327,5.011-7.938
				c0-3.61-0.603-5.136-4.771-5.136c-3.955,0-5.25,1.525-5.25,5.136C18.23,18.745,20.475,23.072,23.241,23.072z M32.175,24.811
				c-1.737-0.729-3.825-1.116-3.825-1.116l-4.879,3.336l-5.342-3.336c-0.742,0.037-4.752,0.967-5.655,2.86
				c-0.444,0.93-0.478,6.967-0.478,6.967l11.475,4.473c0,0,0.668-0.613,1.856-0.83C21.402,32.818,23.97,24.086,32.175,24.811z
				 M30.999,25.984c-3.316,0-6.005,2.691-6.005,6.01s2.688,6.008,6.005,6.008s6.005-2.689,6.005-6.008S34.315,25.984,30.999,25.984z
				 M30.052,35.01c0.015,0.072-3.059-2.744-3.059-2.744l0.842-0.873l2.217,1.871c0,0,4.006-4.158,4.039-4.254
				c0,0.086,0.942,0.842,0.913,0.873C35.074,29.809,30.076,35.078,30.052,35.01z"/>
		</g>
	</g>
</g>
<g id="input-info-b">
	<g>
		<path fill="#009688" d="M24,47C11.318,47,1,36.684,1,24C1,11.318,11.318,1,24,1c12.684,0,23,10.318,23,23
			C47,36.684,36.684,47,24,47z"/>
		<path fill="#00796B" d="M24,2c12.131,0,22,9.869,22,22s-9.869,22-22,22S2,36.131,2,24S11.869,2,24,2 M24,0C10.745,0,0,10.745,0,24
			s10.745,24,24,24s24-10.745,24-24S37.255,0,24,0L24,0z"/>
	</g>
	<g>
		<g>
			<path fill="#00695C" d="M23.241,23.072c2.659,0,5.011-4.327,5.011-7.938c0-3.61-0.604-5.136-4.771-5.136
				c-3.955,0-5.25,1.525-5.25,5.136C18.23,18.745,20.475,23.072,23.241,23.072z M32.175,24.811c-1.737-0.729-3.825-1.116-3.825-1.116
				l-4.878,3.336l-5.342-3.336c-0.742,0.037-4.752,0.967-5.655,2.86c-0.444,0.93-0.478,6.967-0.478,6.967l11.475,4.474
				c0,0,0.668-0.613,1.856-0.83C21.402,32.818,23.97,24.086,32.175,24.811z M30.999,25.984c-3.315,0-6.005,2.69-6.005,6.01
				c0,3.318,2.688,6.008,6.005,6.008s6.005-2.689,6.005-6.008C37.004,28.675,34.314,25.984,30.999,25.984z M30.052,35.01
				c0.015,0.072-3.059-2.744-3.059-2.744l0.842-0.873l2.217,1.871c0,0,4.007-4.158,4.039-4.254c0,0.086,0.942,0.842,0.913,0.873
				C35.074,29.809,30.076,35.078,30.052,35.01z"/>
		</g>
	</g>
</g>
<g id="input-pass-a">
	<g>
		<path fill-rule="evenodd" clip-rule="evenodd" fill="#009688" d="M24,47C11.318,47,1,36.683,1,24C1,11.318,11.318,1,24,1
			c12.683,0,23,10.318,23,23C47,36.683,36.683,47,24,47z"/>
		<path fill="#80CBC4" d="M24,2c12.131,0,22,9.869,22,22s-9.869,22-22,22S2,36.131,2,24S11.869,2,24,2 M24,0C10.745,0,0,10.745,0,24
			s10.745,24,24,24s24-10.745,24-24S37.255,0,24,0L24,0z"/>
	</g>
	<g>
		<g>
			<path fill="#E0F2F1" d="M28.902,24.152C28.367,24.043,28.01,24,28.01,24l-4.776,3.267L18.004,24
				c-0.725,0.036-4.651,0.946-5.535,2.8c-0.434,0.91-0.468,6.824-0.468,6.824l11.232,4.381c0,0,1.159-0.473,2.717-1.105
				c-0.5-4.738-0.105-7.248,0.266-8.859C28.381,28.229,27.135,25.859,28.902,24.152z M23,23.067c2.609,0,4.914-4.327,4.914-7.938
				c0-3.609-0.59-5.135-4.68-5.135c-3.877,0-5.147,1.525-5.147,5.135C18.086,18.74,20.286,23.067,23,23.067z M35.314,28.992v-1.02
				C35.313,26.332,34.102,25,32.604,25h-1.23c-1.496,0-2.707,1.332-2.707,2.973v1.02h-1.668v6.438c0,2.225,2.506,2.574,4.363,2.574
				h1.273c1.807,0,4.363-0.299,4.363-2.574v-6.438H35.314z M32.512,33.357v1.514c0,0.234-0.213,0.428-0.51,0.428
				s-0.498-0.193-0.498-0.428v-1.514c-0.506-0.166-0.865-0.65-0.865-1.277c0-0.857,0.455-1.287,1.363-1.287
				c0.906,0,1.363,0.457,1.363,1.287C33.365,32.721,33.02,33.191,32.512,33.357z M33.777,28.992h-3.576v-1.02
				c0.002-0.709,0.525-1.502,1.172-1.502h1.23c0.648,0,1.172,0.793,1.174,1.502V28.992z"/>
		</g>
	</g>
</g>
<g id="input-pass-b">
	<g>
		<path fill-rule="evenodd" clip-rule="evenodd" fill="#009688" d="M24,47C11.318,47,1,36.683,1,24C1,11.318,11.318,1,24,1
			c12.683,0,23,10.318,23,23C47,36.683,36.683,47,24,47z"/>
		<path fill="#00796B" d="M24,2c12.131,0,22,9.869,22,22s-9.869,22-22,22S2,36.131,2,24S11.869,2,24,2 M24,0C10.745,0,0,10.745,0,24
			s10.745,24,24,24s24-10.745,24-24S37.255,0,24,0L24,0z"/>
	</g>
	<g>
		<g>
			<path fill="#00695C" d="M23,23.067c2.609,0,4.914-4.327,4.914-7.938c0-3.609-0.59-5.135-4.68-5.135
				c-3.877,0-5.147,1.525-5.147,5.135C18.086,18.74,20.286,23.067,23,23.067z M28.902,24.152C28.367,24.043,28.01,24,28.01,24
				l-4.776,3.267L18.004,24c-0.725,0.036-4.651,0.946-5.535,2.8c-0.434,0.91-0.468,6.824-0.468,6.824l11.232,4.381
				c0,0,1.159-0.473,2.717-1.105c-0.5-4.738-0.105-7.248,0.266-8.859C28.381,28.229,27.135,25.859,28.902,24.152z M35.314,28.992
				v-1.02C35.313,26.332,34.102,25,32.604,25h-1.23c-1.496,0-2.707,1.332-2.707,2.973v1.02h-1.668v6.438
				c0,2.225,2.506,2.574,4.363,2.574h1.273c1.807,0,4.363-0.299,4.363-2.574v-6.438H35.314z M32.512,33.357v1.514
				c0,0.234-0.213,0.428-0.51,0.428s-0.498-0.193-0.498-0.428v-1.514c-0.506-0.166-0.865-0.65-0.865-1.277
				c0-0.857,0.455-1.287,1.363-1.287c0.906,0,1.363,0.457,1.363,1.287C33.365,32.721,33.02,33.191,32.512,33.357z M33.777,28.992
				h-3.576v-1.02c0.002-0.709,0.525-1.502,1.172-1.502h1.23c0.648,0,1.172,0.793,1.174,1.502V28.992z"/>
		</g>
	</g>
</g>
</svg>
