<svg version="1.1" id="_1" xmlns="http://www.w3.org/2000/svg" xmlns:xlink="http://www.w3.org/1999/xlink" x="0px" y="0px"
	 width="16px" height="16px" viewBox="0 0 16 16" enable-background="new 0 0 16 16" xml:space="preserve">
<g>
	<g>
		<path d="M3.738,11.467c0,0.212,0.123,0.387,0.292,0.457v-0.915C3.859,11.078,3.738,11.254,3.738,11.467z M4.185,11.958
			c-0.055,0-0.106-0.015-0.155-0.034v0.034H4.185z M11.49,4.994c-0.275,0-0.499,0.223-0.499,0.5c0,0.276,0.224,0.5,0.499,0.5h1
			c0.275,0,0.498-0.224,0.498-0.5c0-0.276-0.223-0.5-0.498-0.5H11.49z M4.03,10.975v0.034c0.048-0.02,0.1-0.034,0.155-0.034H4.03z
			 M2.796,14.697v-6.7h9.381l0.936-0.006l-0.146-0.118c0.23,0,0.413-0.199,0.413-0.447s-0.183-0.447-0.413-0.447H1.92
			c-0.229,0-0.414,0.199-0.414,0.447S1.691,7.873,1.92,7.873L1.874,7.991v2.998c-0.748,0-0.822-0.127-0.822-0.936V4.897
			c0-0.809-0.134-0.658,0.614-0.658h11.656c0.748,0,0.614-0.151,0.614,0.658v4.126l1.052,0.021v-5.05c0-0.834-0.903-1-0.938-1
			h-0.937V0.997c0-0.928-0.903-0.999-0.936-0.999H2.811c-0.882,0-0.937,1.008-0.937,0.999v1.998H0.937C0.025,2.995,0,3.972,0,3.995
			v6.995c0,0.803,0.875,0.998,0.937,0.998h0.937v2.997c0,0.651,0.336,1,0.937,1h1.143v-1.013H3.102
			C2.936,14.972,2.796,14.847,2.796,14.697z M2.893,2.06c0-0.68,0.182-0.783,0.854-0.783h7.495c0.673,0,0.854,0.228,0.854,0.783
			v1.032H2.893V2.06z M14.032,9.974v4.518l-3.012-4.518H9.985v6.028h0.968v-4.522l3.011,4.522H15V9.974H14.032z M8.649,8.99H4.402
			c-0.362,0-0.656,0.224-0.656,0.5c0,0.275,0.294,0.499,0.656,0.499c0,0,0.742,0,2.592,0C7.103,9.989,7.267,8.99,8.649,8.99z
			 M3.74,13.461c0,0.219,0.121,0.402,0.29,0.475v-0.947C3.86,13.06,3.74,13.242,3.74,13.461z M4.03,12.952v0.036
			c0.049-0.021,0.101-0.036,0.156-0.036H4.03z M4.186,13.972c-0.056,0-0.107-0.015-0.156-0.036v0.036H4.186z M8.992,10.989
			l-0.851,0.013l-1.152,1.15l-1.161-1.157l-0.834-0.006l-0.004,0.844l1.16,1.157l-1.166,1.164l0.01,0.83h0.821l1.166-1.163
			l1.16,1.157l0.851,0.006L8.98,14.141l-1.159-1.157l1.146-1.15L8.992,10.989z"/>
	</g>
</g>
</svg>
