<svg version="1.1" id="_1" xmlns="http://www.w3.org/2000/svg" xmlns:xlink="http://www.w3.org/1999/xlink" x="0px" y="0px"
	 width="16px" height="16px" viewBox="0 0 16 16" enable-background="new 0 0 16 16" xml:space="preserve">
<g>
	<g>
		<path d="M11.497,4.991c-0.275,0-0.5,0.224-0.5,0.5s0.225,0.5,0.5,0.5h1c0.276,0,0.5-0.224,0.5-0.5s-0.224-0.5-0.5-0.5H11.497z
			 M3.749,9.49c0,0.276,0.293,0.5,0.655,0.5c0,0,2.742,0,4.593,0c0.109,0,0.273-1,1.656-1H4.404C4.042,8.99,3.749,9.214,3.749,9.49z
			 M2.798,14.701V7.997h9.387l0.938-0.007l-0.146-0.117c0.229,0,0.414-0.199,0.414-0.448s-0.186-0.447-0.414-0.447H1.922
			c-0.229,0-0.413,0.198-0.413,0.447s0.184,0.448,0.413,0.448L1.875,7.99v3c-0.749,0-0.823-0.126-0.823-0.936v-5.16
			c0-0.81-0.134-0.658,0.614-0.658H13.33c0.748,0,0.613-0.151,0.613,0.658v4.128l1.054,0.021V3.991c0-0.834-0.905-1-0.938-1h-0.938
			V0.992c0-0.928-0.905-1-0.938-1H2.812c-0.882,0-0.937,1.01-0.937,1v1.999H0.938C0.024,2.991,0,3.97,0,3.991v6.999
			c0,0.804,0.875,0.999,0.938,0.999h0.938v3c0,0.65,0.336,0.999,0.937,0.999h3.144v-1.013H3.104
			C2.937,14.976,2.798,14.851,2.798,14.701z M2.894,2.056c0-0.681,0.183-0.783,0.855-0.783h7.498c0.673,0,0.855,0.228,0.855,0.783
			v1.033H2.894V2.056z M10.997,10.99l-0.852,0.014l-1.153,1.15l-1.158-1.157L6.998,10.99l-0.004,0.845l1.16,1.158l-1.167,1.165
			l0.011,0.831h0.821l1.166-1.164l1.16,1.157l0.852,0.007l-0.012-0.846l-1.16-1.157l1.146-1.151L10.997,10.99z M3.741,13.464
			c0,0.283,0.199,0.511,0.447,0.511h1.844v-1.02H4.188C3.94,12.955,3.741,13.182,3.741,13.464z M3.74,11.469
			c0,0.273,0.202,0.491,0.446,0.491h1.846v-0.983H4.187C3.938,10.977,3.74,11.195,3.74,11.469z M14.355,9.984
			c-0.174,0.345-0.471,0.701-0.889,1.067c-0.418,0.367-0.907,0.68-1.466,0.938v0.95c0.312-0.113,0.661-0.282,1.052-0.508
			s0.707-0.45,0.947-0.677v4.253h1V9.984H14.355z"/>
	</g>
</g>
</svg>
