<svg version="1.1" id="_1" xmlns="http://www.w3.org/2000/svg" xmlns:xlink="http://www.w3.org/1999/xlink" x="0px" y="0px"
	 width="24px" height="24px" viewBox="0 0 24 24" enable-background="new 0 0 24 24" xml:space="preserve">
<path d="M18.144,4.466C16.689,3.116,15.35,3,13.053,3h-0.306h-9.34c-0.421,0-0.88,0.116-1.033,0.386L1.685,4.698
	C1.57,5.238,2.221,5.277,2.221,5.277h0.958c0.267,0,0.344,0.231,0.344,0.424V17.78c0,0.541-0.613,0.888-1.11,1.003
	c-0.191,0.039-0.536,0.116-0.689,0.347l-0.689,1.391c-0.114,0.27,0.077,0.463,0.307,0.463c3.828,0,7.119,0.038,10.946,0
	c0.153,0,0.307,0,0.46,0c1.646,0.038,3.559,0,5.319-1.429c1.416-0.926,3.063-4.669,3.675-6.213c0.305-0.81,0.382-1.89,0-2.662
	C20.669,8.248,19.139,5.547,18.144,4.466z M15.502,12.647l-2.755,4.708l-0.536,0.888c-0.383,0.579-0.574,0.463-1.072,0.502H9.838
	V5.779c0-0.348,0.038-0.502,0.344-0.541h0.957c0.344,0,0.842-0.077,1.11,0.463l0.498,0.85l2.755,4.862
	C15.77,11.991,15.692,12.262,15.502,12.647z"/>
</svg>
