<svg version="1.1" id="_1" xmlns="http://www.w3.org/2000/svg" xmlns:xlink="http://www.w3.org/1999/xlink" x="0px" y="0px"
	 width="86px" height="24px" viewBox="0 0 86 24" enable-background="new 0 0 86 24" xml:space="preserve">
<g>
	<g>
		<path fill="#FFFFFF" d="M28.951,0.911c-1.294,0-2.343,1.031-2.343,2.302s1.049,2.302,2.343,2.302c1.293,0,2.342-1.031,2.342-2.302
			S30.244,0.911,28.951,0.911z M84.879,13.201c-0.747-1.003-1.839-1.767-3.275-2.291c-2.1-0.534-2.418-0.946-5.32-1.827
			c-0.431-0.124-0.803-0.326-1.116-0.608c-0.559-0.502-0.838-1.202-0.838-2.099c0-0.843,0.282-1.521,0.847-2.035
			c0.565-0.513,1.324-0.769,2.278-0.769c0.918,0,1.656,0.254,2.217,0.761c0.559,0.508,0.839,1.184,0.839,2.027
			c0,0.897-0.283,1.6-0.848,2.107c-0.152,0.137-0.577,0.507-0.907,0.669c1.017,0.367,2.185,0.792,3.523,1.309
			c0.832-0.463,1.604-1.002,1.956-1.481c0.624-0.849,0.937-1.819,0.937-2.908c0-1.752-0.68-3.199-2.04-4.342
			C81.771,0.572,79.861,0,77.4,0c-2.483,0-4.399,0.572-5.748,1.714c-1.348,1.143-2.021,2.59-2.021,4.342
			c0,1.025,0.291,1.968,0.874,2.828c0.583,0.859,1.516,1.535,2.8,2.026c2.775,1.34,3.298,1.329,5.612,2.177
			c0.429,0.166,0.813,0.416,1.151,0.746c0.682,0.668,1.023,1.553,1.023,2.652c0,1.261-0.335,2.224-1.006,2.892
			c-0.672,0.667-1.52,1.001-2.544,1.001c-1.048,0-1.922-0.347-2.622-1.042c-0.7-0.693-1.051-1.66-1.051-2.898
			c0-0.887,0.298-1.71,0.892-2.468c0.38-0.484,0.885-0.813,1.516-0.988c-1.909-0.726-3.012-1.177-3.853-1.576
			c-1.03,0.525-1.864,1.137-2.404,1.963c-0.695,1.063-1.042,2.231-1.042,3.501c0,2.307,0.924,4.124,2.772,5.448
			C73.316,23.439,75.276,24,77.63,24c2.532,0,4.56-0.678,6.084-2.035C85.238,20.608,86,18.847,86,16.679
			C86,15.365,85.627,14.205,84.879,13.201z"/>
	</g>
</g>
<g>
	<g>
		<path fill="#FFFFFF" d="M11.746,16.983V0.933H8.038v6.188C7.727,6.978,7.404,6.875,7.072,6.814
			C6.74,6.753,6.324,6.722,5.826,6.722c-1.932,0-3.386,0.7-4.362,2.099C0.488,10.219,0,12.267,0,14.961
			c0,2.758,0.452,4.748,1.355,5.973c0.903,1.226,2.145,1.838,3.724,1.838c1.764,0,3-0.714,3.707-2.144H8.91l0.499,1.776h2.617
			c-0.146-1.041-0.229-1.991-0.249-2.849C11.757,18.698,11.746,17.841,11.746,16.983z M8.038,17.81
			c-0.166,0.531-0.416,0.935-0.748,1.21s-0.778,0.413-1.34,0.413c-0.727,0-1.262-0.372-1.604-1.117
			c-0.343-0.745-0.515-1.822-0.515-3.23c0-1.88,0.208-3.187,0.623-3.921c0.416-0.735,1.039-1.103,1.869-1.103
			c0.416,0,0.753,0.042,1.013,0.123c0.26,0.082,0.493,0.214,0.701,0.398V17.81z M20.002,15.023l-0.343,2.45h-0.125l-0.374-2.42
			L17.011,7.06H12.68l5.516,15.468h2.491L25.921,7.06h-3.987L20.002,15.023z M27.167,22.373h3.708V7.06h-3.708V22.373z
			 M43.195,7.901c-0.488-0.459-1.043-0.786-1.665-0.979c-0.625-0.194-1.269-0.292-1.933-0.292c-1.974,0-3.515,0.658-4.626,1.976
			c-1.112,1.317-1.668,3.354-1.668,6.11c0,1.268,0.12,2.396,0.359,3.385c0.238,0.99,0.606,1.833,1.106,2.527
			c0.498,0.694,1.137,1.226,1.915,1.593c0.779,0.367,1.709,0.551,2.789,0.551c0.975,0,1.91-0.143,2.803-0.428
			c0.893-0.286,1.6-0.654,2.118-1.104l-1.152-2.542c-0.291,0.225-0.711,0.439-1.261,0.643c-0.551,0.205-1.159,0.307-1.823,0.307
			c-1.102,0-1.899-0.337-2.398-1.011c-0.499-0.673-0.769-1.643-0.811-2.909h7.57c0.104-0.592,0.182-1.144,0.233-1.654
			s0.078-0.99,0.078-1.439c0-1.164-0.151-2.129-0.452-2.895S43.683,8.361,43.195,7.901z M41.374,13.308h-4.3
			c0.063-1.123,0.291-1.995,0.686-2.618c0.395-0.624,0.986-0.936,1.775-0.936c0.664,0,1.153,0.302,1.465,0.905
			C41.312,11.261,41.437,12.144,41.374,13.308z M61.833,7.602l-1.465,7.81l-0.312,2.572h-0.124l-0.374-2.542l-2.181-7.84h-2.772
			l-1.901,7.657l-0.405,2.757h-0.125l-0.279-2.726l-1.683-7.688h-4.021l3.989,15.467h3.022l2.242-8.484l0.219-2.021h0.187
			l0.249,1.96l2.337,8.546h2.929l3.831-15.467H61.833z"/>
	</g>
</g>
</svg>
