<svg version="1.1" id="_x31_" xmlns="http://www.w3.org/2000/svg" xmlns:xlink="http://www.w3.org/1999/xlink" x="0px" y="0px"
	 width="70px" height="28px" viewBox="0 0 70 28" enable-background="new 0 0 70 28" xml:space="preserve">
<g>
	<path fill="#F49C24" d="M51.275,0.461c0.608,0.614,0.608,1.61,0,2.225c-0.608,0.614-1.596,0.614-2.205,0
		c-0.607-0.614-0.607-1.61,0-2.225C49.68-0.154,50.667-0.153,51.275,0.461"/>
	<path fill="#A3C637" d="M6.568,12.756L3.834,9.998c-0.036,1.016-0.845,1.825-1.844,1.862l2.731,2.755
		C4.759,13.6,5.568,12.792,6.568,12.756"/>
	<path fill="#A3C637" d="M3.833,9.859l2.734-2.758c-1-0.036-1.809-0.844-1.847-1.86L1.992,7.995C2.998,8.033,3.798,8.85,3.833,9.859
		"/>
	<path fill="#F49C24" d="M3.833,9.859C3.798,8.85,2.998,8.033,1.992,7.995c-0.013,0-0.026-0.002-0.04-0.003
		C0.893,7.974,0.019,8.825,0,9.895c-0.018,1.069,0.826,1.951,1.885,1.97c0.036,0,0.07-0.002,0.105-0.004
		c0.999-0.037,1.808-0.846,1.844-1.862c0-0.012,0.002-0.024,0.002-0.036C3.837,9.927,3.835,9.894,3.833,9.859"/>
	<path fill="#E51F59" d="M6.67,12.752c-0.035,0-0.068,0.002-0.103,0.003c-1,0.036-1.809,0.844-1.846,1.859
		c0,0.014-0.002,0.026-0.003,0.038c-0.018,1.07,0.826,1.951,1.885,1.971c1.06,0.02,1.934-0.833,1.952-1.902
		C8.574,13.653,7.73,12.771,6.67,12.752"/>
	<path fill="#1AB6DB" d="M6.604,3.232c-1.059,0.019-1.903,0.9-1.885,1.97c0,0.013,0.002,0.026,0.003,0.039
		c0.038,1.016,0.847,1.824,1.846,1.86C6.602,7.102,6.636,7.104,6.67,7.104c1.06-0.019,1.903-0.9,1.885-1.97
		C8.537,4.065,7.663,3.213,6.604,3.232"/>
	<path fill="#FFFFFF" d="M15.768,6.875c0.193-0.234,0.425-0.45,0.696-0.647c0.232-0.16,0.516-0.308,0.851-0.443
		c0.335-0.136,0.722-0.204,1.161-0.204c0.528,0,1.019,0.093,1.47,0.278c0.451,0.186,0.841,0.457,1.17,0.814
		c0.329,0.358,0.583,0.789,0.764,1.294c0.181,0.505,0.271,1.083,0.271,1.735v5.464H19.54v-5.143c0-0.571-0.171-1.032-0.513-1.381
		c-0.342-0.349-0.784-0.524-1.325-0.524c-0.58,0-1.048,0.185-1.402,0.553c-0.354,0.368-0.532,0.914-0.532,1.638v4.857h-2.612V5.601
		h2.612V6.875z"/>
	<path fill="#FFFFFF" d="M30.208,14.114c-0.194,0.202-0.426,0.381-0.696,0.536c-0.232,0.131-0.516,0.252-0.852,0.365
		s-0.722,0.17-1.161,0.17c-0.529,0-1.019-0.093-1.47-0.277c-0.452-0.186-0.842-0.45-1.17-0.796c-0.329-0.345-0.584-0.76-0.764-1.246
		c-0.181-0.486-0.271-1.035-0.271-1.649V5.601h2.611v5.335c0,0.533,0.171,0.968,0.513,1.305c0.341,0.336,0.784,0.505,1.325,0.505
		c0.58,0,1.047-0.184,1.402-0.553c0.354-0.368,0.532-0.915,0.532-1.639V5.601h2.611v9.566h-2.611L30.208,14.114L30.208,14.114z"/>
	<path fill="#FFFFFF" d="M34.01,10.384c0-0.64,0.135-1.249,0.406-1.827c0.271-0.578,0.638-1.086,1.104-1.525
		c0.465-0.439,1.008-0.791,1.633-1.055s1.287-0.396,1.983-0.396c0.657,0,1.229,0.101,1.712,0.303
		c0.483,0.202,0.887,0.426,1.209,0.673c0.375,0.286,0.689,0.612,0.947,0.976l-1.645,1.621c-0.154-0.227-0.342-0.429-0.562-0.605
		c-0.181-0.151-0.413-0.293-0.696-0.426c-0.283-0.132-0.605-0.199-0.967-0.199c-0.336,0-0.654,0.063-0.958,0.191
		c-0.303,0.128-0.569,0.304-0.803,0.529c-0.231,0.225-0.416,0.486-0.552,0.783c-0.135,0.298-0.203,0.616-0.203,0.957
		c0,0.341,0.068,0.659,0.203,0.957c0.136,0.298,0.318,0.559,0.552,0.784c0.231,0.225,0.5,0.401,0.803,0.528
		c0.304,0.127,0.622,0.191,0.958,0.191c0.36,0,0.684-0.06,0.967-0.18s0.528-0.252,0.735-0.396c0.231-0.168,0.438-0.366,0.618-0.594
		l1.548,1.561c-0.258,0.364-0.573,0.689-0.946,0.976c-0.324,0.247-0.727,0.473-1.209,0.674c-0.484,0.201-1.056,0.303-1.713,0.303
		c-0.697,0-1.357-0.131-1.982-0.396s-1.17-0.615-1.635-1.055c-0.463-0.439-0.832-0.948-1.103-1.525
		C34.146,11.633,34.01,11.024,34.01,10.384"/>
	<rect x="44.094" y="1.501" fill="#FFFFFF" width="2.611" height="13.666"/>
	<rect x="48.868" y="5.646" fill="#FFFFFF" width="2.61" height="9.521"/>
	<path fill="#FFFFFF" d="M58.797,14.114c-0.206,0.202-0.438,0.381-0.695,0.536c-0.221,0.131-0.49,0.252-0.813,0.365
		s-0.69,0.17-1.103,0.17c-0.49,0-0.93-0.07-1.315-0.213c-0.388-0.143-0.724-0.33-1.006-0.564c-0.284-0.234-0.5-0.509-0.648-0.824
		c-0.147-0.315-0.222-0.645-0.222-0.991c0-0.741,0.248-1.358,0.744-1.852c0.496-0.494,1.184-0.815,2.061-0.963l2.998-0.519
		c0-0.381-0.139-0.699-0.416-0.954c-0.277-0.255-0.688-0.381-1.229-0.381c-0.375,0-0.689,0.052-0.947,0.156
		c-0.26,0.104-0.479,0.215-0.658,0.332c-0.206,0.144-0.38,0.306-0.521,0.488l-1.45-1.463c0.258-0.338,0.573-0.644,0.946-0.917
		c0.311-0.234,0.701-0.449,1.172-0.644s1.021-0.293,1.652-0.293c0.606,0,1.158,0.096,1.654,0.288s0.925,0.457,1.286,0.795
		c0.36,0.339,0.639,0.735,0.832,1.189c0.192,0.454,0.29,0.942,0.29,1.466v5.847h-2.611V14.114z M56.861,13.039
		c0.58,0,1.049-0.171,1.402-0.513c0.354-0.342,0.532-0.831,0.532-1.467v-0.27l-2.128,0.36c-0.709,0.108-1.063,0.438-1.063,0.99
		c0,0.276,0.1,0.495,0.299,0.657S56.424,13.039,56.861,13.039"/>
	<path fill="#FFFFFF" d="M68.348,8.607c-0.117-0.143-0.252-0.273-0.406-0.391c-0.144-0.104-0.308-0.195-0.494-0.273
		C67.26,7.865,67.045,7.826,66.8,7.826c-0.387,0-0.677,0.078-0.87,0.233c-0.193,0.155-0.291,0.326-0.291,0.512
		c0,0.211,0.107,0.382,0.319,0.513c0.213,0.13,0.479,0.248,0.803,0.354c0.322,0.105,0.675,0.217,1.056,0.335
		c0.379,0.118,0.73,0.279,1.054,0.484c0.321,0.205,0.591,0.469,0.803,0.792c0.213,0.323,0.319,0.739,0.319,1.248
		c0,0.398-0.084,0.771-0.251,1.118c-0.168,0.348-0.41,0.652-0.726,0.913c-0.316,0.261-0.709,0.469-1.181,0.624
		c-0.471,0.155-1.01,0.233-1.614,0.233c-0.685,0-1.271-0.093-1.762-0.273c-0.49-0.184-0.891-0.385-1.199-0.605
		c-0.374-0.247-0.677-0.54-0.908-0.878l1.45-1.381c0.154,0.192,0.335,0.36,0.541,0.504c0.181,0.132,0.394,0.246,0.64,0.342
		c0.244,0.096,0.527,0.144,0.852,0.144c0.438,0,0.757-0.081,0.957-0.242s0.3-0.36,0.3-0.597c0-0.236-0.106-0.419-0.319-0.55
		c-0.213-0.13-0.479-0.251-0.803-0.364c-0.322-0.111-0.674-0.227-1.054-0.345c-0.381-0.118-0.731-0.276-1.056-0.476
		c-0.321-0.199-0.59-0.453-0.803-0.764c-0.213-0.311-0.318-0.721-0.318-1.23c0-0.348,0.091-0.696,0.271-1.044
		c0.181-0.348,0.435-0.659,0.765-0.932c0.328-0.273,0.719-0.494,1.17-0.662c0.451-0.167,0.94-0.251,1.471-0.251
		c0.554,0,1.038,0.078,1.449,0.234c0.414,0.156,0.756,0.325,1.025,0.507C69.21,6.545,69.48,6.786,69.7,7.045L68.348,8.607z"/>
	<path fill="#A3C637" d="M30.541,21.902c1.511,0,2.296,1.22,2.296,1.22l-0.423,0.364c0,0-0.604-1.035-1.873-1.035
		c-1.208,0-2.296,1.098-2.296,2.5s1.087,2.5,2.296,2.5c1.269,0,1.873-1.037,1.873-1.037l0.423,0.365c0,0-0.786,1.221-2.296,1.221
		s-2.84-1.342-2.84-3.049C27.701,23.243,29.03,21.902,30.541,21.902"/>
	<path fill="#A3C637" d="M36.825,21.902c1.571,0,2.899,1.341,2.899,3.049c0,1.707-1.328,3.049-2.899,3.049s-2.9-1.342-2.9-3.049
		C33.925,23.243,35.254,21.902,36.825,21.902 M36.825,22.451c-1.269,0-2.356,1.098-2.356,2.5s1.088,2.5,2.356,2.5
		s2.356-1.098,2.356-2.5S38.094,22.451,36.825,22.451"/>
	<path fill="#A3C637" d="M41.721,23.061c0,0,0.543-1.158,1.993-1.158c1.329,0,2.356,1.037,2.356,2.5v3.477h-0.545v-3.477
		c0-1.158-0.784-1.95-1.813-1.95c-1.088,0-1.994,0.914-1.994,2.134v3.293h-0.544v-5.854h0.544v1.035H41.721z"/>
	<path fill="#A3C637" d="M48.428,23.061c0,0,0.545-1.158,1.994-1.158c1.329,0,2.355,1.037,2.355,2.5v3.477h-0.543v-3.477
		c0-1.158-0.785-1.95-1.813-1.95c-1.088,0-1.994,0.914-1.994,2.134v3.293h-0.544v-5.854h0.544L48.428,23.061L48.428,23.061z"/>
	<path fill="#A3C637" d="M54.771,25.195c0.062,1.219,1.088,2.256,2.297,2.256c1.27,0,1.934-1.024,1.934-1.024l0.363,0.354
		c0,0-0.786,1.22-2.297,1.22c-1.512,0-2.84-1.342-2.84-3.049c0-1.708,1.328-3.05,2.778-3.05s2.659,1.221,2.659,3.05v0.243H54.771
		L54.771,25.195z M54.771,24.646h4.352c-0.061-1.281-0.967-2.195-2.115-2.195S54.833,23.486,54.771,24.646"/>
	<path fill="#A3C637" d="M63.596,21.902c1.51,0,2.295,1.22,2.295,1.22l-0.423,0.364c0,0-0.604-1.035-1.872-1.035
		c-1.21,0-2.297,1.098-2.297,2.5s1.087,2.5,2.297,2.5c1.269,0,1.872-1.037,1.872-1.037l0.423,0.365c0,0-0.785,1.221-2.295,1.221
		c-1.512,0-2.841-1.342-2.841-3.049C60.755,23.243,62.084,21.902,63.596,21.902"/>
	<path fill="#A3C637" d="M67.825,20.072h0.483v1.951h1.328v0.55h-1.328v3.841c0,0.671,0.361,1.037,0.905,1.037
		c0.423,0,0.785-0.184,0.785-0.184v0.549c0,0-0.362,0.184-0.785,0.184c-0.905,0-1.45-0.549-1.45-1.586v-3.841h-1.147v-0.55h0.786
		c0.24,0,0.423-0.184,0.423-0.487V20.072z"/>
</g>
</svg>
