<svg version="1.1" id="1" xmlns="http://www.w3.org/2000/svg" xmlns:xlink="http://www.w3.org/1999/xlink" x="0px" y="0px"
	 width="32px" height="19px" viewBox="0 0 32 19" enable-background="new 0 0 32 19" xml:space="preserve">
<g>
	<path fill="#A3C637" d="M9.488,13.513L5.54,9.599c-0.053,1.442-1.221,2.591-2.664,2.643l3.945,3.91
		C6.875,14.709,8.044,13.563,9.488,13.513"/>
	<path fill="#A3C637" d="M5.538,9.401l3.95-3.913C8.044,5.438,6.875,4.291,6.82,2.85L2.877,6.758
		C4.331,6.812,5.487,7.971,5.538,9.401"/>
	<path fill="#F49C24" d="M5.538,9.401c-0.051-1.431-1.208-2.59-2.661-2.644C2.858,6.757,2.839,6.754,2.82,6.754
		C1.289,6.727,0.027,7.936,0,9.453c-0.026,1.516,1.193,2.767,2.723,2.793c0.051,0.001,0.101-0.003,0.152-0.005
		c1.442-0.052,2.611-1.2,2.664-2.643c0.001-0.017,0.003-0.034,0.003-0.052C5.544,9.499,5.54,9.451,5.538,9.401"/>
	<path fill="#E51F59" d="M9.636,13.507c-0.05-0.001-0.098,0.003-0.148,0.006c-1.444,0.05-2.613,1.196-2.668,2.639
		c0,0.018-0.003,0.036-0.003,0.054C6.79,17.723,8.009,18.974,9.54,19c1.531,0.027,2.793-1.182,2.82-2.699
		C12.386,14.785,11.166,13.534,9.636,13.507"/>
	<path fill="#1AB6DB" d="M9.54,0c-1.53,0.026-2.75,1.278-2.723,2.795c0,0.019,0.003,0.036,0.003,0.055
		c0.055,1.441,1.224,2.588,2.667,2.639c0.05,0.002,0.098,0.006,0.148,0.005c1.53-0.026,2.75-1.277,2.723-2.795
		C12.332,1.182,11.07-0.026,9.54,0"/>
	<path fill="#FFFFFF" d="M22.777,5.168c0.279-0.331,0.615-0.638,1.008-0.917c0.333-0.228,0.744-0.437,1.228-0.629
		c0.485-0.192,1.044-0.289,1.678-0.289c0.764,0,1.472,0.131,2.124,0.395s1.216,0.648,1.69,1.156
		c0.476,0.508,0.844,1.119,1.104,1.836C31.87,7.436,32,8.256,32,9.181v7.752h-3.771V9.635c0-0.81-0.248-1.462-0.741-1.957
		c-0.494-0.496-1.132-0.744-1.915-0.744c-0.838,0-1.513,0.263-2.025,0.784c-0.513,0.522-0.77,1.297-0.77,2.324v6.891h-3.771V3.361
		h3.771V5.168z"/>
</g>
</svg>
