<svg version="1.1" id="_x31_" xmlns="http://www.w3.org/2000/svg" xmlns:xlink="http://www.w3.org/1999/xlink" x="0px" y="0px"
	 width="16px" height="16px" viewBox="0 0 16 16" enable-background="new 0 0 16 16" xml:space="preserve">
<g>
	<g>
		<path fill-rule="evenodd" clip-rule="evenodd" d="M12.083,1.001C12.065,0.983,12.093,6,12.083,6H2.945
			c-0.016,0,0.028-4.999,0-4.999c-0.313,0-0.389,0-0.389,0c-0.9,0-1.556,0.781-1.556,1.679v11.695c0,0.896,0.729,1.624,1.63,1.624
			h10.738c0.9,0,1.63-0.101,1.63-0.998V4.02C14.999,4.02,12.295,1.001,12.083,1.001z M13.829,13.814
			c0,0.548-0.379,0.991-0.846,0.991H3.016c-0.467,0-0.845-0.443-0.845-0.991L2.163,9.213c0-0.556,0.379-1.007,0.846-1.007h9.981
			c0.468,0,0.847,0.451,0.847,1.007L13.829,13.814z M11.59,11.992H4.409c-0.235,0-0.426,0.224-0.426,0.499s0.19,0.498,0.426,0.498
			h7.181c0.235,0,0.426-0.223,0.426-0.498S11.825,11.992,11.59,11.992z M11.59,10.012H4.409c-0.235,0-0.426,0.226-0.426,0.505
			c0,0.278,0.19,0.504,0.426,0.504h7.181c0.235,0,0.426-0.226,0.426-0.504C12.016,10.237,11.825,10.012,11.59,10.012z M8.398,5.008
			h1.205c0.25,0,0.4-0.245,0.4-0.572V1.573c0-0.327-0.15-0.572-0.4-0.572H8.398c-0.25,0-0.4,0.245-0.4,0.572v2.862
			C7.998,4.763,8.148,5.008,8.398,5.008z"/>
	</g>
</g>
</svg>
