<svg version="1.1" id="_x31_" xmlns="http://www.w3.org/2000/svg" xmlns:xlink="http://www.w3.org/1999/xlink" x="0px" y="0px"
	 width="24px" height="24px" viewBox="0 0 24 24" enable-background="new 0 0 24 24" xml:space="preserve">
<g>
	<g>
		<path fill-rule="evenodd" clip-rule="evenodd" d="M14.996,10.644l-3.612-1.095l-1.48-3.527L7.76,9.18c0,0-0.49,0.045-1.117,0.103
			C5.536,9.384,4.004,9.525,4.004,9.525l2.289,3.046l-0.842,3.74l3.558-1.275l3.236,1.967l-0.09-3.835L14.996,10.644z
			 M16.915,10.015l2.023-1.331l2.314,0.707l-0.637-2.338l1.387-1.987l-2.418-0.115l-1.457-1.935l-0.856,2.268l-2.288,0.791
			l1.889,1.516L16.915,10.015z M4.174,6.387l0.818-1.119L3.623,5.161L2.828,4.023l-0.521,1.29l-1.31,0.416l1.046,0.904L2.028,8.029
			l1.169-0.731l1.301,0.446L4.174,6.387z M16.802,17.209c-1.328-1.288-2.566-2.441-3.174-3.004
			c-0.006,1.132-0.075,2.409,0.004,3.972c2.981,2.814,5.896,5.569,5.896,5.569c0.253,0.25,0.894,0.336,1.132,0.095l1.175-1.085
			c0.239-0.24,0.143-0.662-0.11-0.911C21.724,21.845,20.136,20.443,16.802,17.209z"/>
	</g>
</g>
</svg>
 