<svg version="1.1" id="_x31_" xmlns="http://www.w3.org/2000/svg" xmlns:xlink="http://www.w3.org/1999/xlink" x="0px" y="0px"
	 width="16px" height="16px" viewBox="0 0 16 16" enable-background="new 0 0 16 16" xml:space="preserve">
<g>
	<g>
		<path fill-rule="evenodd" clip-rule="evenodd" d="M9.997,6.381L7.365,5.586L6.287,3.023L4.726,5.318c0,0-0.357,0.032-0.814,0.074
			C3.104,5.467,1.989,5.569,1.989,5.569l1.667,2.214L3.044,10.5l2.592-0.927l2.357,1.429L7.928,8.216L9.997,6.381z M11.385,6.011
			l1.438-0.951l1.646,0.505l-0.453-1.67l0.986-1.419l-1.719-0.082L12.247,1.01l-0.609,1.62l-1.627,0.565l1.344,1.083L11.385,6.011z
			 M2.391,2.784l0.616-0.837l-1.031-0.08l-0.6-0.851L0.983,1.98l-0.986,0.312l0.788,0.676L0.774,4.011l0.88-0.547l0.98,0.334
			L2.391,2.784z M11.287,11.15c-0.948-0.921-1.833-1.745-2.267-2.146c-0.005,0.809-0.055,1.721,0.002,2.837
			c2.131,2.011,4.212,3.979,4.212,3.979c0.181,0.179,0.638,0.24,0.81,0.068l0.838-0.775c0.172-0.172,0.103-0.473-0.078-0.651
			C14.804,14.461,13.669,13.461,11.287,11.15z"/>
	</g>
</g>
</svg>
