
<svg version="1.1" id="_x31_" xmlns="http://www.w3.org/2000/svg" xmlns:xlink="http://www.w3.org/1999/xlink" x="0px" y="0px"
	 width="24px" height="24px" viewBox="0 0 24 24" enable-background="new 0 0 24 24" xml:space="preserve">
<g id="cameras">
	<g>
		<path d="M12,3C5.925,3,1,8.003,1,14.176c0,2.567,0.592,4.932,2.022,6.817C5.035,20.993,18.911,21,20.925,21
			C22.38,19.105,23,16.768,23,14.176C23,8.003,18.075,3,12,3z M20.113,19.701c-11.15,0-15.589,0.017-16.38-0.006
			c-0.843-1.467-1.438-3.689-1.438-5.514c0-5.463,4.333-9.889,9.678-9.889c5.347,0,9.677,4.427,9.677,9.889
			C21.65,16.048,20.995,18.223,20.113,19.701z M7.59,7.702c-0.186-0.198-0.488-0.198-0.675,0c-0.188,0.198-0.188,0.52,0,0.718
			L8.13,9.712c0.187,0.199,0.489,0.199,0.675,0c0.187-0.198,0.187-0.52,0-0.718L7.59,7.702z M6.093,16.393l-1.686,0.604
			c-0.26,0.092-0.396,0.384-0.308,0.651c0.089,0.269,0.371,0.41,0.629,0.316l1.687-0.602c0.259-0.094,0.396-0.387,0.308-0.652
			C6.633,16.441,6.353,16.299,6.093,16.393z M12,8.853c0.264,0,0.478-0.228,0.478-0.508V6.517c0-0.28-0.214-0.508-0.478-0.508
			c-0.265,0-0.478,0.228-0.478,0.508v1.828C11.522,8.625,11.735,8.853,12,8.853z M4.337,12.71l1.66,0.474
			c0.255,0.072,0.517-0.088,0.585-0.356s-0.083-0.549-0.337-0.622L4.584,11.73C4.33,11.657,4.068,11.817,4,12.088
			S4.083,12.639,4.337,12.71z M12.813,13.701c-0.088-0.105-2.605-3.672-2.632-3.705c-0.028,0.014,0.013,4.789-0.017,4.878
			c-0.087,0.251-0.176,0.592-0.176,0.877c0,1.237,0.901,2.239,2.013,2.239c1.109,0,2.016-1.002,2.016-2.239
			C14.014,14.836,13.52,14.049,12.813,13.701z M12,17.001c-0.553,0-1-0.448-1-1.001s0.447-1,1-1c0.553,0,1,0.447,1,1
			S12.553,17.001,12,17.001z M19.593,16.994l-1.685-0.604c-0.26-0.095-0.54,0.051-0.631,0.318c-0.088,0.27,0.05,0.563,0.309,0.65
			l1.686,0.604c0.262,0.094,0.541-0.051,0.629-0.316C19.988,17.379,19.852,17.087,19.593,16.994z M19.417,11.729l-1.66,0.473
			c-0.256,0.071-0.405,0.35-0.338,0.622c0.067,0.271,0.33,0.432,0.584,0.359l1.66-0.477c0.255-0.072,0.405-0.351,0.338-0.622
			C19.934,11.815,19.671,11.657,19.417,11.729z M16.41,7.702l-1.215,1.292c-0.188,0.198-0.188,0.52,0,0.718
			c0.187,0.199,0.488,0.199,0.675,0l1.217-1.292c0.187-0.198,0.187-0.52,0-0.718C16.898,7.503,16.598,7.503,16.41,7.702z"/>
	</g>
</g>
<g id="liveView">
	<g>
		<path d="M10.992,5.951v4.012l2.013,0.046V6.003L10.992,5.951z M7.994,6.954v3.009h1.998V6.954H7.994z M6.995,4.948H4.997v5.015
			h1.998V4.948z M5.675,11.984c0,0,6.154,0,9.872,0c0.02,0,0.035-1.019-0.031-1.019c-3.723,0-9.84,0-9.84,0
			c-0.376,0-0.682,0.229-0.682,0.51C4.994,11.756,5.299,11.984,5.675,11.984z M10.617,17.999c-0.038,0.004,0.649,2.667-3.434,2.667
			c-0.575,0-0.687,0.667-0.687,0.667c0,0.368,0.307,0.666,0.687,0.666c0,0,3.751,0,6.87,0c0.045,0-1.082-4.008-1.07-4.008
			C13.063,17.991,10.765,17.984,10.617,17.999z M14.643,7.941h3.678c0.367,0,0.664-0.218,0.664-0.487
			c0-0.268-0.297-0.486-0.664-0.486h-3.678c-0.369,0-0.666,0.218-0.666,0.486C13.977,7.724,14.273,7.941,14.643,7.941z M5.675,13.98
			c0,0,6.118,0,9.839,0c0.002,0,0.021-1.02-0.033-1.02c-3.724,0-9.806,0-9.806,0c-0.376,0-0.682,0.229-0.682,0.51
			C4.994,13.754,5.299,13.98,5.675,13.98z M21.605,2.001H2.374C2.361,2.001,1,1.933,1,3.334V16c0-0.213-0.037,1.333,1.374,1.333
			c0,0,5.516,0,10.642,0c0.026,0,0.641-1.333,0.616-1.333c-4.939,0-10.571,0-10.571,0c-0.379,0-0.687-0.299-0.687-0.667V4.001
			c0-0.368,0.308-0.667,0.687-0.667H20.92c0.38,0,0.688,0.298,0.688,0.667c0,0,0,3.218,0,6.225c0,0.027,1.373,5.155,1.373,5.151
			c0-2.548,0-12.042,0-12.042C23.047,3.418,23.018,2.001,21.605,2.001z M14.645,9.948c0,0,1.6,0,2.688,0
			c0.045,0,0.938-0.973,0.992-0.973h-3.681c-0.369,0-0.668,0.218-0.668,0.487C13.977,9.729,14.275,9.948,14.645,9.948z
			 M14.645,5.936h3.682c0.369,0,0.668-0.218,0.668-0.487c0-0.269-0.299-0.486-0.668-0.486h-3.682c-0.369,0-0.668,0.218-0.668,0.486
			C13.977,5.717,14.275,5.936,14.645,5.936z M17.195,12.999c0,1.421,0.798,3.123,1.783,3.123c0.945,0,1.781-1.702,1.781-3.123
			c0-1.42-0.215-2.02-1.697-2.02C17.656,10.979,17.195,11.579,17.195,12.999z M20.796,16.49l-1.733,1.285l-1.896-1.285
			c-0.265,0.015-1.688,0.373-2.008,1.102c-0.158,0.358-0.171,2.686-0.171,2.686L19.063,22l3.905-1.725c0,0,0.007-2.18-0.17-2.685
			C22.492,16.71,20.796,16.49,20.796,16.49z"/>
	</g>
</g>
<g id="recordings">
	<g>
		<path d="M4.554,18.613l-1.174,0.81l-0.9,1.892L3.191,22l1.866-0.959l0.839-1.133c0,0,2.065-1.991,3.78-3.646
			c0.042-0.041-1.128-1.459-1.126-1.503C6.798,16.45,4.554,18.613,4.554,18.613z M21.113,4.021
			c-1.926-1.857-3.391-0.372-3.391-0.372s-3.396,3.273-5.518,5.32c-0.013,0.058,0.789,0.857,0.791,0.854
			c1.877-1.81,4.979-4.799,4.979-4.799c0.185-0.179,0.467-0.197,0.629-0.041c0.162,0.156,0.143,0.428-0.043,0.607
			c0,0-3.129,3.019-5.004,4.825c-0.02-0.011,0.771,0.867,0.773,0.871c1.865-1.798,5.068-4.888,5.068-4.888
			c0.186-0.179,0.468-0.197,0.629-0.041c0.162,0.156,0.144,0.428-0.043,0.607c0,0-3.213,3.1-5.076,4.896
			c-0.018-0.022,0.859,0.811,0.822,0.824c1.881-1.813,5.681-5.479,5.681-5.479S22.917,5.759,21.113,4.021z M9.433,8.247l0.256-0.465
			l0.082-0.713c0,0-0.379-4.068-4.464-4.068c0,0-0.721,0.006-1.271,0.24l2.699,2.584c0,0,0.279,0.41,0,0.808
			C6.456,7.03,5.048,8.408,5.048,8.408s-0.353,0.272-0.843,0L1.337,5.824c0,0-0.337,0.233-0.337,1.292
			c0,1.06,0.655,4.333,4.385,4.361c0,0,0.932,0.044,1.181-0.323l10.579,10.303c0,0,0.547,0.322,1.183,0.322
			c0.635,0,2.157-0.408,2.19-1.938c0.023-0.656-0.336-1.291-0.336-1.291L9.433,8.247z M18.279,20.675
			c-0.604,0-1.092-0.471-1.092-1.05c0-0.581,0.487-1.051,1.092-1.051c0.602,0,1.09,0.47,1.09,1.051
			C19.369,20.204,18.881,20.675,18.279,20.675z"/>
	</g>
</g>
<g id="playback">
	<g>
		<path d="M4.554,18.613l-1.174,0.81l-0.9,1.892L3.191,22l1.866-0.959l0.839-1.133c0,0,2.065-1.991,3.78-3.646
			c0.042-0.041-1.128-1.459-1.126-1.503C6.798,16.45,4.554,18.613,4.554,18.613z M21.113,4.021
			c-1.926-1.857-3.391-0.372-3.391-0.372s-3.396,3.273-5.518,5.32c-0.013,0.058,0.789,0.857,0.791,0.854
			c1.877-1.81,4.979-4.799,4.979-4.799c0.185-0.179,0.467-0.197,0.629-0.041c0.162,0.156,0.143,0.428-0.043,0.607
			c0,0-3.129,3.019-5.004,4.825c-0.02-0.011,0.771,0.867,0.773,0.871c1.865-1.798,5.068-4.888,5.068-4.888
			c0.186-0.179,0.468-0.197,0.629-0.041c0.162,0.156,0.144,0.428-0.043,0.607c0,0-3.213,3.1-5.076,4.896
			c-0.018-0.022,0.859,0.811,0.822,0.824c1.881-1.813,5.681-5.479,5.681-5.479S22.917,5.759,21.113,4.021z M9.433,8.247l0.256-0.465
			l0.082-0.713c0,0-0.379-4.068-4.464-4.068c0,0-0.721,0.006-1.271,0.24l2.699,2.584c0,0,0.279,0.41,0,0.808
			C6.456,7.03,5.048,8.408,5.048,8.408s-0.353,0.272-0.843,0L1.337,5.824c0,0-0.337,0.233-0.337,1.292
			c0,1.06,0.655,4.333,4.385,4.361c0,0,0.932,0.044,1.181-0.323l10.579,10.303c0,0,0.547,0.322,1.183,0.322
			c0.635,0,2.157-0.408,2.19-1.938c0.023-0.656-0.336-1.291-0.336-1.291L9.433,8.247z M18.279,20.675
			c-0.604,0-1.092-0.471-1.092-1.05c0-0.581,0.487-1.051,1.092-1.051c0.602,0,1.09,0.47,1.09,1.051
			C19.369,20.204,18.881,20.675,18.279,20.675z"/>
	</g>
</g>
<g id="eMap">
	<g>
		<path d="M6.003,12.003c0,1.659,1.345,3.003,3.002,3.003c1.659,0,3.004-1.344,3.004-3.003c0.006,0.001-3.009-0.001-3.011-0.009
			C9.007,11.999,9,9.006,9.005,9C7.348,9,6.003,10.344,6.003,12.003z M17.223,16.016H6.777C6.348,16.016,6,16.23,6,16.502
			s0.348,0.489,0.777,0.489h10.446c0.43,0,0.777-0.22,0.777-0.489S17.652,16.016,17.223,16.016z M19.912,2c0,0-2.03,0-1.99,0
			c-0.915,0-0.994,0.902-0.994,1c0,0.691-0.994,1-0.994,1H7.974C7.968,4,6.979,3.682,6.979,3c0,1.04,0.031-1-0.995-1
			c-0.01,0-1.989,0-1.989,0C4.03,2,3,1.938,3,3v18.49c0,1.511,1.545,1.464,1.509,1.464c0,0,14.56,0.04,15.495,0.046
			c0.961-0.004,0.957-1.039,0.996-1c0-3.904,0-19,0-19C21,3.155,21.018,2,19.912,2z M18.875,21.843c0.313,0-13.748,0-13.748,0
			c-0.652,0-0.977-0.724-0.977-0.977V6.218c0-0.632,0.324-0.977,0.977-0.977h13.666c0.652,0,1.063,0.345,1.063,0.977
			c0,0,0,12.244,0,14.648C19.891,20.921,19.871,21.843,18.875,21.843z M17.271,15.02c0.4,0,0.729-0.229,0.729-0.514
			c0.001-0.279-0.325-0.509-0.729-0.509h-3.545c-0.4,0-0.729,0.229-0.729,0.509c0,0.283,0.327,0.514,0.729,0.514H17.271z
			 M17.2,17.989H6.8c-0.442,0-0.8,0.228-0.8,0.509s0.357,0.51,0.8,0.51h10.4c0.442,0,0.801-0.229,0.801-0.51
			S17.643,17.989,17.2,17.989z M17.215,6.987H6.786C6.352,6.987,6,7.217,6,7.497c0,0.282,0.352,0.511,0.786,0.511h10.429
			c0.434,0,0.786-0.229,0.786-0.511C18.001,7.217,17.648,6.987,17.215,6.987z M17.215,11.979h-3.43c-0.434,0-0.786,0.228-0.786,0.51
			S13.352,13,13.785,13h3.43c0.434,0,0.786-0.229,0.786-0.511S17.648,11.979,17.215,11.979z M17.251,10.004H13.75
			c-0.414,0-0.75,0.22-0.75,0.489c0,0.271,0.336,0.489,0.75,0.489h3.501c0.414,0,0.75-0.219,0.75-0.489
			C18.001,10.224,17.665,10.004,17.251,10.004z M8.767,3.007h6.36c0.439,0,0.795-0.3,0.795-0.669V1.669
			c0-0.37-0.355-0.669-0.795-0.669h-6.36c-0.44,0-0.795,0.299-0.795,0.669v0.669C7.972,2.707,8.327,3.007,8.767,3.007z"/>
	</g>
</g>
	<g id="log">
	<g>
		<path d="M19.912,2c0,0-2.03,0-1.99,0c-0.915,0-0.994,0.902-0.994,1c0,0.691-0.994,1-0.994,1H7.974C7.968,4,6.979,3.682,6.979,3
			c0,1.04,0.031-1-0.995-1c-0.01,0-1.989,0-1.989,0C4.03,2,3,1.938,3,3v18.49c0,1.511,1.545,1.464,1.509,1.464
			c0,0,14.56,0.04,15.495,0.046c0.961-0.004,0.957-1.039,0.996-1c0-3.904,0-19,0-19C21,3.155,21.018,2,19.912,2z M18.875,21.843
			c0.313,0-13.748,0-13.748,0c-0.652,0-0.977-0.724-0.977-0.977V6.218c0-0.632,0.324-0.977,0.977-0.977h13.666
			c0.652,0,1.063,0.345,1.063,0.977c0,0,0,12.244,0,14.648C19.891,20.921,19.871,21.843,18.875,21.843z M13,18.001V14h-2v4.001H13z
			 M7.363,13.99l8.612-5.374l-0.236,2.48c0,0,0.386,0.476,0.396,0.476c0.024,0.002,0.479-0.431,0.479-0.431l0.291-3.064l0.084-0.905
			l-0.875-0.045L13.15,6.988c0,0-0.48,0.446-0.479,0.43c0.001-0.013,0.396,0.476,0.396,0.476l2.404,0.112l-8.462,5.28L7.363,13.99z
			 M15,18.001h2.001V13H15V18.001z M9,16.001H7v2h2V16.001z M6,20h12.001v-0.999L6,18.979V20z M8.767,3.007h6.36
			c0.439,0,0.795-0.3,0.795-0.669V1.669c0-0.37-0.355-0.669-0.795-0.669h-6.36c-0.44,0-0.795,0.299-0.795,0.669v0.669
			C7.972,2.707,8.327,3.007,8.767,3.007z"/>
	</g>
</g>
</svg>
