<?xml version="1.0" encoding="utf-8"?>
<!-- Generator: Adobe Illustrator 21.1.0, SVG Export Plug-In . SVG Version: 6.00 Build 0)  -->
<svg version="1.1" id="圖層_1" xmlns="http://www.w3.org/2000/svg" xmlns:xlink="http://www.w3.org/1999/xlink" x="0px" y="0px"
	 viewBox="0 0 20 20" style="enable-background:new 0 0 20 20;" xml:space="preserve">
<style type="text/css">
	.st0{display:none;}
	.st1{display:inline;fill:#CCCCCC;}
	.st2{fill:#B2C622;}
	.st3{display:inline;}
	.st4{fill:#CCCCCC;}
	.st5{fill:#14A6C3;}
</style>
<g id="圖層_1_1_" class="st0">
	<path class="st1" d="M16.5,2H4C3,2,2.2,2.8,2.2,3.8v12.4C2.2,17.2,3,18,4,18h12.4c1,0,1.8-0.8,1.8-1.8V3.8C18.3,2.8,17.5,2,16.5,2z
		 M16.9,16.2c0,0.2-0.2,0.4-0.4,0.4H4c-0.2,0-0.4-0.2-0.4-0.4V3.8c0-0.2,0.2-0.4,0.4-0.4h12.4c0.2,0,0.4,0.2,0.4,0.4v12.4H16.9z"/>
</g>
<g id="圖層_4">
	<g>
		<path class="st2" d="M16.7,3.2l-9,9L5.6,10C5,9.4,3.9,9.4,3.3,10L3,10.2c-0.6,0.6-0.6,1.7,0,2.3l2.2,2.2l1.5,1.5
			c0.6,0.6,1.7,0.6,2.3,0l1.5-1.5l9-9C20,5.1,20,4,19.4,3.4l-0.2-0.2C18.4,2.6,17.4,2.6,16.7,3.2z"/>
	</g>
</g>
<g id="圖層_3" class="st0">
	<path class="st1" d="M10.2,2L10.2,2c-4.4,0-8,3.6-8,8l0,0c0,4.4,3.6,8,8,8l0,0c4.4,0,8-3.6,8-8l0,0C18.3,5.6,14.7,2,10.2,2z
		 M10.2,16.7c-3.7,0-6.7-3-6.7-6.7s3-6.7,6.7-6.7s6.7,3,6.7,6.7S13.9,16.7,10.2,16.7z"/>
</g>
<g id="圖層_2" class="st0">
	<g class="st3">
		<path class="st4" d="M10.2,2L10.2,2c-4.4,0-8,3.6-8,8l0,0c0,4.4,3.6,8,8,8l0,0c4.4,0,8-3.6,8-8l0,0C18.3,5.6,14.7,2,10.2,2z
			 M10.2,16.7c-3.7,0-6.7-3-6.7-6.7s3-6.7,6.7-6.7s6.7,3,6.7,6.7S13.9,16.7,10.2,16.7z"/>
		<circle class="st5" cx="10.2" cy="10" r="4.9"/>
	</g>
</g>
</svg>
