<?xml version="1.0" encoding="utf-8"?>
<!-- Generator: Adobe Illustrator 21.1.0, SVG Export Plug-In . SVG Version: 6.00 Build 0)  -->
<svg version="1.1" id="圖層_1" xmlns="http://www.w3.org/2000/svg" xmlns:xlink="http://www.w3.org/1999/xlink" x="0px" y="0px"
	 viewBox="0 0 20 20" style="enable-background:new 0 0 20 20;" xml:space="preserve">
<style type="text/css">
	.st0{fill:#C8C9CA;}
</style>
<path class="st0" d="M14.4,5.8H6.2C6,5.8,5.9,5.9,5.9,6v1.1c0,0.1,0.1,0.2,0.2,0.2H7V7c0-0.5,0.4-1,1-1s1,0.4,1,1v0.3h2.7V7
	c0-0.5,0.4-1,1-1s1,0.4,1,1v0.3h0.8c0.1,0,0.2-0.1,0.2-0.2V6C14.6,5.9,14.5,5.8,14.4,5.8z"/>
<path class="st0" d="M14.4,8.1h-0.8v0.7c0,0.5-0.4,1-1,1s-1-0.4-1-1V8.1H8.9v0.7c0,0.5-0.4,1-1,1s-1-0.4-1-1V8.1H6.1
	C6,8.1,5.9,8.2,5.9,8.4v6c0,0.1,0.1,0.2,0.2,0.2h8.2c0.1,0,0.2-0.1,0.2-0.2v-6C14.6,8.2,14.5,8.1,14.4,8.1z M8,13.7H6.6v-1.4H8V13.7
	z M8,11.7H6.6v-1.4H8V11.7z M10,13.7H8.6v-1.4H10V13.7z M10,11.7H8.6v-1.4H10V11.7z M11.9,13.7h-1.4v-1.4h1.4V13.7z M11.9,11.7h-1.4
	v-1.4h1.4V11.7z M13.9,13.7h-1.4v-1.4h1.4V13.7z M13.9,11.7h-1.4v-1.4h1.4V11.7z"/>
<path class="st0" d="M8.2,9.6H7.7c-0.2,0-0.4-0.2-0.4-0.4V6.8c0-0.2,0.2-0.4,0.4-0.4h0.5c0.2,0,0.4,0.2,0.4,0.4v2.4
	C8.7,9.4,8.5,9.6,8.2,9.6z"/>
<path class="st0" d="M12.9,9.6h-0.5c-0.2,0-0.4-0.2-0.4-0.4V6.8c0-0.2,0.2-0.4,0.4-0.4h0.5c0.2,0,0.4,0.2,0.4,0.4v2.4
	C13.3,9.4,13.1,9.6,12.9,9.6z"/>
<path class="st0" d="M10.3,21c-3,0-5.5,2.5-5.5,5.5c0,3,2.5,5.5,5.5,5.5c3,0,5.5-2.5,5.5-5.5C15.9,23.4,13.4,21,10.3,21z M10.3,31.2
	c-2.6,0-4.7-2.1-4.7-4.7c0-2.6,2.1-4.7,4.7-4.7c2.6,0,4.7,2.1,4.7,4.7C15.1,29.1,13,31.2,10.3,31.2z"/>
<g>
	<path class="st0" d="M10.3,25.3c0.1,0,0.2,0,0.3,0.1l0-2.6c0,0,0,0,0,0l-0.7,0c0,0,0,0,0,0l0,2.6C10.1,25.4,10.2,25.3,10.3,25.3z"
		/>
	<path class="st0" d="M13.2,28.8L11.4,27c-0.1,0.2-0.3,0.4-0.6,0.5l1.9,1.8c0,0,0,0,0.1,0L13.2,28.8C13.2,28.9,13.2,28.8,13.2,28.8z
		"/>
</g>
<circle class="st0" cx="10.3" cy="26.5" r="0.8"/>
</svg>
