<?xml version="1.0" encoding="utf-8"?>
<!-- Generator: Adobe Illustrator 21.1.0, SVG Export Plug-In . SVG Version: 6.00 Build 0)  -->
<svg version="1.1" id="圖層_1" xmlns="http://www.w3.org/2000/svg" xmlns:xlink="http://www.w3.org/1999/xlink" x="0px" y="0px"
	 viewBox="0 0 20 20" style="enable-background:new 0 0 20 20;" xml:space="preserve">
<style type="text/css">
	.st0{fill:#C8C9CA;}
</style>
<path class="st0" d="M10.3,4.5c-3,0-5.5,2.5-5.5,5.5c0,3,2.5,5.5,5.5,5.5c3,0,5.5-2.5,5.5-5.5C15.9,7,13.4,4.5,10.3,4.5z M10.3,14.7
	c-2.6,0-4.7-2.1-4.7-4.7c0-2.6,2.1-4.7,4.7-4.7c2.6,0,4.7,2.1,4.7,4.7C15.1,12.6,13,14.7,10.3,14.7z"/>
<g>
	<path class="st0" d="M10.3,8.9c0.1,0,0.2,0,0.3,0.1l0-2.6c0,0,0,0,0,0l-0.7,0c0,0,0,0,0,0l0,2.6C10.1,8.9,10.2,8.9,10.3,8.9z"/>
	<path class="st0" d="M13.2,12.3l-1.8-1.8c-0.1,0.2-0.3,0.4-0.6,0.5l1.9,1.8c0,0,0,0,0.1,0L13.2,12.3C13.2,12.4,13.2,12.4,13.2,12.3
		z"/>
</g>
<circle class="st0" cx="10.3" cy="10" r="0.8"/>
</svg>
