<?xml version="1.0" encoding="utf-8"?>
<!-- Generator: Adobe Illustrator 21.1.0, SVG Export Plug-In . SVG Version: 6.00 Build 0)  -->
<svg version="1.1" id="圖層_1" xmlns="http://www.w3.org/2000/svg" xmlns:xlink="http://www.w3.org/1999/xlink" x="0px" y="0px"
	 viewBox="0 0 20 20" style="enable-background:new 0 0 20 20;" xml:space="preserve">
<style type="text/css">
	.st0{fill:#C8C9CA;}
	.st1{font-family:'ArialMT';}
	.st2{font-size:5.2323px;}
</style>
<g>
	<path class="st0" d="M14.9,10.9c-2,0-3.6,1.7-3.6,3.6s1.7,3.6,3.6,3.6s3.6-1.7,3.6-3.6C18.6,12.6,17,10.9,14.9,10.9z M14.9,17.7
		c-1.7,0-3.1-1.4-3.1-3.1c0-1.7,1.4-3.1,3.1-3.1s3.1,1.4,3.1,3.1C18.1,16.3,16.7,17.7,14.9,17.7z"/>
	<text transform="matrix(1 0 0 1 13.6016 16.5023)" class="st0 st1 st2">?</text>
</g>
<g>
	<path class="st0" d="M14.5,4.1H6c-0.2,0-0.4,0.2-0.4,0.4S5.8,4.9,6,4.9h8.6c0.2,0,0.4-0.2,0.4-0.4S14.7,4.1,14.5,4.1z"/>
	<path class="st0" d="M14.5,6.2H6c-0.2,0-0.4,0.2-0.4,0.4S5.8,7,6,7h8.6c0.2,0,0.4-0.2,0.4-0.4S14.7,6.2,14.5,6.2z"/>
	<path class="st0" d="M14.5,8.2H6c-0.2,0-0.4,0.2-0.4,0.4S5.8,9,6,9h8.6c0.2,0,0.4-0.2,0.4-0.4S14.7,8.2,14.5,8.2z"/>
	<path class="st0" d="M13.8,10.3H6c-0.2,0-0.4,0.2-0.4,0.4s0.2,0.4,0.4,0.4h6.3C12.7,10.7,13.3,10.5,13.8,10.3z"/>
	<path class="st0" d="M11.1,12.4H6c-0.2,0-0.4,0.2-0.4,0.4s0.2,0.4,0.4,0.4h4.8C10.9,12.8,11,12.6,11.1,12.4z"/>
	<path class="st0" d="M10.5,14.5c0,0,0-0.1,0-0.1H6c-0.2,0-0.4,0.2-0.4,0.4s0.2,0.4,0.4,0.4h4.6C10.6,15,10.5,14.8,10.5,14.5z"/>
</g>
<path class="st0" d="M5.2,17.3c-0.6,0-1.1-0.5-1.1-1.1V3.1C4.1,2.5,4.6,2,5.2,2h9.8c0.6,0,1.1,0.5,1.1,1.1v7.3l-0.2,0
	c-0.1,0-0.1,0-0.2,0l-0.1,0l-0.1-0.1V3.1c0-0.3-0.2-0.5-0.5-0.5H5.2c-0.3,0-0.5,0.2-0.5,0.5v13.1c0,0.3,0.2,0.5,0.5,0.5h6.1l0,0.1
	c0.1,0.1,0.1,0.2,0.2,0.3l0.2,0.2l-0.3,0H5.2z"/>
</svg>
