<?xml version="1.0" encoding="utf-8"?>
<!-- Generator: Adobe Illustrator 21.1.0, SVG Export Plug-In . SVG Version: 6.00 Build 0)  -->
<svg version="1.1" id="圖層_1" xmlns="http://www.w3.org/2000/svg" xmlns:xlink="http://www.w3.org/1999/xlink" x="0px" y="0px"
	 viewBox="0 0 100 100" style="enable-background:new 0 0 100 100;" xml:space="preserve">
<style type="text/css">
	.st0{fill:#C6C6C6;}
	.st1{display:none;}
	.st2{display:inline;}
</style>
<g id="圖層_1_1_">
	<g>
		<path class="st0" d="M58.8,3.7H43.1c-2.3,0-4.3,1.9-4.3,4.3v10c0,2.3,2,4.3,4.3,4.3H48v3.2h-4v2.2h13v-2.1h-4v-3.3h6
			c1.8,0,3.3-1.4,3.3-3.3V6.9C62,5.1,60.6,3.7,58.8,3.7z M59.4,19c0,0.4-0.3,0.6-0.7,0.6H43.1c-0.9,0-1.7-0.8-1.7-1.7V8
			c0-0.9,0.8-1.7,1.7-1.7H59c0.4,0,0.6,0.3,0.6,0.7v12H59.4z"/>
		<path class="st0" d="M58.8,56.3H43.1c-2.3,0-4.3,1.9-4.3,4.3v10c0,2.3,2,4.3,4.3,4.3H48v3.3h-4v2.1h13v-2.1h-4v-3.3h6
			c1.8,0,3.3-1.4,3.3-3.3v-12C62,57.7,60.6,56.3,58.8,56.3z M59.4,71.7c0,0.4-0.3,0.6-0.7,0.6H43.1c-0.9,0-1.7-0.8-1.7-1.7v-10
			c0-0.9,0.8-1.7,1.7-1.7H59c0.4,0,0.6,0.3,0.6,0.6v12.1L59.4,71.7L59.4,71.7z"/>
		<path class="st0" d="M27.2,56.3H11.3C9,56.3,7,58.2,7,60.6v10c0,2.3,2,4.3,4.3,4.3h4.9v3.3h-4v2.1h13v-2.1h-4v-3.3h6
			c1.8,0,3.3-1.4,3.3-3.3v-12C30.4,57.7,28.9,56.3,27.2,56.3z M27.8,71.7c0,0.4-0.3,0.6-0.6,0.6H11.3c-0.9,0-1.7-0.8-1.7-1.7v-10
			c0-0.9,0.8-1.7,1.7-1.7h15.9c0.4,0,0.6,0.3,0.6,0.6C27.8,59.5,27.8,71.7,27.8,71.7z"/>
		<path class="st0" d="M90.9,56.3H75c-2.3,0-4.3,1.9-4.3,4.3v10c0,2.3,1.9,4.3,4.3,4.3h5v3.3h-4v2.1h13v-2.1h-4v-3.3h6
			c1.8,0,3.3-1.4,3.3-3.3v-12C94.2,57.7,92.6,56.3,90.9,56.3z M91.5,71.7c0,0.4-0.3,0.6-0.6,0.6H75c-0.9,0-1.7-0.8-1.7-1.7v-10
			c0-0.9,0.8-1.7,1.7-1.7h15.9c0.4,0,0.6,0.3,0.6,0.6V71.7z"/>
		<g>
			<rect x="18.5" y="39" class="st0" width="63.7" height="2.6"/>
			<rect x="49" y="30.1" class="st0" width="2.6" height="23.8"/>
		</g>
		<g>
			<rect x="80.9" y="39" class="st0" width="2.6" height="14.9"/>
		</g>
		<g>
			<rect x="17.5" y="39" class="st0" width="2.6" height="14.9"/>
		</g>
	</g>
</g>
<g id="圖層_2" class="st1">
	<g class="st2">
		<path class="st0" d="M50.6,46.9c-3.3,0-6-2.7-6-6s2.7-6,6-6s6,2.7,6,6C56.5,44.3,53.9,46.9,50.6,46.9z M50.6,36.5
			c-2.5,0-4.5,2-4.5,4.5s2,4.5,4.5,4.5s4.5-2,4.5-4.5C55,38.5,53,36.5,50.6,36.5z"/>
		<path class="st0" d="M57.2,45.9l1.3-0.3c0.1,0,3-0.8,3-5.9c0-5-2.9-5.8-3-5.9l-1.3-0.3l0.3-1.3l0.4-1.8l1.3,0.3
			c0.1,0,5.5,1.4,5.5,9s-5.4,9-5.5,9L58,49.1L57.2,45.9z"/>
		<path class="st0" d="M63.3,53l1.1-0.7c0.2-0.2,5.8-3.9,5.8-12.5c0-9.4-5.4-12.1-5.6-12.2L63.4,27l0.8-1.7l0.6-1.2l1.2,0.6
			c0.1,0,7.4,3.6,7.4,15.1c0,10.5-7.2,15.2-7.2,15.2L65,55.7L63.3,53z"/>
		<path class="st0" d="M69.8,59l1.1-0.7c0.1-0.1,8.5-5.9,8.5-18.5c0-13.4-7.2-18.5-7.2-18.6l-1.1-0.7l1.8-2.7l1.1,0.7
			c0.1,0.1,8.7,5.9,8.7,21.2c0,14.6-9.9,21.2-10,21.2l-1.1,0.7L69.8,59z"/>
		<path class="st0" d="M43.9,45.9l-1.3-0.3c-0.1,0-3-0.8-3-5.9c0-5,2.9-5.8,3-5.9l1.3-0.3l-0.3-1.3l-0.4-1.8l-1.3,0.3
			c-0.1,0-5.5,1.4-5.5,9s5.4,9,5.5,9l1.3,0.3L43.9,45.9z"/>
		<path class="st0" d="M37.8,53l-1.1-0.7c-0.2-0.2-5.8-3.9-5.8-12.5c0-9.4,5.4-12.1,5.6-12.2l1.2-0.6l-0.8-1.7l-0.6-1.2l-1.2,0.6
			c-0.1,0-7.4,3.6-7.4,15.1c0,10.5,7.2,15.2,7.2,15.2l1.1,0.7L37.8,53z"/>
		<path class="st0" d="M31.3,59l-1.1-0.7c-0.1-0.1-8.5-5.9-8.5-18.5c0-13.4,7.2-18.5,7.2-18.6l1.1-0.7l-1.8-2.7l-1.1,0.7
			c-0.1,0.1-8.7,5.9-8.7,21.2c0,14.6,9.9,21.2,10,21.2l1.1,0.7L31.3,59z"/>
		<path class="st0" d="M51.1,68.7h-1.7c-0.9,0-1.6-0.7-1.6-1.6V50.4c0-0.9,0.7-1.6,1.6-1.6h1.7c0.9,0,1.6,0.7,1.6,1.6v16.8
			C52.7,68,52,68.7,51.1,68.7z M49.4,50.3l-0.1,16.8l1.8,0.1c0,0,0.1,0,0.1-0.1V50.4L49.4,50.3z"/>
		<path class="st0" d="M74.4,83H26c-1.5,0-2.8-1.2-2.8-2.8V70c0-1.5,1.2-2.8,2.8-2.8h48.4c1.5,0,2.8,1.2,2.8,2.8v10.2
			C77.2,81.7,75.9,83,74.4,83z M26,68.7c-0.7,0-1.3,0.6-1.3,1.3v10.2c0,0.7,0.6,1.3,1.3,1.3h48.4c0.7,0,1.3-0.6,1.3-1.3V70
			c0-0.7-0.6-1.3-1.3-1.3H26z"/>
		<path class="st0" d="M33.7,77.9h-3c-0.3,0-0.5-0.2-0.5-0.5v-5.7c0-0.3,0.2-0.5,0.5-0.5h3c0.3,0,0.5,0.2,0.5,0.5v5.7
			C34.2,77.6,34,77.9,33.7,77.9z"/>
		<path class="st0" d="M56.5,75.4h-3c-0.3,0-0.5-0.2-0.5-0.5v-3.3c0-0.3,0.2-0.5,0.5-0.5h3c0.3,0,0.5,0.2,0.5,0.5v3.3
			C57,75.2,56.7,75.4,56.5,75.4z"/>
		<path class="st0" d="M62.6,75.4h-3c-0.3,0-0.5-0.2-0.5-0.5v-3.3c0-0.3,0.2-0.5,0.5-0.5h3c0.3,0,0.5,0.2,0.5,0.5v3.3
			C63.1,75.2,62.9,75.4,62.6,75.4z"/>
		<path class="st0" d="M68.8,75.4h-3c-0.3,0-0.5-0.2-0.5-0.5v-3.3c0-0.3,0.2-0.5,0.5-0.5h3c0.3,0,0.5,0.2,0.5,0.5v3.3
			C69.3,75.2,69.1,75.4,68.8,75.4z"/>
	</g>
</g>
<g id="圖層_3" class="st1">
	<g class="st2">
		<path class="st0" d="M50.6,84.6C31.5,84.6,16,69.1,16,50s15.5-34.6,34.6-34.6S85.2,30.9,85.2,50S69.6,84.6,50.6,84.6z M50.6,17.9
			c-17.7,0-32.1,14.4-32.1,32.1s14.4,32.1,32.1,32.1S82.7,67.7,82.7,50S68.3,17.9,50.6,17.9z"/>
		<path class="st0" d="M17.8,57.2l-1.2-0.8l0.6,0.4l-0.6-0.4l0.1-0.2c3.5-6.3,16.6-26.9,39.9-26.9c26.4,0,28.1,18.3,28.1,18.5
			l-1.5,0.1c-0.1-0.7-1.6-17.1-26.6-17.1c-22.4,0-35.2,20-38.5,26.1C17.9,57.1,17.9,57.2,17.8,57.2z"/>
		<path class="st0" d="M61.8,82c-11.6-5.4-19.1-13.3-22.3-23.5c-6.2-19.9,6.4-41.9,6.6-42.2l1.3,0.8c-0.1,0.2-12.5,21.7-6.4,41
			c3,9.7,10.3,17.3,21.5,22.5L61.8,82z"/>
		<path class="st0" d="M73.5,73.6c-0.2-15.9-6-27.4-17.1-34.1c-14.9-9-33.3-6-34.2-5.5c0,0,0.1-0.1,0.2-0.2L21,33
			c0.6-1.2,12.4-2.6,23.8,0.2c13.6,3.3,29.8,13,30.2,40.3L73.5,73.6z"/>
		<path class="st0" d="M30.9,78.3l-0.3-1.5c17.4-4.1,29-11.7,34.6-22.7c8-15.7,0.8-32.9,0.7-33.1l1.4-0.6c0.1,0.2,7.5,18.1-0.8,34.4
			C60.7,66.2,48.7,74.2,30.9,78.3z"/>
	</g>
</g>
<g id="圖層_4" class="st1">
	<g class="st2">
		<path class="st0" d="M41.8,18.1c-9.2,0-10,5.2-10,15.6s8.2,14.5,10,14.5s10-4.2,10-14.5C51.7,23.3,51.7,18.1,41.8,18.1z
			 M41.8,45.5c-1.3-0.4-7.3-3.5-7.3-11.8c0-11,1.1-12.9,7.3-12.9c7.1,0,7.3,2,7.3,12.9C49.1,42,43.1,45.1,41.8,45.5z"/>
		<path class="st0" d="M54,50.4c-5.2,0-12.2,8.7-12.2,8.7s-7-8.7-12.2-8.7s-12.2,6.7-12.2,6.7v15.7l24.4,9l24.4-9V57.1
			C66.2,57.1,59.2,50.4,54,50.4z M63.5,71l-21.7,8L20,71V58.3c2.6-2.3,6.9-5.2,9.5-5.2c2.7,0,7.5,4.5,10.1,7.7l0.4,0.4l4.4,2.2V60
			c2.6-3,7.1-7,9.5-7c2.7,0,6.9,2.9,9.5,5.2L63.5,71L63.5,71z"/>
		<path class="st0" d="M67.2,29.8c-5.8,0-6.3,3.3-6.3,9.9s5.2,9.2,6.3,9.2c1.2,0,6.3-2.6,6.3-9.2S73.5,29.8,67.2,29.8z M67.2,46.1
			c-1-0.5-3.6-2.3-3.6-6.4c0-7.2,0.8-7.2,3.6-7.2c3.4,0,3.6,0,3.6,7.2C70.8,43.7,68.2,45.6,67.2,46.1z"/>
		<path class="st0" d="M75.4,51c-2,0-4.5,2-6.2,3.6v17.1l14.6-5.4V55.6C83.8,55.6,79,51,75.4,51z M81.1,64.5L71.9,68V55.8
			c1.9-1.6,3.1-2.1,3.5-2.1c1.4,0,4,1.7,5.7,3.1V64.5z"/>
	</g>
</g>
</svg>
