<?xml version="1.0" encoding="utf-8"?>
<!-- Generator: Adobe Illustrator 21.1.0, SVG Export Plug-In . SVG Version: 6.00 Build 0)  -->
<svg version="1.1" id="圖層_1" xmlns="http://www.w3.org/2000/svg" xmlns:xlink="http://www.w3.org/1999/xlink" x="0px" y="0px"
	 viewBox="0 0 100 100" style="enable-background:new 0 0 100 100;" xml:space="preserve">
<style type="text/css">
	.st0{display:none;}
	.st1{display:inline;}
	.st2{fill:#C6C6C6;}
</style>
<g id="圖層_1_1_" class="st0">
	<g class="st1">
		<path class="st2" d="M56.9,20.5H44.8c-1.8,0-3.3,1.5-3.3,3.3v7.7c0,1.8,1.5,3.3,3.3,3.3h3.8v2.5h-3.1V39h10v-1.6h-3.1v-2.5H57
			c1.4,0,2.5-1.1,2.5-2.5V23C59.4,21.6,58.3,20.5,56.9,20.5z M57.4,32.3c0,0.3-0.2,0.5-0.5,0.5H44.8c-0.7,0-1.3-0.6-1.3-1.3v-7.7
			c0-0.7,0.6-1.3,1.3-1.3H57c0.3,0,0.5,0.2,0.5,0.5L57.4,32.3L57.4,32.3z"/>
		<path class="st2" d="M56.9,61H44.8c-1.8,0-3.3,1.5-3.3,3.3V72c0,1.8,1.5,3.3,3.3,3.3h3.8v2.5h-3.1v1.6h10v-1.6h-3.1v-2.5H57
			c1.4,0,2.5-1.1,2.5-2.5v-9.3C59.4,62.1,58.3,61,56.9,61z M57.4,72.8c0,0.3-0.2,0.5-0.5,0.5H44.8c-0.7,0-1.3-0.6-1.3-1.3v-7.7
			c0-0.7,0.6-1.3,1.3-1.3H57c0.3,0,0.5,0.2,0.5,0.5L57.4,72.8L57.4,72.8z"/>
		<path class="st2" d="M32.6,61H20.4c-1.8,0-3.3,1.5-3.3,3.3V72c0,1.8,1.5,3.3,3.3,3.3h3.8v2.5h-3.1v1.6h10v-1.6H28v-2.5h4.6
			c1.4,0,2.5-1.1,2.5-2.5v-9.3C35.1,62.1,33.9,61,32.6,61z M33.1,72.8c0,0.3-0.2,0.5-0.5,0.5H20.4c-0.7,0-1.3-0.6-1.3-1.3v-7.7
			c0-0.7,0.6-1.3,1.3-1.3h12.2c0.3,0,0.5,0.2,0.5,0.5V72.8z"/>
		<path class="st2" d="M81.6,61H69.4c-1.8,0-3.3,1.5-3.3,3.3V72c0,1.8,1.5,3.3,3.3,3.3h3.8v2.5h-3.1v1.6h10v-1.6H77v-2.5h4.6
			c1.4,0,2.5-1.1,2.5-2.5v-9.3C84.1,62.1,82.9,61,81.6,61z M82.1,72.8c0,0.3-0.2,0.5-0.5,0.5H69.4c-0.7,0-1.3-0.6-1.3-1.3v-7.7
			c0-0.7,0.6-1.3,1.3-1.3h12.2c0.3,0,0.5,0.2,0.5,0.5V72.8z"/>
		<g>
			<rect x="25.9" y="47.7" class="st2" width="49" height="2"/>
			<rect x="49.4" y="40.8" class="st2" width="2" height="18.3"/>
		</g>
		<g>
			<rect x="73.9" y="47.7" class="st2" width="2" height="11.5"/>
		</g>
		<g>
			<rect x="25.1" y="47.7" class="st2" width="2" height="11.5"/>
		</g>
	</g>
</g>
<g id="圖層_2">
	<g>
		<path class="st2" d="M50.6,38.9c-4.3,0-7.8-3.5-7.8-7.8s3.5-7.8,7.8-7.8s7.8,3.5,7.8,7.8C58.3,35.5,54.9,38.9,50.6,38.9z
			 M50.6,25.3c-3.3,0-5.8,2.6-5.8,5.8s2.6,5.8,5.8,5.8s5.8-2.6,5.8-5.8C56.3,27.9,53.7,25.3,50.6,25.3z"/>
		<path class="st2" d="M59.2,37.6l1.7-0.4c0.1,0,3.9-1,3.9-7.7c0-6.5-3.8-7.5-3.9-7.7l-1.7-0.4l0.4-1.7l0.5-2.3l1.7,0.4
			c0.1,0,7.1,1.8,7.1,11.7s-7,11.7-7.1,11.7l-1.6,0.5L59.2,37.6z"/>
		<path class="st2" d="M67.1,46.8l1.4-0.9c0.3-0.3,7.5-5.1,7.5-16.3c0-12.2-7-15.7-7.3-15.9L67.3,13l1-2.2l0.8-1.6l1.6,0.8
			c0.1,0,9.6,4.7,9.6,19.6c0,13.7-9.4,19.8-9.4,19.8l-1.6,0.9L67.1,46.8z"/>
		<path class="st2" d="M75.6,54.6l1.4-0.9c0.1-0.1,11-7.7,11-24c0-17.4-9.4-24-9.4-24.2l-1.4-0.9L79.6,1L81,1.9
			C81.1,2,92.3,9.6,92.3,29.5c0,19-12.9,27.6-13,27.6L77.9,58L75.6,54.6z"/>
		<path class="st2" d="M41.9,37.6l-1.7-0.4c-0.1,0-3.9-1-3.9-7.7c0-6.5,3.8-7.5,3.9-7.7l1.7-0.4l-0.4-1.7L41,17.4l-1.7,0.4
			c-0.1,0-7.1,1.8-7.1,11.7s7,11.7,7.1,11.7l1.7,0.4L41.9,37.6z"/>
		<path class="st2" d="M34,46.8l-1.4-0.9c-0.3-0.3-7.5-5.1-7.5-16.3c0-12.2,7-15.7,7.3-15.9l1.6-0.8l-1-2.2l-1-1.5L30.5,10
			c-0.1,0-9.6,4.7-9.6,19.6c0,13.6,9.4,19.8,9.4,19.8l1.4,0.9L34,46.8z"/>
		<path class="st2" d="M25.5,54.6l-1.4-0.9c-0.1-0.1-11-7.7-11-24c0-17.4,9.4-24,9.4-24.2l1.4-0.9L21.5,1l-1.4,0.9
			C19.9,2.1,8.8,9.6,8.8,29.5c0,19,12.9,27.6,13,27.6l1.4,0.9L25.5,54.6z"/>
		<path class="st2" d="M51.3,67.2h-2.2c-1.2,0-2.1-0.9-2.1-2.1V43.4c0-1.2,0.9-2.1,2.1-2.1h2.2c1.2,0,2.1,0.9,2.1,2.1v21.8
			C53.3,66.3,52.4,67.2,51.3,67.2z M49.1,43.3L49,65.1l2.3,0.1c0,0,0.1,0,0.1-0.1V43.4L49.1,43.3z"/>
		<path class="st2" d="M81.6,85.8h-63c-2,0-3.6-1.6-3.6-3.6V68.9c0-1.9,1.6-3.6,3.6-3.6h62.9c2,0,3.6,1.6,3.6,3.6v13.3
			C85.2,84.1,83.5,85.8,81.6,85.8z M18.6,67.2c-0.9,0-1.7,0.8-1.7,1.7v13.3c0,0.9,0.8,1.7,1.7,1.7h62.9c0.9,0,1.7-0.8,1.7-1.7V68.9
			c0-0.9-0.8-1.7-1.7-1.7C81.5,67.2,18.6,67.2,18.6,67.2z"/>
		<path class="st2" d="M28.6,79.2h-3.9c-0.4,0-0.6-0.3-0.6-0.7v-7.4c0-0.4,0.3-0.6,0.6-0.6h3.9c0.4,0,0.6,0.3,0.6,0.6v7.4
			C29.3,78.8,29,79.2,28.6,79.2z"/>
		<path class="st2" d="M58.3,75.9h-3.9c-0.4,0-0.6-0.3-0.6-0.7V71c0-0.4,0.3-0.7,0.6-0.7h3.9c0.4,0,0.7,0.3,0.7,0.7v4.3
			C58.9,75.6,58.5,75.9,58.3,75.9z"/>
		<path class="st2" d="M66.2,75.9h-3.9c-0.4,0-0.7-0.3-0.7-0.7V71c0-0.4,0.3-0.7,0.7-0.7h3.9c0.4,0,0.7,0.3,0.7,0.7v4.3
			C66.9,75.6,66.6,75.9,66.2,75.9z"/>
		<path class="st2" d="M74.3,75.9h-3.9c-0.4,0-0.6-0.3-0.6-0.7V71c0-0.4,0.3-0.7,0.6-0.7h3.9c0.4,0,0.7,0.3,0.7,0.7v4.3
			C74.9,75.6,74.7,75.9,74.3,75.9z"/>
	</g>
</g>
<g id="圖層_3" class="st0">
	<g class="st1">
		<path class="st2" d="M50.6,84.6C31.5,84.6,16,69.1,16,50s15.5-34.6,34.6-34.6S85.2,30.9,85.2,50S69.6,84.6,50.6,84.6z M50.6,17.9
			c-17.7,0-32.1,14.4-32.1,32.1s14.4,32.1,32.1,32.1S82.7,67.7,82.7,50S68.3,17.9,50.6,17.9z"/>
		<path class="st2" d="M17.8,57.2l-1.2-0.8l0.6,0.4l-0.6-0.4l0.1-0.2c3.5-6.3,16.6-26.9,39.9-26.9c26.4,0,28.1,18.3,28.1,18.5
			l-1.5,0.1c-0.1-0.7-1.6-17.1-26.6-17.1c-22.4,0-35.2,20-38.5,26.1C17.9,57.1,17.9,57.2,17.8,57.2z"/>
		<path class="st2" d="M61.8,82c-11.6-5.4-19.1-13.3-22.3-23.5c-6.2-19.9,6.4-41.9,6.6-42.2l1.3,0.8c-0.1,0.2-12.5,21.7-6.4,41
			c3,9.7,10.3,17.3,21.5,22.5L61.8,82z"/>
		<path class="st2" d="M73.5,73.6c-0.2-15.9-6-27.4-17.1-34.1c-14.9-9-33.3-6-34.2-5.5c0,0,0.1-0.1,0.2-0.2L21,33
			c0.6-1.2,12.4-2.6,23.8,0.2c13.6,3.3,29.8,13,30.2,40.3L73.5,73.6z"/>
		<path class="st2" d="M30.9,78.3l-0.3-1.5c17.4-4.1,29-11.7,34.6-22.7c8-15.7,0.8-32.9,0.7-33.1l1.4-0.6c0.1,0.2,7.5,18.1-0.8,34.4
			C60.7,66.2,48.7,74.2,30.9,78.3z"/>
	</g>
</g>
<g id="圖層_4" class="st0">
	<g class="st1">
		<path class="st2" d="M41.8,18.1c-9.2,0-10,5.2-10,15.6s8.2,14.5,10,14.5s10-4.2,10-14.5C51.7,23.3,51.7,18.1,41.8,18.1z
			 M41.8,45.5c-1.3-0.4-7.3-3.5-7.3-11.8c0-11,1.1-12.9,7.3-12.9c7.1,0,7.3,2,7.3,12.9C49.1,42,43.1,45.1,41.8,45.5z"/>
		<path class="st2" d="M54,50.4c-5.2,0-12.2,8.7-12.2,8.7s-7-8.7-12.2-8.7s-12.2,6.7-12.2,6.7v15.7l24.4,9l24.4-9V57.1
			C66.2,57.1,59.2,50.4,54,50.4z M63.5,71l-21.7,8L20,71V58.3c2.6-2.3,6.9-5.2,9.5-5.2c2.7,0,7.5,4.5,10.1,7.7l0.4,0.4l4.4,2.2V60
			c2.6-3,7.1-7,9.5-7c2.7,0,6.9,2.9,9.5,5.2L63.5,71L63.5,71z"/>
		<path class="st2" d="M67.2,29.8c-5.8,0-6.3,3.3-6.3,9.9s5.2,9.2,6.3,9.2c1.2,0,6.3-2.6,6.3-9.2S73.5,29.8,67.2,29.8z M67.2,46.1
			c-1-0.5-3.6-2.3-3.6-6.4c0-7.2,0.8-7.2,3.6-7.2c3.4,0,3.6,0,3.6,7.2C70.8,43.7,68.2,45.6,67.2,46.1z"/>
		<path class="st2" d="M75.4,51c-2,0-4.5,2-6.2,3.6v17.1l14.6-5.4V55.6C83.8,55.6,79,51,75.4,51z M81.1,64.5L71.9,68V55.8
			c1.9-1.6,3.1-2.1,3.5-2.1c1.4,0,4,1.7,5.7,3.1V64.5z"/>
	</g>
</g>
</svg>
