<?xml version="1.0" encoding="utf-8"?>
<!-- Generator: Adobe Illustrator 21.1.0, SVG Export Plug-In . SVG Version: 6.00 Build 0)  -->
<svg version="1.1" id="圖層_1" xmlns="http://www.w3.org/2000/svg" xmlns:xlink="http://www.w3.org/1999/xlink" x="0px" y="0px"
	 viewBox="0 0 100 100" style="enable-background:new 0 0 100 100;" xml:space="preserve">
<style type="text/css">
	.st0{display:none;}
	.st1{display:inline;}
	.st2{fill:#C6C6C6;}
</style>
<g id="圖層_1_1_" class="st0">
	<g class="st1">
		<path class="st2" d="M56.9,20.5H44.8c-1.8,0-3.3,1.5-3.3,3.3v7.7c0,1.8,1.5,3.3,3.3,3.3h3.8v2.5h-3.1V39h10v-1.6h-3.1v-2.5H57
			c1.4,0,2.5-1.1,2.5-2.5V23C59.4,21.6,58.3,20.5,56.9,20.5z M57.4,32.3c0,0.3-0.2,0.5-0.5,0.5H44.8c-0.7,0-1.3-0.6-1.3-1.3v-7.7
			c0-0.7,0.6-1.3,1.3-1.3H57c0.3,0,0.5,0.2,0.5,0.5L57.4,32.3L57.4,32.3z"/>
		<path class="st2" d="M56.9,61H44.8c-1.8,0-3.3,1.5-3.3,3.3V72c0,1.8,1.5,3.3,3.3,3.3h3.8v2.5h-3.1v1.6h10v-1.6h-3.1v-2.5H57
			c1.4,0,2.5-1.1,2.5-2.5v-9.3C59.4,62.1,58.3,61,56.9,61z M57.4,72.8c0,0.3-0.2,0.5-0.5,0.5H44.8c-0.7,0-1.3-0.6-1.3-1.3v-7.7
			c0-0.7,0.6-1.3,1.3-1.3H57c0.3,0,0.5,0.2,0.5,0.5L57.4,72.8L57.4,72.8z"/>
		<path class="st2" d="M32.6,61H20.4c-1.8,0-3.3,1.5-3.3,3.3V72c0,1.8,1.5,3.3,3.3,3.3h3.8v2.5h-3.1v1.6h10v-1.6H28v-2.5h4.6
			c1.4,0,2.5-1.1,2.5-2.5v-9.3C35.1,62.1,33.9,61,32.6,61z M33.1,72.8c0,0.3-0.2,0.5-0.5,0.5H20.4c-0.7,0-1.3-0.6-1.3-1.3v-7.7
			c0-0.7,0.6-1.3,1.3-1.3h12.2c0.3,0,0.5,0.2,0.5,0.5V72.8z"/>
		<path class="st2" d="M81.6,61H69.4c-1.8,0-3.3,1.5-3.3,3.3V72c0,1.8,1.5,3.3,3.3,3.3h3.8v2.5h-3.1v1.6h10v-1.6H77v-2.5h4.6
			c1.4,0,2.5-1.1,2.5-2.5v-9.3C84.1,62.1,82.9,61,81.6,61z M82.1,72.8c0,0.3-0.2,0.5-0.5,0.5H69.4c-0.7,0-1.3-0.6-1.3-1.3v-7.7
			c0-0.7,0.6-1.3,1.3-1.3h12.2c0.3,0,0.5,0.2,0.5,0.5V72.8z"/>
		<g>
			<rect x="25.9" y="47.7" class="st2" width="49" height="2"/>
			<rect x="49.4" y="40.8" class="st2" width="2" height="18.3"/>
		</g>
		<g>
			<rect x="73.9" y="47.7" class="st2" width="2" height="11.5"/>
		</g>
		<g>
			<rect x="25.1" y="47.7" class="st2" width="2" height="11.5"/>
		</g>
	</g>
</g>
<g id="圖層_2" class="st0">
	<g class="st1">
		<path class="st2" d="M50.6,46.9c-3.3,0-6-2.7-6-6s2.7-6,6-6s6,2.7,6,6C56.5,44.3,53.9,46.9,50.6,46.9z M50.6,36.5
			c-2.5,0-4.5,2-4.5,4.5s2,4.5,4.5,4.5s4.5-2,4.5-4.5C55,38.5,53,36.5,50.6,36.5z"/>
		<path class="st2" d="M57.2,45.9l1.3-0.3c0.1,0,3-0.8,3-5.9c0-5-2.9-5.8-3-5.9l-1.3-0.3l0.3-1.3l0.4-1.8l1.3,0.3
			c0.1,0,5.5,1.4,5.5,9s-5.4,9-5.5,9L58,49.1L57.2,45.9z"/>
		<path class="st2" d="M63.3,53l1.1-0.7c0.2-0.2,5.8-3.9,5.8-12.5c0-9.4-5.4-12.1-5.6-12.2L63.4,27l0.8-1.7l0.6-1.2l1.2,0.6
			c0.1,0,7.4,3.6,7.4,15.1c0,10.5-7.2,15.2-7.2,15.2L65,55.7L63.3,53z"/>
		<path class="st2" d="M69.8,59l1.1-0.7c0.1-0.1,8.5-5.9,8.5-18.5c0-13.4-7.2-18.5-7.2-18.6l-1.1-0.7l1.8-2.7l1.1,0.7
			c0.1,0.1,8.7,5.9,8.7,21.2c0,14.6-9.9,21.2-10,21.2l-1.1,0.7L69.8,59z"/>
		<path class="st2" d="M43.9,45.9l-1.3-0.3c-0.1,0-3-0.8-3-5.9c0-5,2.9-5.8,3-5.9l1.3-0.3l-0.3-1.3l-0.4-1.8l-1.3,0.3
			c-0.1,0-5.5,1.4-5.5,9s5.4,9,5.5,9l1.3,0.3L43.9,45.9z"/>
		<path class="st2" d="M37.8,53l-1.1-0.7c-0.2-0.2-5.8-3.9-5.8-12.5c0-9.4,5.4-12.1,5.6-12.2l1.2-0.6l-0.8-1.7l-0.6-1.2l-1.2,0.6
			c-0.1,0-7.4,3.6-7.4,15.1c0,10.5,7.2,15.2,7.2,15.2l1.1,0.7L37.8,53z"/>
		<path class="st2" d="M31.3,59l-1.1-0.7c-0.1-0.1-8.5-5.9-8.5-18.5c0-13.4,7.2-18.5,7.2-18.6l1.1-0.7l-1.8-2.7l-1.1,0.7
			c-0.1,0.1-8.7,5.9-8.7,21.2c0,14.6,9.9,21.2,10,21.2l1.1,0.7L31.3,59z"/>
		<path class="st2" d="M51.1,68.7h-1.7c-0.9,0-1.6-0.7-1.6-1.6V50.4c0-0.9,0.7-1.6,1.6-1.6h1.7c0.9,0,1.6,0.7,1.6,1.6v16.8
			C52.7,68,52,68.7,51.1,68.7z M49.4,50.3l-0.1,16.8l1.8,0.1c0,0,0.1,0,0.1-0.1V50.4L49.4,50.3z"/>
		<path class="st2" d="M74.4,83H26c-1.5,0-2.8-1.2-2.8-2.8V70c0-1.5,1.2-2.8,2.8-2.8h48.4c1.5,0,2.8,1.2,2.8,2.8v10.2
			C77.2,81.7,75.9,83,74.4,83z M26,68.7c-0.7,0-1.3,0.6-1.3,1.3v10.2c0,0.7,0.6,1.3,1.3,1.3h48.4c0.7,0,1.3-0.6,1.3-1.3V70
			c0-0.7-0.6-1.3-1.3-1.3H26z"/>
		<path class="st2" d="M33.7,77.9h-3c-0.3,0-0.5-0.2-0.5-0.5v-5.7c0-0.3,0.2-0.5,0.5-0.5h3c0.3,0,0.5,0.2,0.5,0.5v5.7
			C34.2,77.6,34,77.9,33.7,77.9z"/>
		<path class="st2" d="M56.5,75.4h-3c-0.3,0-0.5-0.2-0.5-0.5v-3.3c0-0.3,0.2-0.5,0.5-0.5h3c0.3,0,0.5,0.2,0.5,0.5v3.3
			C57,75.2,56.7,75.4,56.5,75.4z"/>
		<path class="st2" d="M62.6,75.4h-3c-0.3,0-0.5-0.2-0.5-0.5v-3.3c0-0.3,0.2-0.5,0.5-0.5h3c0.3,0,0.5,0.2,0.5,0.5v3.3
			C63.1,75.2,62.9,75.4,62.6,75.4z"/>
		<path class="st2" d="M68.8,75.4h-3c-0.3,0-0.5-0.2-0.5-0.5v-3.3c0-0.3,0.2-0.5,0.5-0.5h3c0.3,0,0.5,0.2,0.5,0.5v3.3
			C69.3,75.2,69.1,75.4,68.8,75.4z"/>
	</g>
</g>
<g id="圖層_3">
	<g>
		<path class="st2" d="M50.6,84.4C27.8,84.4,9.2,65.9,9.2,43S27.7,1.6,50.6,1.6S92,20.1,92,43S73.3,84.4,50.6,84.4z M50.6,4.6
			C29.4,4.6,12.2,21.8,12.2,43s17.2,38.4,38.4,38.4S89,64.2,89,43S71.8,4.6,50.6,4.6z"/>
		<path class="st2" d="M11.4,51.6l-1.5-0.9l0.7,0.5l-0.7-0.5l0.1-0.3c4.2-7.5,19.9-32.2,47.7-32.2c31.6,0,33.6,21.9,33.6,22.2
			l-1.7,0.1C89.4,39.7,87.7,20,57.8,20C31,20,15.6,43.9,11.7,51.3C11.5,51.5,11.5,51.6,11.4,51.6z"/>
		<path class="st2" d="M64,81.3c-13.9-6.4-22.8-15.9-26.7-28.1C29.9,29.4,45,3.1,45.3,2.7l1.6,0.9c-0.1,0.3-15,25.9-7.6,49
			c3.5,11.6,12.2,20.7,25.7,27L64,81.3z"/>
		<path class="st2" d="M78,71.2c-0.3-19-7.2-32.8-20.5-40.8c-17.8-10.8-39.8-7.2-40.9-6.5c0,0,0.1-0.1,0.3-0.3l-1.7-0.9
			c0.7-1.5,14.8-3.1,28.4,0.3c16.3,4,35.6,15.5,36.2,48.2L78,71.2z"/>
		<path class="st2" d="M27,76.9l-0.4-1.7c20.8-4.9,34.7-14,41.4-27.1C77.6,29.2,69,8.6,68.9,8.4l1.7-0.7c0.1,0.3,9,21.6-0.9,41.1
			C62.7,62.4,48.3,72,27,76.9z"/>
	</g>
</g>
<g id="圖層_4" class="st0">
	<g class="st1">
		<path class="st2" d="M41.8,18.1c-9.2,0-10,5.2-10,15.6s8.2,14.5,10,14.5s10-4.2,10-14.5C51.7,23.3,51.7,18.1,41.8,18.1z
			 M41.8,45.5c-1.3-0.4-7.3-3.5-7.3-11.8c0-11,1.1-12.9,7.3-12.9c7.1,0,7.3,2,7.3,12.9C49.1,42,43.1,45.1,41.8,45.5z"/>
		<path class="st2" d="M54,50.4c-5.2,0-12.2,8.7-12.2,8.7s-7-8.7-12.2-8.7s-12.2,6.7-12.2,6.7v15.7l24.4,9l24.4-9V57.1
			C66.2,57.1,59.2,50.4,54,50.4z M63.5,71l-21.7,8L20,71V58.3c2.6-2.3,6.9-5.2,9.5-5.2c2.7,0,7.5,4.5,10.1,7.7l0.4,0.4l4.4,2.2V60
			c2.6-3,7.1-7,9.5-7c2.7,0,6.9,2.9,9.5,5.2L63.5,71L63.5,71z"/>
		<path class="st2" d="M67.2,29.8c-5.8,0-6.3,3.3-6.3,9.9s5.2,9.2,6.3,9.2c1.2,0,6.3-2.6,6.3-9.2S73.5,29.8,67.2,29.8z M67.2,46.1
			c-1-0.5-3.6-2.3-3.6-6.4c0-7.2,0.8-7.2,3.6-7.2c3.4,0,3.6,0,3.6,7.2C70.8,43.7,68.2,45.6,67.2,46.1z"/>
		<path class="st2" d="M75.4,51c-2,0-4.5,2-6.2,3.6v17.1l14.6-5.4V55.6C83.8,55.6,79,51,75.4,51z M81.1,64.5L71.9,68V55.8
			c1.9-1.6,3.1-2.1,3.5-2.1c1.4,0,4,1.7,5.7,3.1V64.5z"/>
	</g>
</g>
</svg>
