<?xml version="1.0" encoding="utf-8"?>
<!-- Generator: Adobe Illustrator 21.1.0, SVG Export Plug-In . SVG Version: 6.00 Build 0)  -->
<svg version="1.1" id="圖層_1" xmlns="http://www.w3.org/2000/svg" xmlns:xlink="http://www.w3.org/1999/xlink" x="0px" y="0px"
	 viewBox="0 0 100 100" style="enable-background:new 0 0 100 100;" xml:space="preserve">
<style type="text/css">
	.st0{display:none;}
	.st1{display:inline;}
	.st2{fill:#C6C6C6;}
</style>
<g id="圖層_1_1_" class="st0">
	<g class="st1">
		<path class="st2" d="M56.9,20.5H44.8c-1.8,0-3.3,1.5-3.3,3.3v7.7c0,1.8,1.5,3.3,3.3,3.3h3.8v2.5h-3.1V39h10v-1.6h-3.1v-2.5H57
			c1.4,0,2.5-1.1,2.5-2.5V23C59.4,21.6,58.3,20.5,56.9,20.5z M57.4,32.3c0,0.3-0.2,0.5-0.5,0.5H44.8c-0.7,0-1.3-0.6-1.3-1.3v-7.7
			c0-0.7,0.6-1.3,1.3-1.3H57c0.3,0,0.5,0.2,0.5,0.5L57.4,32.3L57.4,32.3z"/>
		<path class="st2" d="M56.9,61H44.8c-1.8,0-3.3,1.5-3.3,3.3V72c0,1.8,1.5,3.3,3.3,3.3h3.8v2.5h-3.1v1.6h10v-1.6h-3.1v-2.5H57
			c1.4,0,2.5-1.1,2.5-2.5v-9.3C59.4,62.1,58.3,61,56.9,61z M57.4,72.8c0,0.3-0.2,0.5-0.5,0.5H44.8c-0.7,0-1.3-0.6-1.3-1.3v-7.7
			c0-0.7,0.6-1.3,1.3-1.3H57c0.3,0,0.5,0.2,0.5,0.5L57.4,72.8L57.4,72.8z"/>
		<path class="st2" d="M32.6,61H20.4c-1.8,0-3.3,1.5-3.3,3.3V72c0,1.8,1.5,3.3,3.3,3.3h3.8v2.5h-3.1v1.6h10v-1.6H28v-2.5h4.6
			c1.4,0,2.5-1.1,2.5-2.5v-9.3C35.1,62.1,33.9,61,32.6,61z M33.1,72.8c0,0.3-0.2,0.5-0.5,0.5H20.4c-0.7,0-1.3-0.6-1.3-1.3v-7.7
			c0-0.7,0.6-1.3,1.3-1.3h12.2c0.3,0,0.5,0.2,0.5,0.5V72.8z"/>
		<path class="st2" d="M81.6,61H69.4c-1.8,0-3.3,1.5-3.3,3.3V72c0,1.8,1.5,3.3,3.3,3.3h3.8v2.5h-3.1v1.6h10v-1.6H77v-2.5h4.6
			c1.4,0,2.5-1.1,2.5-2.5v-9.3C84.1,62.1,82.9,61,81.6,61z M82.1,72.8c0,0.3-0.2,0.5-0.5,0.5H69.4c-0.7,0-1.3-0.6-1.3-1.3v-7.7
			c0-0.7,0.6-1.3,1.3-1.3h12.2c0.3,0,0.5,0.2,0.5,0.5V72.8z"/>
		<g>
			<rect x="25.9" y="47.7" class="st2" width="49" height="2"/>
			<rect x="49.4" y="40.8" class="st2" width="2" height="18.3"/>
		</g>
		<g>
			<rect x="73.9" y="47.7" class="st2" width="2" height="11.5"/>
		</g>
		<g>
			<rect x="25.1" y="47.7" class="st2" width="2" height="11.5"/>
		</g>
	</g>
</g>
<g id="圖層_2" class="st0">
	<g class="st1">
		<path class="st2" d="M50.6,46.9c-3.3,0-6-2.7-6-6s2.7-6,6-6s6,2.7,6,6C56.5,44.3,53.9,46.9,50.6,46.9z M50.6,36.5
			c-2.5,0-4.5,2-4.5,4.5s2,4.5,4.5,4.5s4.5-2,4.5-4.5C55,38.5,53,36.5,50.6,36.5z"/>
		<path class="st2" d="M57.2,45.9l1.3-0.3c0.1,0,3-0.8,3-5.9c0-5-2.9-5.8-3-5.9l-1.3-0.3l0.3-1.3l0.4-1.8l1.3,0.3
			c0.1,0,5.5,1.4,5.5,9s-5.4,9-5.5,9L58,49.1L57.2,45.9z"/>
		<path class="st2" d="M63.3,53l1.1-0.7c0.2-0.2,5.8-3.9,5.8-12.5c0-9.4-5.4-12.1-5.6-12.2L63.4,27l0.8-1.7l0.6-1.2l1.2,0.6
			c0.1,0,7.4,3.6,7.4,15.1c0,10.5-7.2,15.2-7.2,15.2L65,55.7L63.3,53z"/>
		<path class="st2" d="M69.8,59l1.1-0.7c0.1-0.1,8.5-5.9,8.5-18.5c0-13.4-7.2-18.5-7.2-18.6l-1.1-0.7l1.8-2.7l1.1,0.7
			c0.1,0.1,8.7,5.9,8.7,21.2c0,14.6-9.9,21.2-10,21.2l-1.1,0.7L69.8,59z"/>
		<path class="st2" d="M43.9,45.9l-1.3-0.3c-0.1,0-3-0.8-3-5.9c0-5,2.9-5.8,3-5.9l1.3-0.3l-0.3-1.3l-0.4-1.8l-1.3,0.3
			c-0.1,0-5.5,1.4-5.5,9s5.4,9,5.5,9l1.3,0.3L43.9,45.9z"/>
		<path class="st2" d="M37.8,53l-1.1-0.7c-0.2-0.2-5.8-3.9-5.8-12.5c0-9.4,5.4-12.1,5.6-12.2l1.2-0.6l-0.8-1.7l-0.6-1.2l-1.2,0.6
			c-0.1,0-7.4,3.6-7.4,15.1c0,10.5,7.2,15.2,7.2,15.2l1.1,0.7L37.8,53z"/>
		<path class="st2" d="M31.3,59l-1.1-0.7c-0.1-0.1-8.5-5.9-8.5-18.5c0-13.4,7.2-18.5,7.2-18.6l1.1-0.7l-1.8-2.7l-1.1,0.7
			c-0.1,0.1-8.7,5.9-8.7,21.2c0,14.6,9.9,21.2,10,21.2l1.1,0.7L31.3,59z"/>
		<path class="st2" d="M51.1,68.7h-1.7c-0.9,0-1.6-0.7-1.6-1.6V50.4c0-0.9,0.7-1.6,1.6-1.6h1.7c0.9,0,1.6,0.7,1.6,1.6v16.8
			C52.7,68,52,68.7,51.1,68.7z M49.4,50.3l-0.1,16.8l1.8,0.1c0,0,0.1,0,0.1-0.1V50.4L49.4,50.3z"/>
		<path class="st2" d="M74.4,83H26c-1.5,0-2.8-1.2-2.8-2.8V70c0-1.5,1.2-2.8,2.8-2.8h48.4c1.5,0,2.8,1.2,2.8,2.8v10.2
			C77.2,81.7,75.9,83,74.4,83z M26,68.7c-0.7,0-1.3,0.6-1.3,1.3v10.2c0,0.7,0.6,1.3,1.3,1.3h48.4c0.7,0,1.3-0.6,1.3-1.3V70
			c0-0.7-0.6-1.3-1.3-1.3H26z"/>
		<path class="st2" d="M33.7,77.9h-3c-0.3,0-0.5-0.2-0.5-0.5v-5.7c0-0.3,0.2-0.5,0.5-0.5h3c0.3,0,0.5,0.2,0.5,0.5v5.7
			C34.2,77.6,34,77.9,33.7,77.9z"/>
		<path class="st2" d="M56.5,75.4h-3c-0.3,0-0.5-0.2-0.5-0.5v-3.3c0-0.3,0.2-0.5,0.5-0.5h3c0.3,0,0.5,0.2,0.5,0.5v3.3
			C57,75.2,56.7,75.4,56.5,75.4z"/>
		<path class="st2" d="M62.6,75.4h-3c-0.3,0-0.5-0.2-0.5-0.5v-3.3c0-0.3,0.2-0.5,0.5-0.5h3c0.3,0,0.5,0.2,0.5,0.5v3.3
			C63.1,75.2,62.9,75.4,62.6,75.4z"/>
		<path class="st2" d="M68.8,75.4h-3c-0.3,0-0.5-0.2-0.5-0.5v-3.3c0-0.3,0.2-0.5,0.5-0.5h3c0.3,0,0.5,0.2,0.5,0.5v3.3
			C69.3,75.2,69.1,75.4,68.8,75.4z"/>
	</g>
</g>
<g id="圖層_3" class="st0">
	<g class="st1">
		<path class="st2" d="M50.6,84.6C31.5,84.6,16,69.1,16,50s15.5-34.6,34.6-34.6S85.2,30.9,85.2,50S69.6,84.6,50.6,84.6z M50.6,17.9
			c-17.7,0-32.1,14.4-32.1,32.1s14.4,32.1,32.1,32.1S82.7,67.7,82.7,50S68.3,17.9,50.6,17.9z"/>
		<path class="st2" d="M17.8,57.2l-1.2-0.8l0.6,0.4l-0.6-0.4l0.1-0.2c3.5-6.3,16.6-26.9,39.9-26.9c26.4,0,28.1,18.3,28.1,18.5
			l-1.5,0.1c-0.1-0.7-1.6-17.1-26.6-17.1c-22.4,0-35.2,20-38.5,26.1C17.9,57.1,17.9,57.2,17.8,57.2z"/>
		<path class="st2" d="M61.8,82c-11.6-5.4-19.1-13.3-22.3-23.5c-6.2-19.9,6.4-41.9,6.6-42.2l1.3,0.8c-0.1,0.2-12.5,21.7-6.4,41
			c3,9.7,10.3,17.3,21.5,22.5L61.8,82z"/>
		<path class="st2" d="M73.5,73.6c-0.2-15.9-6-27.4-17.1-34.1c-14.9-9-33.3-6-34.2-5.5c0,0,0.1-0.1,0.2-0.2L21,33
			c0.6-1.2,12.4-2.6,23.8,0.2c13.6,3.3,29.8,13,30.2,40.3L73.5,73.6z"/>
		<path class="st2" d="M30.9,78.3l-0.3-1.5c17.4-4.1,29-11.7,34.6-22.7c8-15.7,0.8-32.9,0.7-33.1l1.4-0.6c0.1,0.2,7.5,18.1-0.8,34.4
			C60.7,66.2,48.7,74.2,30.9,78.3z"/>
	</g>
</g>
<path class="st2" d="M39.2,40.1c-1.9,0-12.5-5-12.5-18.3C26.7,8,27.9,2,39.2,2c12.2,0,12.3,6.1,12.5,19.5v0.3
	C51.7,35.1,41.1,40.1,39.2,40.1z M39.2,4.6c-8.8,0-10,3.5-10,17.3c0,10.2,7.3,15,9.9,15.8l0.1,0l0.2-0.1c0.5-0.2,9.6-4,9.7-15.7
	c0.1-8.4,0-13.2-2.3-15.5C45.5,5.2,43.3,4.6,39.2,4.6z"/>
<path class="st2" d="M39.2,39.6c-1.8,0-12-4.9-12-17.8c0-13.7,1.1-19.3,12-19.3c11.7,0,11.8,5.6,12,19v0.3
	C51.2,34.7,41,39.6,39.2,39.6z M39.2,4.1c-9.2,0-10.5,3.8-10.5,17.8c0,11,8.1,15.6,10.2,16.3l0.3,0.1l0.3-0.1
	c0.1,0,10-3.9,10.1-16.2C49.7,7.5,49.3,4.1,39.2,4.1z"/>
<path class="st2" d="M7.9,72.2V52.4l0.4-0.3c6.1-5.4,11.2-8.1,14.9-8.1c5.7,0,13.2,8.4,15.4,11l0.5,0.6l0.5-0.6
	c2.2-2.6,9.7-11,15.4-11c5.7,0,13.5,6.6,15.2,8.2l0.1,0.1v19.9L39.1,83.7L7.9,72.2z M39.2,81.3l28.7-10.6l-0.1-17.1l-0.2-0.2
	c-3.6-3.2-9.1-7-12.7-7c-2.7,0-6.8,2.9-12.3,8.7c-0.4,0.4-0.5,0.5-0.6,0.6l0,0.1l-2.6,3.8L37.1,57l-0.5-0.4l0,0
	c-3.1-3.9-9.5-10.1-13.4-10.1c-3.8,0-9.8,4.3-12.8,6.9l-0.1,0.1v17.1L39.2,81.3z"/>
<path class="st2" d="M8.4,71.9V52.6c1.5-1.3,9.1-8.1,14.8-8.1c6.2,0,15,10.8,15.1,10.9l0.8,1l0.8-1C40,55.3,48.8,44.5,55,44.5
	c5.5,0,13.2,6.5,14.8,8.1v19.3L39.1,83.2L8.4,71.9z M23.2,46c-4,0-10.1,4.4-13.1,7l-0.3,0.3V71l29.4,10.8L68.4,71l-0.1-17.7L68,53
	c-3.7-3.3-9.3-7.1-13.1-7.1c-4.9,0-12.8,9.1-13.2,9.4l-0.1,0.1l-2.3,3.3l-1.8-2L37,56.3C34.2,52.8,27.5,46,23.2,46z"/>
<path class="st2" d="M72.2,41.2c-1.1,0-7.7-3.3-7.7-11.5c0-8.6,0.7-12.4,7.7-12.4c7.7,0,7.7,3.6,7.7,12.4
	C79.9,38.7,73,41.2,72.2,41.2z M72.2,19.7c-4,0-5.2,0.4-5.2,9.9c0,6.7,4.9,8.7,5,8.7l0.2,0.1l0.2-0.1c1.8-0.8,5-3.6,5-8.8
	C77.4,20.3,77.1,19.7,72.2,19.7z"/>
<path class="st2" d="M72.2,40.7c-1,0-7.2-3.2-7.2-11c0-8.5,0.7-11.9,7.2-11.9c7.2,0,7.2,3.2,7.2,11.9C79.4,38.2,72.9,40.7,72.2,40.7
	z M72.2,19.2c-4.6,0-5.7,1-5.7,10.4c0,6.6,4.7,9,5.3,9.2l0.4,0.2l0.4-0.2c2-0.9,5.3-3.9,5.3-9.2C77.9,20.4,77.7,19.2,72.2,19.2z"/>
<path class="st2" d="M75.2,49.2l0.2-0.1c3.4-2.9,5.6-4.2,7.4-4.2c4.2,0,9.6,5,10.2,5.5l0.2,0.1v13.4l-18,6.7V49.2z M77.8,67.3l13-5
	V51.6l-0.2-0.2c-1.2-1-5.3-4.1-7.7-4.1c-1.2,0-3.3,1.4-4.9,2.8l-0.2,0.2V67.3z"/>
<path class="st2" d="M75.7,49.4c3.1-2.7,5.4-4.1,7.1-4.1c3.6,0,8.5,4.1,9.9,5.4v12.8l-17,6.3V49.4z M82.9,46.9
	c-1.5,0-3.9,1.8-5.2,2.9l-0.4,0.3V68l14-5.4V51.4l-0.4-0.3C90.4,50.7,85.7,46.9,82.9,46.9z"/>
</svg>
