<svg version="1.1" id="_x31_" xmlns="http://www.w3.org/2000/svg" xmlns:xlink="http://www.w3.org/1999/xlink" x="0px" y="0px"
	 width="24px" height="24px" viewBox="0 0 24 24" enable-background="new 0 0 24 24" xml:space="preserve">
<g id="create">
	<g>
		<path d="M9.615,21.723H5.77c0,0-1.539,0.01-1.539-1.562c0-1.897,0-15.361,0-15.361S4.46,3.239,5.77,3.239s4.692,0,4.692,0
			s1.391,0.543,1.391,1.708V5.93c0,0-0.266,1.309,1.309,1.309c1.104,0,3.927,0,3.927,0s1.683-0.006,1.683,1.62
			c0,1.417,0,1.553,0,1.553l1.232,2.26V6.068L14.669,2H4.524C4.524,2,3,1.993,3,3.262c0,2.644,0,18.562,0,18.562
			s0.002,1.152,1.371,1.152h6.482C10.588,22.82,9.615,21.723,9.615,21.723z M13.354,3.417l3.989,2.651h-3.989V3.417z M16.001,12.995
			c-2.763,0-5.001,2.239-5.001,5.003C11,20.76,13.238,23,16.001,23C18.762,23,21,20.76,21,17.998
			C21,15.234,18.762,12.995,16.001,12.995z M16.002,22.007c-2.212,0-4.005-1.794-4.005-4.007s1.793-4.008,4.005-4.008
			c2.213,0,4.006,1.795,4.006,4.008S18.215,22.007,16.002,22.007z M16.758,15.42h-1.516v1.82h-1.818v1.516h1.818v1.818h1.516v-1.818
			h1.818V17.24h-1.818V15.42z M6.786,16.989C6.352,16.989,6,17.215,6,17.498c0,0.284,0.352,0.511,0.786,0.512c0,0,1.4,0,2.026,0
			c0.028-0.029,1.094-1.021,0.375-1.021S6.786,16.989,6.786,16.989z M9.469,15.014c-1.009,0-2.719,0-2.719,0
			c-0.414,0-0.75,0.219-0.75,0.487c0,0.272,0.336,0.491,0.75,0.491h2.188C8.938,15.992,10.39,15.044,9.469,15.014z M11.094,12.995
			c-1.31,0-4.308,0-4.308,0C6.352,12.995,6,13.225,6,13.505c0,0.283,0.352,0.513,0.786,0.513h3.683
			C10.469,14.018,12.026,12.934,11.094,12.995z M13.188,10.977c-2.196,0-6.46,0-6.46,0c-0.4,0-0.727,0.229-0.727,0.511
			c0,0.28,0.326,0.51,0.727,0.51h5.398C12.125,11.998,13.916,10.946,13.188,10.977z M6.8,8.007h2.4c0.44,0,0.8-0.229,0.8-0.512
			c0-0.282-0.359-0.511-0.8-0.511H6.8C6.357,6.984,6,7.213,6,7.495C6,7.778,6.357,8.007,6.8,8.007z M16.999,9.492
			c0-0.27-0.347-0.489-0.776-0.489H6.777C6.348,9.002,6,9.22,6,9.492C6,9.761,6.348,9.98,6.777,9.98h9.446
			C16.652,9.98,17,9.761,16.999,9.492z"/>
	</g>
</g>
<g id="remove">
	<g>
		<path d="M5,21.346C5,21.346,5.009,23,6.614,23c2.286,0,9.769,0,9.769,0s1.614,0.039,1.614-1.654c0-2.695,0-15.351,0-15.351H5
			V21.346z M14.979,7.435h1.752v14.125h-1.752V7.435z M12.09,7.435h1.751v14.125H12.09V7.435z M9.158,7.435h1.75v14.125h-1.75V7.435
			z M6.27,7.435h1.75v14.125H6.27V7.435z M16.91,3.068C15.539,3.068,14,3,14,3V2H9v1c0,0-1.542,0.068-2.906,0.068
			c-1.508,0-3.091,1.068-3.091,1.068L3,5.006h16.998L20,4.137C20,4.137,18.371,3.068,16.91,3.068z"/>
	</g>
</g>
<g id="edit">
	<g>
		<path d="M16.675,20.675H3.334V4.319c0,0,6.192,0,8.895,0c0.053,0.046,2.039-1.302,1.994-1.321c-1.74,0-9.605,0.001-10.375,0.001
			C2.06,2.999,2,4.837,2,4.837s0,14.194,0,15.324C2,22.004,3.847,22,3.847,22s11.307,0,12.312,0c1.896,0,1.847-1.839,1.847-1.839
			s0-4.613,0-8.048c0,0.067-1.331,1.797-1.331,1.817C16.675,16.396,16.675,20.675,16.675,20.675z M7.424,13.62l2.649,2.807
			l8.331-8.893l-2.647-2.806L7.424,13.62z M20.633,3.301c0,0-0.256-0.272-0.883-0.935c-0.857-0.909-1.92,0.163-1.92,0.163
			l-1.036,1.099l2.647,2.807c0,0,0.233-0.248,1.037-1.099C21.553,4.197,20.633,3.301,20.633,3.301z M6.388,14.721l-0.399,3.273
			l3.047-0.469L6.388,14.721z"/>
	</g>
</g>
<g id="view">
	<g>
		<path d="M14.666,2H4.523C4.523,2,3,1.993,3,3.262c0,2.644,0,18.564,0,18.564s0.002,1.15,1.371,1.15h9.479
			c-0.266-0.156-1.236-1.254-1.236-1.254H5.769c0,0-1.538,0.012-1.538-1.562c0-1.897,0-15.362,0-15.362S4.46,3.237,5.769,3.237
			s4.691,0,4.691,0s1.391,0.543,1.391,1.708V5.93c0,0-0.266,1.31,1.31,1.31c1.103,0,3.925,0,3.925,0s1.682-0.006,1.682,1.62
			c0,1.417,0,6.557,0,6.557L20,17.676V6.068L14.666,2z M13.352,6.068v-2.65l3.988,2.65H13.352z M16.482,17.799
			c-0.328-0.361-0.891-0.502-1.364-0.441c0.633-0.951,1.137-1.748,1.139-3.094c0-2.487-1.925-4.862-5.004-4.862
			c-2.472,0.001-4.901,1.673-5.003,4.862c-0.07,2.196,1.707,4.86,5.003,4.86c1.146,0,2.067-0.313,2.769-0.754
			c-0.145,0.42-0.062,0.896,0.267,1.255l3.146,2.902c0.512,0.562,1.426,0.632,2.041,0.154c0.614-0.476,0.699-1.316,0.189-1.882
			L16.482,17.799z M11.253,17.799c-1.98,0-3.641-1.57-3.639-3.757c0-1.788,1.46-3.315,3.639-3.315c2.36,0.003,3.64,1.5,3.64,3.537
			C14.893,16.307,13.229,17.798,11.253,17.799z"/>
	</g>
</g>
<g id="inviteUser">
	<g>
		<path d="M16.758,15.424h-1.516v1.819h-1.818v1.515h1.818v1.817h1.516v-1.817h1.818v-1.515h-1.818V15.424z M16.001,13
			C13.238,13,11,15.238,11,18c0,2.761,2.238,5,5.001,5C18.762,23,21,20.761,21,18C21,15.238,18.762,13,16.001,13z M16.002,22.007
			c-2.212,0-4.005-1.793-4.005-4.005s1.793-4.006,4.005-4.006c2.213,0,4.006,1.794,4.006,4.006S18.215,22.007,16.002,22.007z
			 M10.488,11.266c2.012,0,3.793-3.397,3.793-6.232S13.822,1,10.668,1C7.676,1,6.694,2.198,6.694,5.033S8.393,11.266,10.488,11.266z
			 M9,19c-0.253-2.311,1.292-4.674,1.139-4.771C9.043,13.532,6.633,12,6.633,12c-0.561,0.029-3.59,0.744-4.272,2.2
			C2.025,14.915,2,19.559,2,19.559l8.638,3.431C10.45,22.909,9.362,22.313,9,19z"/>
	</g>
</g>
<g id="userprofile">
	<g>
		<path d="M10.488,11.266c2.012,0,3.793-3.397,3.793-6.232S13.822,1,10.668,1C7.676,1,6.695,2.198,6.695,5.033
			S8.393,11.266,10.488,11.266z M11.471,14.008c-0.489,0.297-0.802,0.559-0.802,0.559L6.633,12c-0.56,0.028-3.59,0.744-4.272,2.2
			C2.026,14.915,2,19.559,2,19.559L10.668,23c0,0,0.844-0.352,1.994-0.826C9.897,19.636,9.639,16.924,11.471,14.008z M20.701,16.596
			H20.1c-0.188,0-0.254,0.061-0.309-0.123l-0.242-0.578c-0.088-0.168,0.211-0.385,0.346-0.519l0.211-0.213
			c0.135-0.134-0.043-0.47-0.18-0.604l-0.488-0.488c-0.135-0.135-0.469-0.312-0.604-0.178l-0.424,0.424
			c-0.135,0.136-0.139,0.221-0.307,0.132l-0.578-0.24c-0.184-0.056-0.123-0.119-0.123-0.31v-0.602c0-0.189-0.363-0.3-0.557-0.3
			l-0.689,0.001c-0.189,0-0.555,0.107-0.555,0.299v0.602c0,0.188,0.06,0.254-0.125,0.309l-0.576,0.24
			c-0.168,0.089-0.172,0.004-0.308-0.131l-0.424-0.426c-0.135-0.135-0.471,0.045-0.604,0.18l-0.487,0.488
			c-0.136,0.135-0.313,0.471-0.183,0.604l0.426,0.425c0.134,0.136,0.222,0.138,0.132,0.308l-0.239,0.578
			c-0.057,0.182-0.418,0.123-0.609,0.123h-0.299c-0.19,0-0.299,0.362-0.299,0.555v0.689c0,0.191,0.108,0.557,0.299,0.557h0.602
			c0.189,0,0.253-0.061,0.308,0.123l0.241,0.578c0.09,0.168,0.002,0.172-0.132,0.307l-0.425,0.424c-0.135,0.136,0.045,0.47,0.18,0.604
			l0.488,0.49c0.135,0.135,0.471,0.313,0.604,0.18l0.423-0.424c0.135-0.135,0.139-0.222,0.307-0.133l0.58,0.24
			c0.183,0.057,0.121,0.119,0.121,0.311v0.6c0,0.189,0.364,0.3,0.557,0.301h0.691c0.188,0,0.553-0.11,0.553-0.301v-0.6
			c0-0.188-0.06-0.254,0.125-0.31l0.578-0.241c0.168-0.089,0.17-0.002,0.307,0.133l0.422,0.424c0.137,0.135,0.473-0.045,0.605-0.18
			l0.487-0.49c0.136-0.134,0.313-0.47,0.181-0.604l-0.424-0.424c-0.136-0.135-0.222-0.139-0.134-0.307l0.241-0.576
			c0.057-0.186,0.119-0.125,0.311-0.125h0.6c0.189,0,0.299-0.364,0.299-0.555V17.15C21,16.958,20.891,16.596,20.701,16.596z
			 M18.402,19.406c-1.055,1.054-2.762,1.054-3.813,0c-1.051-1.053-1.051-2.76,0.002-3.813c1.053-1.055,2.758-1.055,3.811,0
			C19.455,16.646,19.455,18.354,18.402,19.406z"/>
	</g>
</g>
<g id="addlicense">
	<g>
		<path fill-rule="evenodd" clip-rule="evenodd" d="M13.312,16.319c-0.985,0-1.55-0.445-1.55-0.445h-0.517
			c0,0-0.517,0.445-1.55,0.445s-1.655-0.24-2.285-0.881l-3.397,5.78l3.616-0.445L10.728,23l1.034-4.899L12.795,23l3.1-2.227
			l3.099,0.445l-3.404-5.78C15.589,15.438,15.507,16.319,13.312,16.319z M5.209,10.253c-0.357,0.733-0.308,1.631,0.205,2.336
			s1.355,1.032,2.168,0.926c0.142,0.801,0.711,1.5,1.542,1.771c0.833,0.272,1.71,0.049,2.309-0.508
			c0.587,0.564,1.461,0.8,2.298,0.538c0.838-0.261,1.42-0.952,1.579-1.751c0.811,0.117,1.66-0.2,2.186-0.898
			c0.527-0.698,0.594-1.595,0.253-2.333c0.728-0.376,1.232-1.125,1.25-1.996c0.017-0.871-0.457-1.635-1.169-2.035
			c0.37-0.727,0.34-1.626-0.16-2.34c-0.534-0.768-1.46-1.107-2.329-0.94c-0.102-0.873-0.706-1.646-1.605-1.921
			c-0.837-0.257-1.711-0.016-2.299,0.553c-0.599-0.554-1.477-0.772-2.309-0.494C8.296,1.44,7.728,2.143,7.585,2.944
			c-0.813-0.101-1.656,0.232-2.168,0.94C4.903,4.592,4.854,5.491,5.21,6.222C4.49,6.612,4,7.371,4,8.241
			C4,9.112,4.489,9.868,5.209,10.253z M11.504,3.063c3.009,0,5.449,2.309,5.449,5.157s-2.439,5.157-5.449,5.157
			c-3.008,0-5.448-2.309-5.448-5.157S8.496,3.063,11.504,3.063z"/>
	</g>
</g>
<g id="network">
	<g>
		<path d="M12,1C5.925,1,1,5.924,1,12s4.925,11,11,11s11-4.925,11-11C23,5.924,18.075,1,12,1z M20.928,8.499
			c-0.301-0.368-0.951-1.036-1.96-1.664c0.026-0.112,0.046-0.227,0.046-0.348c0-0.656-0.431-1.207-1.023-1.407
			c-0.047-0.228-0.09-0.456-0.146-0.686C19.213,5.449,20.284,6.867,20.928,8.499z M17.057,11.074
			c-0.022,0.007-0.048,0.014-0.072,0.022c-0.026-0.038-0.055-0.076-0.086-0.114c-1.684-2.069-3.902-3.609-6.521-4.358
			c1.217-0.353,2.572-0.537,4.079-0.445c0.53,0.032,1.047,0.132,1.544,0.273c-0.001,0.012-0.004,0.023-0.004,0.036
			c0,0.825,0.676,1.493,1.508,1.493c0.003,0,0.006-0.001,0.01-0.001C17.482,8.953,17.346,10.001,17.057,11.074z M16.213,13.292
			c-0.531,1.072-1.254,2.136-2.255,3.142c-0.429,0.431-0.864,0.793-1.302,1.127c-0.276-0.334-0.689-0.55-1.157-0.55
			c-0.208,0-0.407,0.042-0.587,0.118c-1.307-1.699-2.37-3.938-2.55-6.859C8.311,9.445,8.357,8.692,8.438,7.973
			C8.464,7.975,8.487,7.98,8.512,7.98c0.524,0,0.984-0.264,1.254-0.665c2.206,0.557,4.563,1.75,6.528,4.165
			c0.017,0.021,0.03,0.041,0.047,0.062c-0.221,0.261-0.358,0.594-0.358,0.961C15.982,12.793,16.068,13.063,16.213,13.292z M12,2.399
			c1.855,0,3.583,0.536,5.052,1.448c0.085,0.333,0.169,0.73,0.242,1.168c-0.444,0.062-0.826,0.311-1.058,0.669
			c-0.527-0.131-1.096-0.234-1.719-0.286c-1.568-0.132-3.131,0.03-4.634,0.475C9.723,5.521,9.427,5.242,9.061,5.1
			c0.367-1.072,0.813-1.93,1.188-2.533C10.817,2.461,11.401,2.399,12,2.399z M9.364,2.775C9.087,3.259,8.703,4.027,8.362,5.01
			C7.724,5.073,7.205,5.526,7.054,6.13c-0.895-0.023-1.822,0.036-2.78,0.193C5.517,4.635,7.295,3.365,9.364,2.775z M3.781,7.063
			C4.587,6.935,5.74,6.83,7.072,6.903C7.09,6.963,7.106,7.024,7.13,7.081C5.341,8.145,3.721,9.712,2.407,11.85
			C2.434,10.098,2.936,8.465,3.781,7.063z M2.459,12.911c0.509-0.854,2.238-3.443,5.247-5.16c-0.105,0.795-0.148,1.655-0.092,2.57
			c0.163,2.65,1.041,5.181,2.671,7.306c-0.183,0.248-0.294,0.551-0.294,0.882c0,0.201,0.041,0.394,0.114,0.568
			c-1.347,0.597-2.553,0.854-3.357,0.952C4.372,18.473,2.741,15.891,2.459,12.911z M12,21.6c-1.561,0-3.03-0.381-4.333-1.041
			c0.621-0.108,1.67-0.361,2.881-0.895c0.26,0.212,0.588,0.345,0.951,0.345c0.323,0,0.62-0.103,0.865-0.274
			c0.671,0.549,1.39,1.063,2.208,1.508C13.752,21.469,12.893,21.6,12,21.6z M15.414,20.963c-0.711-0.39-1.627-0.988-2.566-1.798
			c0.098-0.199,0.158-0.42,0.158-0.656c0-0.089-0.011-0.175-0.025-0.26c0.512-0.37,1.022-0.774,1.52-1.272
			c0.928-0.933,1.702-1.99,2.311-3.143c0.205,0.104,0.435,0.168,0.681,0.168c0.133,0,0.259-0.021,0.382-0.055
			c0.84,1.693,1.172,3.275,1.281,4.436C18.139,19.518,16.861,20.411,15.414,20.963z M19.757,17.641
			c-0.134-1.002-0.457-2.475-1.221-4.062c0.282-0.272,0.461-0.653,0.461-1.076c0-0.696-0.478-1.276-1.125-1.445
			c0.271-1.045,0.411-2.146,0.401-3.292c0.084-0.05,0.164-0.108,0.236-0.173c1.395,0.863,2.424,1.877,2.856,2.342
			C21.514,10.601,21.6,11.289,21.6,12C21.602,14.111,20.914,16.059,19.757,17.641z"/>
	</g>
</g>

<!-- 未使用 -->
<g id="team">
	<g>
		<path d="M15.006,10.431c0,0,0.003-1.978-0.148-2.434c-0.271-0.8-1.76-0.999-1.76-0.999l-1.521,1.166L9.908,6.998
			C9.677,7.012,8.426,7.336,8.144,7.997c-0.139,0.324-0.149,2.434-0.149,2.434l3.581,1.564L15.006,10.431z M4.505,17.671
			c0.831,0,1.566-1.544,1.566-2.832c0-1.287-0.188-1.832-1.492-1.832c-1.235,0-1.64,0.545-1.64,1.832
			C2.939,16.127,3.641,17.671,4.505,17.671z M11.5,6.665c0.831,0,1.564-1.544,1.564-2.833C13.064,2.544,12.877,2,11.575,2
			C10.34,2,9.934,2.544,9.934,3.832C9.933,5.121,10.635,6.665,11.5,6.665z M12.104,12.99h-1.231v2.242L9.006,16.92L9.833,18
			l1.656-1.563l1.714,1.521l0.785-1.092l-1.884-1.635V12.99z M6.102,18.005L4.58,19.169l-1.667-1.164
			c-0.23,0.013-1.483,0.335-1.765,0.999C1.011,19.326,1,21.438,1,21.438L4.58,23l3.432-1.563c0,0,0.006-1.979-0.148-2.434
			C7.594,18.201,6.102,18.005,6.102,18.005z M18.493,17.671c0.832,0,1.567-1.544,1.567-2.832c0-1.287-0.188-1.832-1.494-1.832
			c-1.234,0-1.641,0.545-1.641,1.832C16.927,16.127,17.629,17.671,18.493,17.671z M21.852,19.004
			c-0.27-0.803-1.761-0.999-1.761-0.999l-1.522,1.164L16.9,18.005c-0.229,0.013-1.481,0.335-1.765,0.999
			c-0.138,0.322-0.147,2.434-0.147,2.434L18.566,23L22,21.438C22,21.438,22.005,19.458,21.852,19.004z"/>
	</g>
</g>
<g id="supportList">
	<g>
		<path d="M17.223,17.014h-6.445c-0.429,0-0.777,0.219-0.777,0.489s0.348,0.488,0.777,0.488h6.445c0.43,0,0.777-0.22,0.777-0.488
			C18,17.232,17.65,17.014,17.223,17.014z M17.199,18.988H10.8c-0.442,0-0.8,0.229-0.8,0.51s0.358,0.511,0.8,0.511h6.399
			c0.441,0,0.801-0.229,0.801-0.511S17.643,18.988,17.199,18.988z M7.5,6.99C6.671,6.99,6,7.661,6,8.489
			c0,0.827,0.672,1.498,1.5,1.498c0.829,0,1.5-0.671,1.5-1.498C9,7.661,8.328,6.99,7.5,6.99z M7.5,11.99
			c-0.828,0-1.5,0.671-1.5,1.499c0,0.827,0.672,1.497,1.5,1.497c0.829,0,1.5-0.67,1.5-1.497C9,12.661,8.328,11.99,7.5,11.99z
			 M8.767,3.007h6.36c0.439,0,0.795-0.3,0.795-0.669V1.669c0-0.37-0.355-0.669-0.795-0.669h-6.36C8.328,1,7.972,1.299,7.972,1.669
			v0.669C7.972,2.707,8.328,3.007,8.767,3.007z M19.912,2c0,0-2.03,0-1.99,0c-0.914,0-0.994,0.902-0.994,1c0,0.692-0.994,1-0.994,1
			H7.974C7.968,4,6.979,3.682,6.979,3c0,1.04,0.032-1-0.995-1c-0.01,0-1.99,0-1.99,0C4.03,2,3,1.938,3,3v18.49
			c0,1.511,1.544,1.464,1.509,1.464c0,0,14.56,0.04,15.495,0.046c0.961-0.004,0.957-1.039,0.996-1c0-3.904,0-19,0-19
			C21,3.155,21.018,2,19.912,2z M18.875,21.843c0.313,0-13.749,0-13.749,0c-0.652,0-0.976-0.724-0.976-0.977V6.218
			c0-0.632,0.324-0.977,0.976-0.977h13.667c0.652,0,1.063,0.345,1.063,0.977c0,0,0,12.244,0,14.648
			C19.891,20.921,19.871,21.843,18.875,21.843z M17.214,6.988h-6.428C10.352,6.988,10,7.217,10,7.498
			c0,0.282,0.352,0.511,0.786,0.511h6.428C17.648,8.009,18,7.78,18,7.498C18,7.217,17.648,6.988,17.214,6.988z M17.25,9.006h-6.5
			C10.335,9.006,10,9.231,10,9.51c0,0.279,0.335,0.505,0.75,0.505h6.5c0.414,0,0.75-0.226,0.75-0.505
			C18,9.231,17.664,9.006,17.25,9.006z M17.271,13.997h-6.544c-0.402,0-0.727,0.229-0.727,0.51c0,0.282,0.325,0.511,0.727,0.511
			h6.544c0.401,0,0.729-0.229,0.729-0.511C18,14.227,17.674,13.997,17.271,13.997z M17.214,11.979h-6.428
			c-0.434,0-0.786,0.229-0.786,0.51C10,12.771,10.352,13,10.786,13h6.428C17.648,13,18,12.771,18,12.489
			C18,12.208,17.648,11.979,17.214,11.979z M7.5,16.99c-0.828,0-1.5,0.671-1.5,1.499c0,0.827,0.672,1.497,1.5,1.497
			c0.829,0,1.5-0.67,1.5-1.497C9,17.661,8.328,16.99,7.5,16.99z"/>
	</g>
</g>
<g id="trigger">
	<g>
		<path d="M2.926,9.358c0-2.438,1.964-4.415,4.386-4.415s4.386,1.977,4.386,4.415c0,0.318-0.034,0.629-0.098,0.928
			c0,0,0.421,0.229,0.623,0.525c0,0,0.207-0.952,0.207-1.459c0-2.843-2.291-5.146-5.118-5.146c-2.828,0-5.12,2.304-5.12,5.146
			c0,2.833,2.276,5.13,5.089,5.148l0.033,0.102c0,0-0.045-0.828-0.066-0.828C4.855,13.739,2.926,11.775,2.926,9.358z M6.658,15.943
			c-3.326-0.332-5.923-3.153-5.923-6.585c0-3.655,2.947-6.619,6.583-6.619c3.636,0,6.583,2.963,6.583,6.619
			c0,0.668-0.098,1.313-0.28,1.92c0,0,0.19,0.185,0.745,0.022c0.169-0.62,0.26-1.273,0.26-1.949C14.625,5.292,11.351,2,7.312,2
			S0,5.292,0,9.352c0,3.875,2.979,7.048,6.76,7.333C6.681,16.698,6.646,15.967,6.658,15.943z M6.269,8.3
			c3.204-2.134,3.708,0.904,3.97,1.052c0-1.188-0.702-2.213-1.711-2.678C8.158,6.504,7.746,6.41,7.312,6.41
			c-1.617,0-2.927,1.317-2.927,2.942c0,1.209,0.725,2.249,1.763,2.702C6.336,12.136,3.855,9.708,6.269,8.3z M22.872,17.509
			c0,0-1.239-3.886-1.603-4.766c-0.365-0.88-1.814-0.472-1.814-0.472l-7.077,0.958l-2.226-3.686c0,0-0.817-1.023-2.198-0.261
			c-1.381,0.763-0.863,1.952-0.863,1.952l3.863,5.975L9.44,16.816c0,0-1.511-0.399-1.994,1.347c-0.482,1.745,0.73,2.054,0.73,2.054
			s4.863,1.104,5.893,2.153c1.029,1.049,1.814,0.472,1.814,0.472s5.524-3.001,6.506-3.592
			C23.374,18.658,22.872,17.509,22.872,17.509z"/>
	</g>
</g>
<g id="rackview">
	<g>
		<path d="M4.007,10.324c0,0.613,0.166,0.666,0.491,0.666s0.491-0.053,0.491-0.666V9.658c0-0.292-0.04-0.45-0.114-0.543H4.121
			C4.047,9.208,4.007,9.367,4.007,9.658V10.324z M21.047,13.999H2.952C2.961,13.999,2,13.917,2,14.992v2.98
			C2,18.867,3.121,19,3.025,19h8.955c-0.161,0.044-0.314,0.991-0.314,0.991c-0.271,0-0.669,0.596-0.669,1.002v1.003
			c0,0.406,0.398,1.003,0.669,1.003h0.668c0.271,0,0.67-0.597,0.67-1.003v-1.003c0-0.406-0.398-1.002-0.67-1.002
			c0,0-0.164-0.947-0.331-0.991h8.972C20.966,19,22,19.002,22,17.973v-2.98C22,14.008,21.039,13.999,21.047,13.999z M20.967,16.962
			c0-0.004-0.088,0.924-0.943,0.924H3.976c-0.854,0-0.944-0.928-0.944-0.924v-0.924c0,0.004,0.003-0.925,0.944-0.925h0.145
			c0.082-0.104,0.206-0.123,0.376-0.123s0.295,0.021,0.376,0.123h15.148c0.855,0,0.943,0.845,0.943,0.925v0.924H20.967z
			 M18.998,17.007h0.994v-0.991h-0.994V17.007z M4.007,16.322c0,0.613,0.166,0.666,0.491,0.666s0.491-0.053,0.491-0.666v-0.666
			c0-0.291-0.04-0.45-0.114-0.543H4.121c-0.074,0.093-0.114,0.252-0.114,0.543V16.322z M14.01,21.997h5.992v-1.003H14.01V21.997z
			 M15.01,17.007h0.996v-0.991H15.01V17.007z M17.004,17.007h0.995v-0.991h-0.995V17.007z M3.999,21.997H9.99v-1.003H3.999V21.997z
			 M21.047,2.001H2.952C2.961,2.001,2,1.919,2,2.996v2.98C2,6.87,3.121,7.003,3.025,7.003h17.95C20.966,7.003,22,7.005,22,5.976
			v-2.98C22,2.01,21.039,2.001,21.047,2.001z M20.967,4.965c0-0.004-0.088,0.924-0.943,0.924H3.976
			c-0.854,0-0.944-0.928-0.944-0.924V4.042c0,0.004,0.003-0.925,0.944-0.925h0.145c0.082-0.103,0.206-0.123,0.376-0.123
			s0.295,0.021,0.376,0.123h15.148c0.855,0,0.943,0.845,0.943,0.925v0.923H20.967z M15.01,5.01h0.996V4.019H15.01V5.01z
			 M13.016,5.01h0.996V4.019h-0.996V5.01z M4.007,4.325c0,0.613,0.166,0.666,0.491,0.666s0.491-0.053,0.491-0.666V3.66
			c0-0.292-0.04-0.45-0.114-0.543H4.121C4.047,3.209,4.007,3.368,4.007,3.66V4.325z M17.004,5.01h0.995V4.019h-0.995V5.01z
			 M18.998,5.01h0.994V4.019h-0.994V5.01z M17.004,11.009h0.995v-0.991h-0.995V11.009z M15.01,11.009h0.996v-0.991H15.01V11.009z
			 M18.998,11.009h0.994v-0.991h-0.994V11.009z M13.016,11.009h0.996v-0.991h-0.996V11.009z M21.047,8H2.952
			C2.961,8,2,7.918,2,8.994v2.98c0,0.894,1.121,1.028,1.025,1.028h17.95c-0.01,0,1.024,0.002,1.024-1.028v-2.98
			C22,8.009,21.039,8,21.047,8z M20.967,10.964c0-0.004-0.088,0.923-0.943,0.923H3.976c-0.854,0-0.944-0.927-0.944-0.923V10.04
			c0,0.004,0.003-0.925,0.944-0.925h0.145c0.082-0.103,0.206-0.123,0.376-0.123s0.295,0.021,0.376,0.123h15.148
			c0.855,0,0.943,0.845,0.943,0.925v0.924H20.967z M13.016,17.007h0.996v-0.991h-0.996V17.007z"/>
	</g>
</g>
<g id="device">
	<g>
		<path d="M8.125,20.875c-3.221,0-3.996,0-3.996,0c-0.893,0-0.985-1.258-0.985-1.253V18.37c0,0.005,0.004-1.253,0.985-1.253
			c0,0,0.004,0,0.005,0c0.083-0.096,0.209-0.113,0.379-0.113c0.17,0,0.295,0.018,0.379,0.113h3.671c0.102,0-0.312-1.114-0.312-1.114
			H3c0.009,0-1-0.101-1,1.19v3.572C2,21.84,3.177,22,3.077,22c0,0,3.735,0,5.548,0C8.432,22,8.324,20.875,8.125,20.875z M20,2.002H3
			c0.009,0-1-0.1-1,1.19v3.574c0,1.072,1.177,1.232,1.077,1.232h16.846C19.914,7.999,21,8.001,21,6.766V3.192
			C21,2.011,19.991,2.002,20,2.002z M19.855,5.621c0-0.005-0.092,1.253-0.984,1.253H4.129c-0.893,0-0.985-1.258-0.985-1.253V4.368
			c0,0.005,0.004-1.253,0.985-1.253h0.005c0.083-0.096,0.209-0.113,0.379-0.113c0.17,0,0.295,0.017,0.379,0.113h13.979
			c0.893,0,0.984,1.145,0.984,1.253V5.621z M3.077,14.999c0,0,0.934,0,4.423,0l-0.312-1.125H4.129c-0.893,0-0.985-1.258-0.985-1.253
			v-1.252c0,0.005,0.004-1.253,0.985-1.253c0,0,0.004,0,0.005,0c0.083-0.096,0.209-0.113,0.379-0.113
			c0.17,0,0.295,0.017,0.379,0.113h5.046c0.313,0,0.58-1.092,2.022-1.114c-4.297,0-8.959,0-8.959,0c0.009,0-1-0.1-1,1.191v3.573
			C2,14.839,3.177,14.999,3.077,14.999z M4.013,17.668v0.663c0,0.61,0.169,0.664,0.5,0.664c0.331,0,0.5-0.054,0.5-0.664v-0.663
			c0-0.298-0.042-0.46-0.121-0.551H4.134C4.054,17.208,4.013,17.37,4.013,17.668z M12,8.999c-0.015,0-0.026,0.003-0.041,0.004h0.079
			C12.024,9.002,12.014,8.999,12,8.999z M13.938,10.116h3.688c-0.074,0,0.978-1.114,0.97-1.114h-6.557
			C13.384,9.024,13.693,10.116,13.938,10.116z M4.013,10.667v0.663c0,0.611,0.169,0.664,0.5,0.664c0.331,0,0.5-0.053,0.5-0.664
			v-0.663c0-0.298-0.042-0.459-0.121-0.551H4.134C4.054,10.208,4.013,10.369,4.013,10.667z M4.013,4.329
			c0,0.611,0.169,0.664,0.5,0.664c0.331,0,0.5-0.053,0.5-0.664V3.666c0-0.298-0.042-0.459-0.121-0.551H4.134
			c-0.08,0.091-0.121,0.253-0.121,0.551V4.329z M15.995,4.986h0.996V4.01h-0.996V4.986z M20,9.061c-0.266,0,1,0.938,1,0.938V9.193
			C21,8.984,20.625,9.061,20,9.061z M12.004,4.986h0.997V4.01h-0.997V4.986z M14,4.986h0.996V4.01H14V4.986z M17.99,4.986h0.996
			V4.01H17.99V4.986z M15.625,20.875c0.114,0-2.038,0-1.906,0c0.514,0-0.664,1.125-0.562,1.125c0.729,0,3.159,0,3.094,0
			C15.723,22,15.184,20.875,15.625,20.875z M20,16.003c0,0,0,0.69,0,1.997l1-0.807C21,16.014,19.991,16.003,20,16.003z
			 M18.036,16.007c1.112-1.108,2.632-2.622,2.632-2.622s0.85-0.843-0.168-1.854c-1.085-1.081-1.91-0.217-1.91-0.217
			s-1.388,1.381-2.538,2.528C17.033,14.843,16.971,14.919,18.036,16.007z M14.184,14.07l0.157-0.271l0.05-0.417
			c0,0-0.231-2.383-2.743-2.383c0,0-0.443,0.004-0.781,0.141l1.658,1.514c0,0,0.172,0.238,0,0.473
			c-0.171,0.232-1.036,1.04-1.036,1.04s-0.218,0.159-0.519,0l-1.763-1.515c0,0-0.207,0.138-0.207,0.758
			c0,0.619,0.402,2.537,2.695,2.554c0,0,0.572,0.025,0.726-0.188l6.502,6.035c0,0,0.337,0.188,0.728,0.188
			c0.392,0,1.326-0.239,1.347-1.137c0.015-0.383-0.206-0.756-0.206-0.756L14.184,14.07z M19.509,21.005
			c-0.276,0-0.5-0.226-0.5-0.504s0.224-0.505,0.5-0.505c0.274,0,0.498,0.227,0.498,0.505S19.783,21.005,19.509,21.005z
			 M13.422,17.783c-0.987,0.984-2.251,2.244-2.251,2.244l-0.662,0.472l-0.507,1.103l0.4,0.398l1.052-0.559l0.473-0.66
			c0,0,1.163-1.159,2.13-2.123C14.08,18.635,13.421,17.809,13.422,17.783z"/>
	</g>
</g>
<g id="configuration">
	<g>
		<path d="M16.236,15.229c0.106-0.356,0.23-0.242,0.604-0.244h1.174c-1.621-0.344-2.469-0.76-2.949-1.502
			c-0.063,1.258-0.573,2.496-1.537,3.457c-2.06,2.052-5.394,2.053-7.451,0.002c-2.057-2.051-2.057-5.375,0.001-7.425
			C7.453,8.145,9.4,7.691,11.155,8.154c-0.165-0.57-0.022-1.01,0.454-1.429c-0.11-0.097-0.048-0.236-0.049-0.51V5.046
			c0-0.372-0.71-0.586-1.083-0.585H9.122C8.75,4.462,8.04,4.674,8.039,5.046v1.169c0.001,0.37,0.114,0.496-0.243,0.604l-1.13,0.47
			c-0.328,0.171-0.336,0.003-0.6-0.26l-0.83-0.826C4.974,5.94,4.318,6.291,4.056,6.552L3.099,7.506
			C2.835,7.769,2.484,8.421,2.747,8.684l0.83,0.826c0.264,0.263,0.434,0.27,0.26,0.598l-0.472,1.127
			c-0.108,0.355-0.82,0.243-1.192,0.242H1.586C1.214,11.477,1,12.185,1,12.555v1.35c0,0.371,0.214,1.08,0.586,1.08H2.76
			c0.373,0,0.498-0.113,0.604,0.242l0.473,1.127c0.173,0.328,0.004,0.334-0.26,0.599l-0.83,0.825
			c-0.263,0.264,0.087,0.914,0.351,1.178l0.958,0.953c0.263,0.263,0.917,0.613,1.181,0.351l0.83-0.827
			c0.264-0.262,0.27-0.43,0.599-0.257l1.132,0.47c0.356,0.107,0.243,0.231,0.242,0.604v1.169c0.002,0.37,0.712,0.584,1.084,0.585
			h1.354c0.372,0,1.082-0.214,1.082-0.585v-1.169c0-0.37-0.114-0.494,0.243-0.6l1.132-0.474c0.33-0.173,0.334-0.006,0.599,0.257
			l0.829,0.827c0.264,0.263,0.916-0.087,1.182-0.351l0.957-0.953c0.264-0.262,0.613-0.915,0.352-1.178l-0.83-0.825
			c-0.264-0.263-0.431-0.269-0.258-0.597L16.236,15.229z M22.657,7.092h-0.685c-0.217,0-0.289,0.066-0.353-0.141l-0.276-0.658
			c-0.101-0.191,0.24-0.437,0.395-0.589l0.242-0.241c0.152-0.153-0.051-0.533-0.205-0.687L21.217,4.22
			c-0.152-0.153-0.535-0.356-0.688-0.204l-0.484,0.482c-0.152,0.153-0.156,0.251-0.35,0.15l-0.659-0.274
			c-0.209-0.062-0.142-0.135-0.144-0.352V3.341c0-0.218-0.414-0.342-0.631-0.341h-0.789c-0.219,0-0.633,0.124-0.633,0.341v0.682
			c0,0.217,0.066,0.29-0.143,0.353l-0.659,0.273c-0.19,0.101-0.196,0.003-0.351-0.15l-0.482-0.482
			c-0.154-0.152-0.536,0.051-0.689,0.204l-0.559,0.556C13.805,4.929,13.6,5.31,13.753,5.463l0.483,0.482
			c0.154,0.152,0.253,0.156,0.15,0.348l-0.273,0.658c-0.063,0.207-0.479,0.142-0.695,0.141h-0.343c-0.218,0-0.343,0.413-0.343,0.629
			v0.787c0,0.217,0.125,0.631,0.343,0.631h0.685c0.219-0.001,0.29-0.067,0.354,0.141l0.275,0.657
			c0.102,0.192,0.002,0.195-0.152,0.349l-0.482,0.482c-0.154,0.153,0.051,0.533,0.204,0.687l0.56,0.557
			c0.152,0.152,0.534,0.356,0.688,0.204l0.483-0.482c0.153-0.153,0.156-0.251,0.35-0.15l0.66,0.273
			c0.208,0.063,0.142,0.136,0.142,0.352v0.684c0.001,0.215,0.415,0.34,0.632,0.342l0.791-0.002c0.217,0,0.631-0.125,0.631-0.34
			v-0.684c0-0.215-0.066-0.288,0.143-0.35l0.66-0.275c0.193-0.101,0.195-0.003,0.349,0.15l0.483,0.482
			c0.154,0.152,0.535-0.051,0.689-0.204l0.559-0.557c0.152-0.152,0.357-0.533,0.205-0.687l-0.484-0.482
			c-0.152-0.153-0.251-0.156-0.15-0.348l0.276-0.657c0.062-0.208,0.134-0.142,0.351-0.142h0.686C22.875,9.138,23,8.726,23,8.509
			V7.722C23,7.505,22.875,7.092,22.657,7.092z M20.04,10.278c-1.2,1.196-3.146,1.197-4.347,0.001c-1.199-1.196-1.199-3.135,0-4.331
			c1.201-1.196,3.146-1.196,4.347,0C21.241,7.145,21.24,9.083,20.04,10.278z"/>
	</g>
</g>
<g id="topology">
	<g>
		<path d="M5.101,13.031h6.401v1.957h1.094v-1.957h6.4v1.957h1.1v-2.834h-7.5V9.993h-1.094v2.161H4.007v2.834h1.094V13.031z
			 M21.021,16.01h-3.989c-1.041,0-0.976,0.998-0.976,0.998v3.994c0,0,0.012,0.998,0.976,0.998c1.765,0,3.989,0,3.989,0
			s0.976-0.086,0.976-0.998c0-1.326,0-3.994,0-3.994S22.1,16.01,21.021,16.01z M20.811,18.325c0,0,0,0.358,0,1.356
			c0,1.139-0.938,1.151-0.938,1.151s-0.656,0.005-1.762,0.005c-0.842,0-0.864-1.156-0.864-1.156v-1.356c0,0-0.011-1.152,0.937-1.152
			h1.689C20.896,17.173,20.811,18.325,20.811,18.325z M10.445,9.002h3.212c1.362,0,1.405-1.5,1.405-1.5V4.5c0,0-0.026-1.5-1.439-1.5
			h-3.178C9.018,3,9.038,4.5,9.038,4.5v3.001C9.038,7.501,9.06,9.002,10.445,9.002z M13.993,16.01h-3.989
			c-1.041,0-0.975,0.998-0.975,0.998v3.994c0,0,0.012,0.998,0.975,0.998c1.765,0,3.989,0,3.989,0s0.975-0.086,0.975-0.998
			c0-1.326,0-3.994,0-3.994S15.07,16.01,13.993,16.01z M13.779,18.325c0,0,0,0.358,0,1.356c0,1.139-0.936,1.151-0.936,1.151
			s-0.656,0.005-1.761,0.005c-0.841,0-0.865-1.156-0.865-1.156v-1.356c0,0-0.011-1.152,0.937-1.152h1.689
			C13.867,17.173,13.779,18.325,13.779,18.325z M6.965,16.01h-3.99C1.933,16.01,2,17.008,2,17.008v3.994C2,21.002,2.012,22,2.975,22
			c1.765,0,3.99,0,3.99,0s0.975-0.086,0.975-0.998c0-1.326,0-3.994,0-3.994S8.042,16.01,6.965,16.01z M6.752,18.325
			c0,0,0,0.358,0,1.356c0,1.139-0.937,1.151-0.937,1.151s-0.656,0.005-1.761,0.005c-0.841,0-0.865-1.156-0.865-1.156v-1.356
			c0,0-0.011-1.152,0.936-1.152h1.689C6.839,17.173,6.752,18.325,6.752,18.325z"/>
	</g>
</g>
<g id="topology-setting">
	<g>
		<path d="M10.406,8.004h3.201c1.352,0,1.396-1.501,1.396-1.501V3.501c0,0-0.024-1.501-1.433-1.501h-3.166
			C8.987,2,9.007,3.501,9.007,3.501v3.002C9.007,6.503,9.027,8.004,10.406,8.004z M19.236,12.034c0.492,0,0.777,0,0.777,0v-0.878
			c0,0-1.658,0-1.685,0C18.248,11.156,18.744,11.351,19.236,12.034z M6.943,15.014H2.972c-1.035,0-0.972,1-0.972,1v3.993
			c0,0,0.015,0.999,0.972,0.999c1.758,0,3.971,0,3.971,0s0.971-0.086,0.971-0.999c0-1.325,0-3.993,0-3.993
			S8.014,15.014,6.943,15.014z M6.732,17.33c0,0,0,0.357,0,1.355c0,1.141-0.933,1.152-0.933,1.152s-0.653,0.005-1.752,0.005
			c-0.838,0-0.859-1.157-0.859-1.157V17.33c0,0-0.01-1.153,0.929-1.153H5.8C6.818,16.177,6.732,17.33,6.732,17.33z M16.773,11.156
			H12.55V8.995h-1.092v2.161h-6.37c-0.674,0-1.09,0-1.09,0v2.836h1.09v-1.958h6.37v1.958h1.092v-1.958h2.82
			C15.604,11.351,16.764,11.156,16.773,11.156z M11.114,16.177c0.224,0,0.654,0,0.654,0l0.301-1.163c0,0-1.594,0-2.102,0
			c-1.037,0-0.97,1-0.97,1v3.993c0,0,0.011,0.999,0.97,0.999h2.028c-0.02-0.455-0.038-0.671-0.152-1.163
			c-0.23,0.001-0.499,0.001-0.802,0.001c-0.836,0-0.861-1.156-0.861-1.156V17.33C10.181,17.33,10.17,16.177,11.114,16.177z
			 M21.698,16.6h-0.601c-0.187,0-0.254,0.061-0.307-0.123l-0.246-0.578c-0.083-0.168,0.213-0.385,0.35-0.519l0.211-0.212
			c0.135-0.135-0.045-0.47-0.179-0.604l-0.487-0.488c-0.137-0.137-0.474-0.313-0.604-0.18L19.41,14.32
			c-0.137,0.136-0.137,0.222-0.309,0.134l-0.574-0.241c-0.188-0.055-0.127-0.119-0.127-0.311V13.3c0-0.188-0.36-0.299-0.553-0.299
			l-0.689,0.001c-0.189,0-0.559,0.107-0.559,0.298v0.603c0,0.188,0.06,0.255-0.121,0.31l-0.58,0.24
			c-0.164,0.09-0.17,0.004-0.303-0.132l-0.425-0.426c-0.137-0.135-0.469,0.045-0.604,0.181l-0.488,0.489
			c-0.135,0.135-0.313,0.47-0.178,0.603l0.423,0.424c0.134,0.138,0.224,0.14,0.131,0.308l-0.239,0.58
			c-0.058,0.18-0.415,0.121-0.605,0.121h-0.301c-0.189,0-0.302,0.362-0.302,0.557v0.689c0,0.19,0.111,0.555,0.302,0.555h0.598
			c0.191,0,0.254-0.06,0.31,0.123l0.242,0.58c0.09,0.168,0.003,0.172-0.131,0.307l-0.425,0.424
			c-0.137,0.135,0.041,0.469,0.177,0.604l0.487,0.488c0.138,0.135,0.472,0.313,0.605,0.18l0.426-0.422
			c0.135-0.136,0.139-0.223,0.303-0.134l0.58,0.24c0.183,0.056,0.121,0.118,0.121,0.31V21.7c0,0.19,0.367,0.3,0.561,0.301h0.688
			c0.191,0,0.553-0.11,0.553-0.301V21.1c0-0.188-0.06-0.254,0.127-0.309l0.578-0.241c0.168-0.089,0.168-0.002,0.305,0.134
			l0.426,0.422c0.135,0.136,0.471-0.045,0.605-0.18l0.486-0.488c0.131-0.136,0.312-0.472,0.18-0.604l-0.428-0.424
			c-0.136-0.135-0.217-0.139-0.133-0.307l0.245-0.578c0.054-0.185,0.118-0.125,0.308-0.125h0.598c0.191,0,0.302-0.363,0.302-0.553
			v-0.691C22,16.962,21.891,16.6,21.698,16.6z M19.404,19.411c-1.055,1.055-2.764,1.055-3.813,0
			c-1.047-1.054-1.047-2.761,0.003-3.813c1.053-1.055,2.76-1.055,3.811,0C20.454,16.65,20.454,18.357,19.404,19.411z"/>
	</g>
</g>
	<g id="network_icon">
	<g>
		<path fill-rule="evenodd" clip-rule="evenodd" d="M5.375,10.59l0.376,0.9c0.138,0.262,0.003,0.267-0.207,0.477l-0.661,0.66
			c-0.209,0.209,0.07,0.729,0.279,0.938c0,0,0.23,0.229,0.437,0.437c1.1-0.29,1.76-0.407,2.933-1.08
			c-0.415-0.205-0.804-0.48-1.15-0.826C5.671,10.388,5.671,7.618,7.384,5.91c1.711-1.709,4.487-1.709,6.198-0.001
			c1.713,1.709,1.713,4.478,0,6.186c-0.809,0.808-1.856,1.234-2.916,1.278c0.773,0.48,2.325,0.368,2.325,0.368
			c0.263-0.138,0.265-0.005,0.476,0.205c0,0,0.492,0.165,1.6,0.381l0.762-0.762c0.209-0.209,0.488-0.729,0.279-0.938l-0.66-0.66
			c-0.211-0.21-0.342-0.214-0.205-0.476l0.376-0.899c0.085-0.285,0.183-0.193,0.479-0.194h0.934c0.297-0.001,0.467-0.564,0.467-0.86
			V8.46c0-0.298-0.17-0.862-0.467-0.862h-0.934c-0.295,0-0.396,0.092-0.481-0.192L15.24,6.506c-0.137-0.263,0.328-0.599,0.537-0.807
			l0.33-0.33c0.209-0.209-0.07-0.729-0.279-0.938l-0.762-0.763c-0.211-0.209-0.73-0.487-0.939-0.278l-0.66,0.659
			c-0.21,0.21-0.215,0.344-0.478,0.206l-0.9-0.375c-0.284-0.086-0.192-0.186-0.193-0.48V2.466c0-0.297-0.565-0.467-0.861-0.467
			L9.957,2C9.66,2,9.095,2.17,9.095,2.466v0.934c0,0.295,0.091,0.396-0.193,0.481L8.002,4.256C7.741,4.393,7.734,4.259,7.524,4.049
			L6.865,3.39C6.655,3.181,6.134,3.46,5.925,3.668L5.164,4.43c-0.21,0.21-0.489,0.73-0.28,0.939l0.661,0.659
			c0.209,0.21,0.345,0.215,0.207,0.478L5.375,7.405C5.29,7.689,4.723,7.599,4.427,7.598H3.96C3.664,7.599,3.494,8.163,3.494,8.459
			v1.076c0,0.297,0.169,0.862,0.466,0.862h0.934C5.19,10.397,5.29,10.306,5.375,10.59z M21.797,17.247
			c-0.211,0-0.57,0.169-0.57,0.169s-4.191,1.765-5.002,2.093c-0.811,0.327-2.279-0.45-2.279-0.45s-3.177-1.517-3.23-1.53
			c-0.053-0.014,0.053-0.575,0.76-0.575c1.009,0,2.743,0.354,2.913,0.337c0.113-0.011,0.694-0.006,0.949-0.337
			c0.127-0.164,0.43-0.311,0.064-0.437c-0.396-0.137-1.281-0.435-1.71-0.563c-1.824-0.543-3.094-0.955-4.307-0.955
			c-1.498,0-2.167,0.336-3.419,0.843c-0.352,0.143-0.542,0.318-0.697,0.45c-0.396,0.335-0.316,0.562-0.316,0.562L4.51,20.395
			c-0.057,0.498,0.57,0.563,0.57,0.563s6.646,0.761,9.563,1.012c0.822,0.07,0.859,0.005,0.949,0c0.41-0.027,6.217-3.432,6.395-3.541
			c0.18-0.11,0.508-0.197,0.508-0.618C22.494,17.388,22.01,17.247,21.797,17.247z M1.972,16.166c0,0-1.466-0.057-1.466,1.167
			c0,1.383,0,2.333,0,2.333s-0.01,1.167,1.466,1.167c1.43,0,1.466-1.167,1.466-1.167s0-1.888,0-2.333
			C3.438,16.23,1.972,16.166,1.972,16.166z"/>
	</g>
</g>
</svg>
