<svg version="1.1" id="_1" xmlns="http://www.w3.org/2000/svg" xmlns:xlink="http://www.w3.org/1999/xlink" x="0px" y="0px"
	 width="600px" height="600px" viewBox="0 0 16 16" enable-background="new 0 0 16 16" xml:space="preserve">
<path id="bottom_systemsetting" d="M11.389,2.491l-0.707,0.707c-0.226,0.224-0.229,0.367-0.511,0.22L9.206,3.016
	C8.902,2.924,9.001,2.818,8.999,2.5v-1c0-0.318-0.604-0.5-0.922-0.5L6.922,1.001C6.605,1.001,6,1.183,6,1.5v1
	c0,0.318,0.097,0.425-0.208,0.517L4.829,3.418c-0.28,0.147-0.287,0.003-0.511-0.221L3.61,2.491C3.387,2.266,2.828,2.565,2.604,2.789
	L1.789,3.605c-0.225,0.225-0.523,0.782-0.3,1.007l0.708,0.707C2.421,5.543,2.566,5.548,2.418,5.83L2.016,6.793
	C1.924,7.097,1.317,7,1,7H0.5C0.182,7,0,7.606,0,7.922v1.154C0,9.395,0.182,10,0.5,10h1c0.318,0,0.425-0.098,0.516,0.207
	l0.403,0.963c0.147,0.281,0.003,0.287-0.221,0.512L1.49,12.389c-0.224,0.226,0.075,0.781,0.299,1.006l0.816,0.816
	c0.225,0.225,0.782,0.523,1.006,0.299l0.707-0.707c0.226-0.225,0.23-0.367,0.511-0.221l0.965,0.402C6.097,14.076,6,14.182,6,14.5v1
	c0.001,0.316,0.606,0.498,0.923,0.5h1.155c0.317,0,0.921-0.184,0.921-0.5v-1c0-0.316-0.097-0.424,0.207-0.514l0.966-0.404
	c0.281-0.146,0.284-0.004,0.51,0.221l0.707,0.707c0.225,0.225,0.782-0.074,1.008-0.299l0.814-0.816
	c0.225-0.223,0.523-0.78,0.299-1.006l-0.707-0.707c-0.225-0.225-0.365-0.229-0.219-0.51l0.402-0.965C13.077,9.902,13.184,10,13.5,10
	h1c0.316,0,0.5-0.605,0.5-0.922V7.923C15,7.605,14.818,7,14.5,7h-1c-0.316,0-0.424,0.097-0.516-0.207L12.582,5.83
	c-0.146-0.281,0.352-0.642,0.574-0.865l0.354-0.353c0.225-0.225-0.074-0.781-0.299-1.006L12.395,2.79
	C12.17,2.565,11.613,2.266,11.389,2.491 M10.675,5.323c1.755,1.754,1.755,4.595,0,6.349c-1.754,1.754-4.595,1.754-6.349,0
	c-1.753-1.752-1.753-4.595,0-6.349C6.08,3.57,8.923,3.57,10.675,5.323"/>
<g id="bottom_language">
	<g>
		<path d="M6.485,4.499L6.479,3.508L0.5,3.522V12.5h5.964l0.021-0.998H1.486V8.5h3.999v-1H1.486V4.499H6.485z M13.484,3.5v7.002
			l-5-7.002L7.499,3.515V12.5h0.985v-7l5,7H14.5V3.529L13.484,3.5z"/>
	</g>
</g>
<g id="bottom_supportlist">
	<g>
		<path d="M1.477,2C0.661,2,0,2.646,0,3.441c0,0.797,0.661,1.443,1.477,1.443s1.476-0.646,1.476-1.443C2.953,2.646,2.292,2,1.477,2z
			 M1.477,7.047C0.661,7.047,0,7.697,0,8.5c0,0.803,0.661,1.454,1.477,1.454S2.953,9.303,2.953,8.5
			C2.953,7.697,2.292,7.047,1.477,7.047z M1.477,12.116C0.661,12.116,0,12.762,0,13.559C0,14.354,0.661,15,1.477,15
			s1.476-0.646,1.476-1.441C2.953,12.762,2.292,12.116,1.477,12.116z M5,9h10V8H5V9z M5,3v1h10V3H5z M5,14h10v-1H5V14z"/>
	</g>
</g>
<g id="bottom_theme">
	<g>
		<path d="M1.514,4.888c0.251,0.266,0.449,0.371,0.653,0.279c0.366-0.163,0.595-0.571,0.268-1.374
			c-0.117-0.289-0.38-0.547-0.52-0.828C1.669,2.467,1.56,2.009,1.527,2C1.34,2.056,0.867,2.795,1.039,3.948
			C1.111,4.491,1.315,4.679,1.514,4.888z M0,8.979c0,0.471,0.28,1.213,1.839,1.297c0.255,0.015,0.536-0.019,0.845-0.07
			c0.059-0.012-1.163-2.969-1.224-2.937C0.541,7.751,0,8.34,0,8.979z M8,6.01c-1.358,0-2.637,0.126-3.758,0.348
			C4.224,6.361,5.588,9.739,5.61,9.738c1.326-0.088,1.852,0.14,1.93,0.352c0.26,0.703-1.035,0.858-0.919,1.483
			c0.08,0.437,0.909,0.37,1.379,0.37c4.417,0,8-1.327,8-2.967C16,7.338,12.417,6.01,8,6.01z M6.988,7.466
			c0-0.265,0.604-0.479,1.349-0.479s1.349,0.215,1.349,0.479c0,0.265-0.604,0.48-1.349,0.48S6.988,7.731,6.988,7.466z M10.137,11.02
			c-0.746,0-1.35-0.215-1.35-0.479s0.604-0.479,1.35-0.479c0.744,0,1.35,0.215,1.35,0.479C11.484,10.805,10.881,11.02,10.137,11.02z
			 M12.654,9.1c-0.745,0-1.35-0.216-1.35-0.48c0-0.265,0.604-0.48,1.35-0.48c0.746,0,1.35,0.215,1.35,0.48
			C14.004,8.884,13.4,9.1,12.654,9.1z M4.766,9.425c-0.346-0.868-0.834-2.18-1.295-3.15C3.241,5.788,3.01,5.352,2.822,5.033
			C2.664,5.137,2.588,5.235,2.428,5.307C2.25,5.385,2.088,5.402,1.904,5.441c0.06,0.274,0.079,0.845,0.255,1.377
			c0.35,1.047,0.965,2.405,1.28,3.191c0.312,0.78,0.744,1.449,1.052,2.048c0.606,1.178,1.188,2.041,1.432,1.935
			c0.219-0.097-0.052-0.96-0.383-2.065C5.314,11.176,5.14,10.357,4.766,9.425z"/>
	</g>
</g>
<g id="head_org_icon">
 	<g>
 		<path d="M14.691,8.024l-0.66-4.138c0.566-0.215,0.973-0.757,0.973-1.396c0-0.828-0.674-1.5-1.506-1.5
 			c-0.627,0-1.164,0.383-1.391,0.927L4.919,1.039C4.722,0.438,4.162,0.001,3.493,0.001c-0.831,0-1.506,0.671-1.506,1.5
			c0,0.563,0.315,1.046,0.774,1.303l-1.7,5.275c-0.612,0.19-1.06,0.752-1.06,1.425c0,0.827,0.674,1.499,1.505,1.499
			c0.045,0,0.087-0.009,0.131-0.013l6.377,3.676c0.084,0.749,0.714,1.333,1.49,1.333c0.832,0,1.506-0.671,1.506-1.499
			c0-0.316-0.1-0.609-0.268-0.852l2.933-2.891c0.236,0.153,0.517,0.244,0.819,0.244c0.83,0,1.506-0.672,1.506-1.499
			C16,8.744,15.43,8.122,14.691,8.024z M9.504,13.001c-0.096,0-0.188,0.011-0.279,0.028L7.777,9.857
			C8.213,9.67,8.563,9.323,8.773,8.895l4.244,0.328c-0.019,0.092-0.029,0.186-0.029,0.281c0,0.268,0.076,0.516,0.201,0.732
			l-2.986,2.941C9.992,13.068,9.758,13.001,9.504,13.001z M12.498,3.602c0.22,0.195,0.496,0.325,0.803,0.366l0.661,4.138
			c-0.237,0.09-0.442,0.237-0.604,0.426l-4.389-0.34c0.006-0.063,0.02-0.125,0.02-0.19c0-0.443-0.146-0.85-0.385-1.184L12.498,3.602
			z M4.972,1.766l7.034,0.858c0.014,0.135,0.04,0.266,0.086,0.388L8.091,6.316c-0.314-0.21-0.689-0.334-1.092-0.334
			c-0.322,0-0.622,0.085-0.891,0.223L4.476,2.629C4.729,2.409,4.91,2.11,4.972,1.766z M3.493,3c0.121,0,0.236-0.018,0.349-0.044
			L5.53,6.653C5.21,7.01,5.011,7.48,5.011,8.001c0,0.051,0.011,0.099,0.015,0.149L2.812,8.771C2.604,8.403,2.249,8.129,1.821,8.039
			l1.626-5.043C3.463,2.996,3.478,3,3.493,3z M3.012,9.504c0-0.009-0.002-0.018-0.003-0.025l2.198-0.617
			c0.318,0.683,0.999,1.158,1.792,1.158c0.022,0,0.043-0.006,0.065-0.006l1.513,3.313c-0.192,0.15-0.348,0.342-0.448,0.566
			l-5.647-3.257C2.804,10.361,3.012,9.959,3.012,9.504z"/>
	</g>
</g>
<g id="head_notification">
	<g>
		<path d="M14.949,12.999c-0.199-0.724-2.947-1.459-2.947-6.987c0,0-0.256-3.743-2.869-3.924H8.416V1.375
			c0,0-0.233-0.375-0.702-0.375H7.333c-0.504,0-0.71,0.375-0.71,0.375v0.713c0,0-0.425-0.034-0.717,0
			C5.614,2.123,3.364,2.593,3.037,6.012c0,0-0.228,5.02-2.999,6.987C0.042,13.275-0.319,14.1,1.102,14h4.261c0,0-0.141,2,2.181,2
			c2.319,0,2.078-2,2.078-2h4.262C13.885,14,15.275,14.171,14.949,12.999z M1.998,13.004c1.477-1.006,2.524-6.966,2.524-6.966
			C4.695,4.067,5.571,3,6.153,3C6.292,3,8.8,3,8.8,3c1.455,0,1.627,3.038,1.627,3.038c0,4.665,2.474,6.966,2.531,6.966
			C12.953,13.004,1.998,13.004,1.998,13.004z"/>
	</g>
</g>
<g id="critical">
	<g>
		<path d="M12.805,3.197c-2.93-2.929-7.679-2.929-10.608,0c-2.928,2.929-2.928,7.677,0,10.608c2.93,2.928,7.679,2.928,10.608,0
			C15.732,10.874,15.732,6.126,12.805,3.197z M12.032,13.035c-2.501,2.5-6.558,2.5-9.059,0c-2.502-2.503-2.502-6.559,0-9.061
			c2.501-2.501,6.558-2.501,9.059,0C14.535,6.477,14.535,10.532,12.032,13.035z M11.016,6.185L9.848,5.019L7.513,7.352L5.178,5.019
			L4.011,6.186l2.335,2.335l-2.335,2.334l1.168,1.168l2.336-2.334l2.334,2.334l1.168-1.168L8.682,8.52L11.016,6.185z"/>
	</g>
</g>
<g id="warning">
	<g>
		<path d="M8.504,11.87H7.505c-0.505,0-0.499,0.515-0.499,0.515v1.032c0,0,0.018,0.5,0.469,0.5h0.998c0.498,0,0.531-0.5,0.531-0.5
			v-1.032C9.004,12.385,9.01,11.87,8.504,11.87z M7.004,7.128l0.008,1.175l0.492,2.535h1.039L9.01,8.303L9.006,7.128
			c0,0-0.43-0.94-0.97-0.94C7.427,6.188,7.004,7.128,7.004,7.128z M15.505,14.016c-1.787-3.369-5.362-9.596-6.831-12.364
			C8.136,0.765,7.826,0.819,7.401,1.6C5.957,4.348,2.349,10.688,0.52,14.045C-0.33,15.357,0.006,16,0.515,16h15.012
			C16.176,16,16.146,15.225,15.505,14.016z M1.615,14.85c0,0,2.756-5.25,6.405-12.128c1.636,3.083,4.763,9.033,6.405,12.128
			C13.718,15.029,2.383,15.029,1.615,14.85z"/>
	</g>
</g>
<g id="info">
	<g>
		<path d="M12.805,3.195c-2.93-2.93-7.679-2.93-10.608,0c-2.928,2.93-2.928,7.68,0,10.61c2.93,2.93,7.679,2.93,10.608,0
			C15.732,10.874,15.732,6.125,12.805,3.195z M12.032,13.035c-2.503,2.502-6.558,2.502-9.059,0s-2.501-6.559,0-9.063
			c2.501-2.502,6.556-2.502,9.059,0C14.534,6.476,14.534,10.533,12.032,13.035z M7.056,6.272h0.899c0,0,0.448-0.024,0.448-0.461
			V4.796c0-0.497-0.448-0.492-0.448-0.492H7.056c0,0-0.447,0.019-0.447,0.507V5.78C6.608,6.263,7.056,6.272,7.056,6.272z
			 M7.505,7.495c-0.654,0-0.802,0.759-0.876,1.248C6.596,9.236,6.604,9.704,6.604,9.704l0.001,2.511c0,0-0.006,0.492,0.45,0.492
			h0.899c0.45,0,0.45-0.492,0.45-0.492L8.41,9.704c0,0-0.044-0.751-0.042-0.972C8.297,8.256,8.159,7.495,7.505,7.495z"/>
	</g>
</g>
<g id="log">
	<g>
		<path d="M8.664,7.757h2.662c0.363,0,0.66-0.167,0.66-0.373c0-0.206-0.297-0.373-0.66-0.373H8.664c-0.364,0-0.66,0.167-0.66,0.373
			C8.004,7.59,8.3,7.757,8.664,7.757z M8.664,9.994h2.643c0.363,0,0.659-0.167,0.659-0.373s-0.296-0.373-0.659-0.373H8.664
			c-0.364,0-0.66,0.167-0.66,0.373S8.3,9.994,8.664,9.994z M5.01,10.011c1.104,0,1.998-0.896,1.998-2.002
			c0.004,0-2.002-0.001-2.003-0.006C5.011,8.005,5.006,6.011,5.01,6.006c-1.104,0-1.998,0.896-1.998,2.002
			C3.012,9.114,3.906,10.011,5.01,10.011z M12.999,1c0,0-1.028,0-1,0c0,0-1-0.005-1,1c0,0.353,0,1.004,0,1c0-0.047-2,0-2,0H6
			C5.995,3,4,2.985,4,3V2c0-0.971-0.986-1-1-1C2.993,1,2,1,2,1c0.025,0-1-0.011-1,1v12.934C1,16.035,2.108,16,2.083,16h10.832
			c1.053,0,1.084-1.063,1.084-1.066V2C13.999,2.113,14.068,1,12.999,1z M12.999,14.001c0,0.472-0.051,1-1,1H3c-0.949,0-1-0.812-1-1
			V5c0-0.471,0.09-1,1-1h8.999c0.478,0,1,0.017,1,1V14.001z M11.438,13.236H3.554c-0.312,0-0.563,0.168-0.563,0.375
			s0.252,0.375,0.563,0.375h7.883c0.312,0,0.563-0.168,0.563-0.375C12,13.404,11.748,13.236,11.438,13.236z M11.438,10.984H3.554
			c-0.312,0-0.563,0.168-0.563,0.375s0.252,0.375,0.563,0.375h7.883c0.312,0,0.563-0.168,0.563-0.375S11.748,10.984,11.438,10.984z
			 M5.508,2.004h3.983c0.274,0,0.497-0.15,0.497-0.334V1.334C9.988,1.15,9.768,1,9.491,1H5.508C5.232,1,5.01,1.15,5.01,1.334v0.335
			C5.01,1.854,5.232,2.004,5.508,2.004z"/>
	</g>
</g>

<g id="event">
	<g>
		<path fill-rule="evenodd" clip-rule="evenodd" d="M2,8.999h3V6L1.992,5.987L2,8.999z M3,7h1v1H3V7z M2,13h3V9.999H2V13z M3,10.999
			h1v1H3V10.999z M3.946,3.001c0.398,0,0.723-0.27,0.723-0.601v-0.8C4.668,1.269,4.344,1,3.946,1S3.224,1.269,3.224,1.601v0.8
			C3.224,2.731,3.547,3.001,3.946,3.001z M10,13h3.001V9.999H10V13z M11,10.999h1v1h-1V10.999z M6.001,13H9V9.999H6.001V13z
			 M7.001,10.999H8v1H7.001V10.999z M14,2c0,0-0.09,0-1.222,0c-0.154,0,0.128,2-1.001,2h-1.222C9.555,4,9.454,2,9.333,2H5.667
			c-0.169,0-0.052,2-1,2H3.445C2.142,4,2.351,2,2.223,2C1.431,2,1.463,2,1,2c-1.05,0-1,1-1,1s0,9.597,0,11c0,0.985,1,1,1,1
			s11.624,0,13,0c0.995,0,1-1,1-1s0-9.666,0-11C15,2.012,14,2,14,2z M14,13c0,1.051-1.004,1.045-0.999,1c0,0-10.351,0-11,0
			c-0.993,0-1-1-1-1s0-8.289,0-9c0-0.712,0.556-0.667,0.556-0.667c0.189,0,0.4,1.666,1.889,1.666h1C5.948,4.999,5.737,4,6.001,4H9
			c0.233,0,0.154,0.999,1.556,0.999h1c1.77,0,1.82-1.666,2.001-1.666c0.48,0,0.477,0.452,0.477,0.452S14,12.908,14,13z
			 M11.054,3.001c0.398,0,0.722-0.27,0.722-0.601v-0.8C11.775,1.269,11.452,1,11.054,1s-0.722,0.269-0.722,0.601v0.8
			C10.332,2.731,10.655,3.001,11.054,3.001z M6.001,8.999H9V6H6.001V8.999z M10,8.999h3.001V6H10V8.999z M11,7h1v1h-1V7z"/>
	</g>
</g>
<path id="left_arrow_down" d="M4,7l3,3h1l3-3V6h-1L8,8H7L5,6H4V7z"/>
<path id="left_arrow_right" d="M7,11l3-3V7L7,4H6v1l2,2v1l-2,2v1H7z"/>
<g id="sum_table">
	<g>
		<path fill-rule="evenodd" clip-rule="evenodd" d="M13.001,2H2C0.896,2,0,2.895,0,4v9c0,1.104,0.896,2,2,2h11
			C14.104,15,15,14.104,15,13V4C15,2.895,14.104,2,13.001,2z M5,14H1v-2h4V14z M5,10.999H1V9h4V10.999z M5,8H1V6h4V8z M9,14H6v-2h3
			V14z M9,10.999H6V9h3V10.999z M9,8H6V6h3V8z M14,14h-4v-2h4V14z M14,10.999h-4V9h4V10.999z M14,8h-4V6h4V8z"/>
	</g>
</g>
<g id="sum_pie">
	<g>
		<path fill-rule="evenodd" clip-rule="evenodd" d="M6.735,9.265c-0.06,0,0.766-6.118,0.765-6.118C3.832,2.775,1,5.797,1,9.071
			C1,12.346,3.655,15,6.929,15c3.273,0,6.087-2.716,5.925-6.5C12.849,8.38,6.784,9.265,6.735,9.265z M8.981,2
			C8.947,2,8.338,7.735,8.265,7.735C8.272,7.735,14,7.05,14,7.019C14,4.303,11.697,2,8.981,2z"/>
	</g>
</g>
<g id="sum_list">
	<g>
		<path fill-rule="evenodd" clip-rule="evenodd" d="M3.5,6h8c0.276,0,0.5-0.224,0.5-0.5c0-0.276-0.224-0.5-0.5-0.5h-8
			C3.224,5,3,5.224,3,5.5C3,5.776,3.224,6,3.5,6z M3.5,10h8c0.276,0,0.5-0.225,0.5-0.5c0-0.276-0.224-0.5-0.5-0.5h-8
			C3.224,9,3,9.224,3,9.5C3,9.775,3.224,10,3.5,10z M3.5,8h8c0.276,0,0.5-0.224,0.5-0.5c0-0.276-0.224-0.5-0.5-0.5h-8
			C3.224,7,3,7.224,3,7.5C3,7.776,3.224,8,3.5,8z M13.001,2H2C0.896,2,0,2.896,0,4v9c0,1.104,0.896,2,2,2h11
			C14.104,15,15,14.104,15,13V4C15,2.896,14.104,2,13.001,2z M14,14H1V3h13V14z M3.5,12h8c0.276,0,0.5-0.225,0.5-0.5
			s-0.224-0.5-0.5-0.5h-8C3.224,11,3,11.225,3,11.5S3.224,12,3.5,12z"/>
	</g>
</g>
<g id="sum_line">
	<g>
		<path fill-rule="evenodd" clip-rule="evenodd" d="M3.105,11.857c0.61,0,1.104-0.513,1.104-1.144c0-0.183-0.051-0.35-0.125-0.503
			l1.263-1.775c0.011,0,0.021,0.007,0.032,0.007c0.065,0,0.123-0.027,0.185-0.039l2.011,3.05c-0.047,0.126-0.079,0.261-0.079,0.404
			C7.497,12.488,7.992,13,8.603,13c0.609,0,1.104-0.512,1.104-1.143c0-0.125-0.033-0.239-0.068-0.352l2.387-4.247
			c0.546-0.069,0.976-0.532,0.976-1.116C13.001,5.511,12.506,5,11.896,5c-0.609,0-1.105,0.512-1.105,1.144
			c0,0.233,0.084,0.437,0.2,0.618L8.73,10.74c-0.044-0.005-0.082-0.026-0.128-0.026c-0.03,0-0.056,0.016-0.085,0.018l-2.092-3.17
			c0.02-0.085,0.05-0.166,0.05-0.257c0-0.63-0.49-1.14-1.095-1.14c-0.605,0-1.096,0.51-1.096,1.14c0,0.154,0.031,0.299,0.084,0.433
			L3.057,9.581C2.47,9.608,2,10.101,2,10.714C2,11.345,2.495,11.857,3.105,11.857z M13.001,2H2C0.896,2,0,2.896,0,4v9
			c0,1.104,0.896,2,2,2h11C14.104,15,15,14.104,15,13V4C15,2.896,14.104,2,13.001,2z M14,14H1V3h13V14z"/>
	</g>
</g>
<g id="sum_bar">
	<g>
		<path fill-rule="evenodd" clip-rule="evenodd" d="M8.625,5h-2.25v8h2.25V5z M13.001,2H2C0.896,2,0,2.896,0,4v9
			c0,1.104,0.896,2,2,2h11C14.104,15,15,14.104,15,13V4C15,2.896,14.104,2,13.001,2z M14,14H1V3h13V14z M5,9H3v4h2V9z M12.001,7H10
			v6h2.001V7z"/>
	</g>
</g>
<g id="left_hide">
	<g>
		<path fill-rule="evenodd" clip-rule="evenodd" d="M2,4.5h12.001C14.553,4.5,15,4.164,15,3.75S14.553,3,14.001,3H2
			C1.448,3,1,3.336,1,3.75S1.448,4.5,2,4.5z M14.001,7.75H2c-0.552,0-1,0.336-1,0.75s0.448,0.75,1,0.75h12.001
			C14.553,9.25,15,8.914,15,8.5S14.553,7.75,14.001,7.75z M14.001,12.5H2c-0.552,0-1,0.336-1,0.75S1.448,14,2,14h12.001
			C14.553,14,15,13.664,15,13.25S14.553,12.5,14.001,12.5z"/>
	</g>
</g>
	<g id="head_org">
	<g>
		<path fill-rule="evenodd" clip-rule="evenodd" d="M3.347,7.007h0.666c0.212,0,0.283-0.065,0.343,0.138l0.268,0.644
			c0.099,0.188,0.002,0.191-0.147,0.341L4.005,8.602C3.932,8.675,3.943,8.802,3.99,8.93c1.023-0.467,1.311-0.522,1.903-0.807
			c-1.167-1.17-1.167-3.067,0.001-4.238c1.167-1.17,3.06-1.17,4.227,0c1.168,1.171,1.167,3.067,0,4.238
			C9.883,8.361,9.615,8.551,9.33,8.692c1.203,0.471,1.66,0.34,2.117,0.942c0.158-0.158,0.361-0.362,0.361-0.362
			c0.149-0.148,0.349-0.521,0.199-0.671l-0.471-0.473c-0.149-0.149-0.244-0.152-0.146-0.34l0.269-0.644
			c0.061-0.203,0.131-0.139,0.342-0.139h0.665C12.879,7.006,13,6.603,13,6.392V5.621c0-0.213-0.121-0.617-0.334-0.617h-0.665
			c-0.21,0-0.281,0.065-0.343-0.138l-0.268-0.644c-0.098-0.188,0.233-0.428,0.382-0.577l0.235-0.235
			c0.149-0.15-0.049-0.521-0.199-0.672l-0.543-0.545c-0.149-0.149-0.521-0.349-0.67-0.199l-0.471,0.472
			c-0.149,0.149-0.152,0.246-0.34,0.147L9.143,2.345C8.941,2.283,9.006,2.212,9.006,2.001V1.333c0-0.212-0.403-0.334-0.615-0.334
			L7.623,1C7.411,1,7.009,1.121,7.008,1.333v0.668C7.009,2.212,7.072,2.284,6.87,2.346L6.229,2.613
			C6.042,2.712,6.038,2.615,5.888,2.466L5.417,1.994c-0.149-0.149-0.521,0.05-0.669,0.199L4.205,2.737
			C4.055,2.888,3.856,3.26,4.005,3.41l0.471,0.472c0.15,0.149,0.246,0.153,0.147,0.341L4.356,4.866
			C4.294,5.069,3.891,5.005,3.68,5.004H3.347C3.135,5.005,3.014,5.408,3.014,5.62v0.771C3.014,6.603,3.135,7.007,3.347,7.007z
			 M14.535,11.927c-0.143,0-0.381,0.145-0.381,0.145s-2.801,1.213-3.342,1.493c-0.542,0.28-1.523-0.386-1.523-0.386
			s-2.121-0.999-2.156-1.011c-0.036-0.013,0.035-0.193,0.507-0.193c0.674,0,1.833,0.303,1.946,0.289
			c0.076-0.009,0.463-0.005,0.635-0.289c0.084-0.141,0.286-0.566,0.041-0.674c-0.264-0.117-0.855-0.373-1.142-0.482
			C7.902,10.354,7.055,10,6.244,10c-1.001,0-1.448,0.288-2.285,0.723c-0.235,0.122-0.362,0.272-0.465,0.385
			C3.23,11.395,3.283,11.59,3.283,11.59l-0.296,3.034c-0.039,0.427,0.381,0.481,0.381,0.481s4.439,0.652,6.387,0.867
			c0.549,0.061,0.574,0.005,0.634,0c0.274-0.022,4.153-2.94,4.273-3.034C14.781,12.845,15,12.77,15,12.408
			S14.676,11.927,14.535,11.927z M1,11c0,0-1-0.049-1,1c0,1.186,0,2,0,2s-0.007,1,1,1c0.976,0,1-1,1-1s0-1.618,0-2
			C2,11.056,1,11,1,11z"/>
	</g>
</g>
</svg>
