<svg version="1.1" xmlns="http://www.w3.org/2000/svg" xmlns:xlink="http://www.w3.org/1999/xlink" x="0px" y="0px" width="12px"
	 height="12px" viewBox="0 0 12 12" enable-background="new 0 0 12 12" xml:space="preserve">
<g id="network-hint">
	<g id="_x32_">
		<circle fill-rule="evenodd" clip-rule="evenodd" fill="#FFFFFF" cx="6" cy="6" r="6"/>
	</g>
	<g id="_x31_">
		<g>
			<g>
				<path fill-rule="evenodd" clip-rule="evenodd" fill="#EF6868" d="M9.534,2.464c-1.952-1.953-5.117-1.953-7.07,0
					c-1.952,1.953-1.952,5.12,0,7.073c1.952,1.951,5.118,1.951,7.07,0C11.488,7.584,11.488,4.417,9.534,2.464z M6.032,10
					c-0.543,0-0.984-0.445-0.984-0.996s0.44-0.996,0.984-0.996c0.544,0,0.985,0.445,0.985,0.996S6.576,10,6.032,10z M6.384,7.013
					h-0.77c0,0-0.77-2.221-0.77-3.092c0-0.949,0.387-1.328,0.387-1.328S5.425,2.153,6,2.153c0.566,0,0.775,0.439,0.775,0.439
					S7.152,2.967,7.152,3.92C7.152,4.781,6.384,7.013,6.384,7.013z"/>
			</g>
		</g>
	</g>
</g>
</svg>
