<svg version="1.1" id="_x31_" xmlns="http://www.w3.org/2000/svg" xmlns:xlink="http://www.w3.org/1999/xlink" x="0px" y="0px"
	 width="600px" height="600px" viewBox="0 0 64 64" enable-background="new 0 0 64 64" xml:space="preserve">
<g id="icon-site">
	<g>
		<path fill-rule="evenodd" clip-rule="evenodd" d="M26.943,21.581c-0.559,0-0.668,0.669-0.668,0.669
			c0,0.37,0.299,0.669,0.668,0.669h10.056c0.369,0,0.668-0.3,0.668-0.669c0,0,0.006-0.669-0.668-0.669
			c-3.948,0-3.069-2.706-3.123-2.706c0.274,0-3.53-0.025-3.801,0C30.039,18.878,30.915,21.581,26.943,21.581z M24.462,18.82H39.5
			c2.296,0,2.469-2.814,2.469-2.589v-9.64c0.119,0.163,0.066-2.589-2.469-2.589H24.462c-0.024,0-2.469-0.132-2.469,2.589v9.603
			C21.995,16.202,22.093,18.82,24.462,18.82z M23.989,8.046c0-1.111,0.962-2.021,2.002-2.021h12.012c1.02,0,2.001,0.994,2.001,2.021
			v6.735c0,1.132-0.96,2.021-2.001,2.021H25.991c-1.02,0-2.002-0.994-2.002-2.021V8.046z M12.042,32.941h18.964v7.015h2v-7.015
			h19.996v7.015h1.999v-9.02H33.006v-6.013h-2v6.013H10.01v9.02h2L12.042,32.941z M36.999,59.663c-3.948,0-3.069-2.703-3.123-2.703
			c0.274,0-3.53-0.025-3.801,0c-0.037,0.004,0.839,2.703-3.132,2.703c-0.559,0-0.668,0.669-0.668,0.669
			c0,0.369,0.299,0.668,0.668,0.668h10.056c0.369,0,0.668-0.299,0.668-0.668C37.667,60.332,37.673,59.663,36.999,59.663z
			 M58.247,59.663c-3.75,0-2.915-2.703-2.967-2.703c0.262,0-3.351-0.025-3.607,0c-0.034,0.004,0.797,2.703-2.976,2.703
			c-0.53,0-0.635,0.669-0.635,0.669c0,0.369,0.285,0.668,0.635,0.668h9.55c0.351,0,0.635-0.299,0.635-0.668
			C58.882,60.332,58.887,59.663,58.247,59.663z M39.5,42.102H24.462c-0.024,0-2.469-0.133-2.469,2.587v9.593
			c0.002,0.009,0.101,2.624,2.469,2.624H39.5c2.296,0,2.469-2.812,2.469-2.587v-9.63C42.088,44.851,42.035,42.102,39.5,42.102z
			 M40.004,52.87c0,1.132-0.96,2.02-2.001,2.02H25.991c-1.02,0-2.002-0.994-2.002-2.02v-6.729c0-1.109,0.962-2.019,2.002-2.019
			h12.012c1.02,0,2.001,0.993,2.001,2.019V52.87z M17.655,42.102H3.349C3.326,42.102,1,41.971,1,44.648v9.447
			c0.002,0.009,0.096,2.584,2.349,2.584h14.306c2.185,0,2.349-2.771,2.349-2.548v-9.483C20.117,44.809,20.067,42.102,17.655,42.102z
			 M18.135,52.706c0,1.113-0.915,1.987-1.905,1.987H4.804c-0.97,0-1.905-0.978-1.905-1.987V46.08c0-1.094,0.915-1.988,1.905-1.988
			H16.23c0.97,0,1.905,0.979,1.905,1.988V52.706z M60.622,42.102h-14.28c-0.023,0-2.346-0.133-2.346,2.587v9.593
			c0.003,0.01,0.096,2.624,2.346,2.624h14.28c2.182,0,2.346-2.812,2.346-2.587v-9.63C63.081,44.851,63.03,42.102,60.622,42.102z
			 M61.103,52.87c0,1.132-0.914,2.02-1.901,2.02H47.793c-0.968,0-1.901-0.994-1.901-2.02v-6.729c0-1.109,0.913-2.019,1.901-2.019
			h11.408c0.968,0,1.901,0.993,1.901,2.019V52.87z M15.444,59.647c-3.793,0-2.948-2.726-3-2.726c0.264,0-3.391-0.025-3.651,0
			c-0.035,0.004,0.807,2.726-3.009,2.726c-0.537,0-0.642,0.674-0.642,0.674c0,0.372,0.288,0.675,0.642,0.675h9.661
			c0.354,0,0.642-0.303,0.642-0.675C16.085,60.321,16.091,59.647,15.444,59.647z"/>
	</g>
</g>
<g id="icon-networks">
	<g>
		<path fill-rule="evenodd" clip-rule="evenodd" d="M32.5,2C15.655,2,2,15.655,2,32.499C2,49.344,15.655,63,32.5,63
			C49.345,63,63,49.344,63,32.499C63,15.655,49.345,2,32.5,2z M57.231,21.423c-1.182-1.052-2.76-2.229-4.765-3.3
			c0-0.012,0.004-0.023,0.004-0.035c0-1.633-1.171-2.988-2.715-3.276c-0.192-1.255-0.437-2.523-0.759-3.809
			C52.537,13.724,55.382,17.302,57.231,21.423z M44.547,35.94c-1.522,3.1-3.627,6.174-6.517,9.075
			c-1.476,1.482-2.986,2.749-4.493,3.836c-0.58-0.491-1.322-0.799-2.143-0.799c-0.256,0-0.503,0.035-0.743,0.09
			c-3.392-4.572-6.287-10.916-7.01-19.582c-0.218-2.613-0.153-5.047,0.089-7.301c0.313,0.098,0.641,0.167,0.987,0.167
			c0.943,0,1.79-0.397,2.395-1.03c5.856,1.625,12.003,4.926,17.153,11.224c-0.424,0.555-0.686,1.239-0.686,1.99
			C43.58,34.519,43.95,35.342,44.547,35.94z M28.688,18.585c3.726-1.26,7.875-1.893,12.457-1.461
			c1.618,0.099,3.182,0.418,4.685,0.869c-0.001,0.032-0.01,0.063-0.01,0.095c0,1.464,0.944,2.694,2.251,3.144
			c-0.084,2.858-0.482,5.94-1.378,9.091c-0.196,0.013-0.388,0.037-0.574,0.082C41.558,24.896,35.641,20.743,28.688,18.585z
			 M32.5,5.397c5.235,0,10.121,1.488,14.264,4.059c0.376,1.491,0.758,3.407,1.019,5.594c-0.42,0.19-0.787,0.467-1.093,0.805
			c-1.627-0.436-3.409-0.768-5.369-0.933c-4.652-0.391-9.294,0.104-13.73,1.512c-0.524-0.915-1.461-1.548-2.562-1.652
			c1.227-4.181,2.937-7.321,4.141-9.173C30.262,5.475,31.371,5.397,32.5,5.397z M26.785,6.006c-0.682,1.086-2.617,4.444-3.97,9.349
			c-0.604,0.425-1.049,1.048-1.268,1.773c-3.694-0.374-7.609-0.219-11.709,0.534C13.681,11.81,19.714,7.524,26.785,6.006z
			 M5.397,32.499c0-4.647,1.187-9.011,3.249-12.833c2.752-0.494,7.281-1.011,12.496-0.428c-5.619,3.168-10.678,8.066-14.661,14.917
			l-0.9,1.429C5.466,34.57,5.397,33.543,5.397,32.499z M6.068,38.457c1.204-2.133,6.501-10.844,15.52-16.498
			c-0.206,2.12-0.256,4.388-0.056,6.791c0.684,8.191,2.325,15.46,6.818,21.284c-0.18,0.406-0.283,0.854-0.283,1.326
			c0,0.238,0.028,0.47,0.076,0.693c-4.203,2.017-8.001,2.82-10.473,3.128C11.877,51.386,7.635,45.428,6.068,38.457z M32.5,59.602
			c-4.412,0-8.573-1.061-12.254-2.931c1.886-0.332,5.171-1.116,8.924-2.866c0.59,0.532,1.366,0.865,2.225,0.865
			c0.445,0,0.868-0.091,1.255-0.248c1.948,1.578,4.231,3,6.912,4.244C37.31,59.272,34.943,59.602,32.5,59.602z M42.09,57.85
			c-1.813-0.905-4.654-2.597-7.58-5.364c0.128-0.353,0.21-0.729,0.21-1.125c0-0.244-0.03-0.479-0.081-0.708
			c1.655-1.148,3.316-2.492,4.919-4.102c2.836-2.849,5.187-6.1,6.96-9.671c0.129,0.016,0.256,0.039,0.39,0.039
			c0.329,0,0.642-0.063,0.941-0.151c3.269,5.581,4.388,10.65,4.752,13.88C49.739,53.813,46.154,56.311,42.09,57.85z M49.694,35.403
			c0.337-0.518,0.537-1.132,0.537-1.794c0-1.109-0.554-2.086-1.396-2.686c0.883-3.067,1.374-6.309,1.402-9.697
			c0.479-0.168,0.912-0.43,1.263-0.783c3.037,1.723,5.547,3.79,7.269,5.395c0.54,2.131,0.833,4.361,0.833,6.66
			c0,5.893-1.888,11.339-5.082,15.784C54.173,45.652,53.076,40.927,49.694,35.403z"/>
	</g>
</g>
<g id="icon-access">
	<g>
		<path fill-rule="evenodd" clip-rule="evenodd" d="M23.038,30.935l2.793-2.601c-1.462-1.176-2.793-4.119-2.793-6.069
			c0-2.148,1.068-4.904,2.793-6.068l-2.793-2.601c-2.256,1.9-3.723,5.599-3.723,8.669C19.315,25.376,20.729,29.032,23.038,30.935z
			 M32.508,27.794c2.619,0,4.744-2.045,4.744-4.567c0-2.522-2.125-4.568-4.744-4.568c-2.62,0-4.744,2.045-4.744,4.568
			C27.764,25.749,29.888,27.794,32.508,27.794z M39.167,28.333l2.793,2.601c2.309-1.902,3.724-5.558,3.724-8.67
			c0-3.07-1.468-6.769-3.724-8.669l-2.793,2.601c1.725,1.164,2.793,3.92,2.793,6.068C41.96,24.215,40.629,27.157,39.167,28.333z
			 M17.992,36.74l2.93-2.555c-3.65-2.78-5.925-7.842-5.899-11.857c0.025-4.092,2.147-9.044,5.899-11.985l-2.93-2.554
			c-4.227,3.352-6.837,9.414-6.837,14.475C11.155,27.234,13.885,33.625,17.992,36.74z M58.131,22.329
			c0,4.553-2.116,13.925-7.53,17.647l2.93,2.555C61.506,34.535,62,27.234,62,22.265C62,17.204,60.88,9.397,53.53,2l-2.93,2.554
			C55.797,9.066,58.131,16.931,58.131,22.329z M49.976,22.329c0.025,4.015-2.249,9.077-5.899,11.857l2.931,2.555
			c4.107-3.115,6.837-9.506,6.837-14.476c0-5.061-2.61-11.123-6.837-14.475l-2.931,2.554C47.828,13.284,49.95,18.236,49.976,22.329z
			 M14.397,39.976c-5.414-3.722-7.53-13.094-7.53-17.647c0-5.397,2.334-13.262,7.53-17.774L11.468,2C4.118,9.397,3,17.204,3,22.265
			c0,4.97,0.492,12.271,8.468,20.266L14.397,39.976z M53.57,47.517H34.466l-0.007-16.533l-3.927-0.019v16.552H11.428
			c-2.328,0-4.214,1.853-4.214,4.139v6.206C7.214,60.146,9.1,62,11.428,62H53.57c2.327,0,4.214-1.854,4.214-4.139v-6.206
			C57.784,49.369,55.897,47.517,53.57,47.517z M55.678,57.861c0,1.144-0.943,2.069-2.107,2.069H11.429
			c-1.164,0-2.107-0.926-2.107-2.069v-6.206c0-1.144,0.943-2.069,2.107-2.069H53.57c1.164,0,2.107,0.926,2.107,2.069V57.861z
			 M40.928,55.792h4.215v-4.137h-4.215V55.792z M47.249,55.792h4.214v-4.137h-4.214V55.792z M15.643,51.655
			c-1.396,0-2.107,0.164-2.107,2.068v2.068c0,1.904,0.711,2.069,2.107,2.069c1.396,0,2.106-0.165,2.106-2.069v-2.068
			C17.749,51.819,17.038,51.655,15.643,51.655z M34.605,55.792h4.215v-4.137h-4.215V55.792z"/>
	</g>
</g>
<g id="icon-clients">
	<g>
		<path fill-rule="evenodd" clip-rule="evenodd" d="M62.342,36.365c-1.192-3.225-7.781-4.026-7.781-4.026s-4.57,3.189-6.179,4.312
			c1.483,2.057,1.499,9.088,1.55,14.943C54.097,49.866,63,46.17,63,46.17S63.021,38.2,62.342,36.365z M24.046,30
			C29.513,30,34.345,20.731,34.345,13S33.105,2,24.538,2C16.412,2,13.75,5.268,13.75,13S18.36,30,24.046,30z M54.426,19.591
			c0-5.188-0.833-7.38-6.596-7.38c-5.466,0-7.256,2.192-7.256,7.38s3.101,11.406,6.925,11.406
			C51.176,30.997,54.426,24.778,54.426,19.591z M34.545,32l-10.007,7L13.58,32c-1.52,0.079-9.746,2.028-11.599,6
			C1.07,39.951,1,52.616,1,52.616L24.538,62l22.556-9.384c0,0,0.029-11.879-0.98-14.616C44.342,33.195,34.545,32,34.545,32z"/>
	</g>
</g>
</svg>
