<svg version="1.1" id="_x31_" xmlns="http://www.w3.org/2000/svg" xmlns:xlink="http://www.w3.org/1999/xlink" x="0px" y="0px"
	 width="32px" height="32px" viewBox="0 0 32 32" enable-background="new 0 0 32 32" xml:space="preserve">
<g id="offline">
	<g>
		<path fill-rule="evenodd" clip-rule="evenodd" d="M15.36,29.17c-0.428,0-0.854-0.041-1.323-0.127
			c-1.193-1.578-2.218-3.455-2.984-5.373c1.029-0.363,2.082-0.619,3.093-0.768c-0.36-0.89-0.111-0.608,0.038-1.314
			c-1.141,0.189-2.361,0.555-3.559,1.059c-0.768-2.046-1.236-4.093-1.322-6.012h6.058c0,0,0,0.832,0,1.803
			c0.758-1.545,1.279-1.803,1.279-1.803s0.218-0.674,1.992-1.279c-1.101,0-1.992,0-1.992,0v-4.817
			c1.45-0.086,3.113-0.512,4.734-1.194c0.588,1.534,1.001,3.068,1.2,4.604c0.448-0.525,0.839-0.166,1.268,0.006
			c-0.217-1.542-0.669-3.288-1.315-5.036c1.279-0.555,2.431-1.15,3.326-1.791c1.963,2.174,3.157,5.032,3.285,8.229
			c0,0-0.217,0-0.56,0c1.482,0.553,1.672,1.236,2.307,2.542C30.961,17.274,31,16.64,31,15.996C31,7.615,24.383,1,16,1
			C7.618,1,1,7.615,1,15.996C1,24.374,7.618,30.99,16,30.99c0.438,0,1.132,0.043,1.298-0.053C15.64,30.227,15.36,29.17,15.36,29.17z
			 M24.957,6.23c-0.768,0.555-1.749,1.109-2.857,1.578c-0.64-1.62-1.493-3.198-2.431-4.478C21.673,3.842,23.465,4.866,24.957,6.23z
			 M16.64,2.819c0.427,0,0.854,0.042,1.321,0.127c1.153,1.578,2.22,3.369,3.028,5.33c-1.406,0.512-2.941,0.853-4.35,0.938V2.819z
			 M15.36,15.355H9.303c0.086-2.004,0.555-4.008,1.322-6.012c1.621,0.683,3.285,1.108,4.735,1.194V15.355z M15.36,2.819v6.396
			c-1.407-0.085-2.943-0.427-4.351-0.938c0.81-1.961,1.877-3.752,3.027-5.33C14.507,2.861,14.933,2.819,15.36,2.819z M12.332,3.331
			C11.394,4.61,10.539,6.188,9.9,7.808C8.791,7.339,7.81,6.785,7.042,6.23C8.535,4.866,10.327,3.842,12.332,3.331z M6.146,7.126
			c0.896,0.64,2.047,1.236,3.327,1.791c-0.853,2.302-1.364,4.604-1.45,6.438H2.861C2.99,12.158,4.185,9.3,6.146,7.126z
			 M2.861,16.634h5.162c0.043,1.792,0.555,4.136,1.45,6.438c-1.28,0.555-2.432,1.151-3.327,1.791
			C4.185,22.689,2.99,19.833,2.861,16.634z M7.042,25.76c0.811-0.598,1.792-1.152,2.901-1.621c0.596,1.621,1.407,3.156,2.389,4.478
			C10.327,28.147,8.535,27.124,7.042,25.76z M18.19,18.19c-2.93,2.926-2.931,7.671,0,10.597c2.93,2.928,7.679,2.928,10.609,0
			c2.931-2.926,2.931-7.671,0-10.597C25.869,15.263,21.12,15.263,18.19,18.19z M28.004,26.501L26.503,28l-3.002-2.997L20.499,28
			l-1.502-1.499l3.002-2.997l-3.002-2.997l1.502-1.498l3.002,2.997l3.002-2.997l1.501,1.498l-3.002,2.997L28.004,26.501z"/>
	</g>
</g>
<g id="online">
	<g>
		<path fill-rule="evenodd" clip-rule="evenodd" d="M23.499,15.991c-4.144,0-7.501,3.358-7.501,7.5c0,4.143,3.357,7.501,7.501,7.501
			c4.143,0,7.501-3.358,7.501-7.501C31,19.349,27.642,15.991,23.499,15.991z M22.999,27.992c0.021,0.101-3.999-3-3.999-3l0.999-2
			l3,2c0,0,4.134-4.874,4.18-5.008c0,0.119,1.862,1.316,1.821,1.359C29.098,21.243,23.032,28.085,22.999,27.992z M15.359,29.17
			c-0.427,0-0.853-0.041-1.323-0.127c-1.193-1.578-2.218-3.455-2.985-5.373c1.03-0.363,2.082-0.619,3.093-0.768
			c-0.361-0.89-0.111-0.608,0.038-1.314c-1.14,0.189-2.361,0.555-3.558,1.059c-0.768-2.046-1.236-4.093-1.322-6.012h6.057
			c0,0,0,0.832,0,1.803c0.758-1.545,1.279-1.803,1.279-1.803s0.218-0.673,1.993-1.279c-1.1,0-1.993,0-1.993,0v-4.818
			c1.45-0.085,3.114-0.512,4.734-1.194c0.588,1.535,1.002,3.069,1.201,4.603c0.447-0.525,0.838-0.166,1.266,0.007
			c-0.217-1.542-0.668-3.289-1.314-5.037c1.279-0.555,2.433-1.15,3.327-1.791c1.961,2.174,3.156,5.032,3.283,8.229
			c0,0-0.215,0-0.559,0c1.483,0.552,1.672,1.236,2.308,2.542c0.076-0.623,0.115-1.257,0.115-1.902c0-8.38-6.617-14.995-15-14.995
			C7.617,1,1,7.615,1,15.995C1,24.374,7.617,30.99,15.999,30.99c0.438,0,1.131,0.043,1.297-0.053
			C15.638,30.227,15.359,29.17,15.359,29.17z M24.957,6.23c-0.77,0.555-1.751,1.109-2.86,1.578c-0.639-1.62-1.49-3.198-2.43-4.478
			C21.672,3.842,23.463,4.866,24.957,6.23z M16.638,2.819c0.426,0,0.854,0.042,1.323,0.127c1.152,1.578,2.219,3.369,3.027,5.33
			c-1.407,0.512-2.941,0.853-4.35,0.938V2.819z M15.359,15.355H9.302c0.086-2.004,0.555-4.008,1.322-6.012
			c1.621,0.682,3.284,1.108,4.734,1.194V15.355z M15.359,2.819v6.396c-1.407-0.085-2.943-0.427-4.351-0.938
			c0.81-1.961,1.877-3.752,3.028-5.33C14.506,2.861,14.932,2.819,15.359,2.819z M12.331,3.331C11.393,4.61,10.539,6.188,9.9,7.808
			C8.791,7.339,7.809,6.785,7.041,6.23C8.534,4.866,10.327,3.842,12.331,3.331z M6.146,7.126c0.896,0.64,2.047,1.236,3.327,1.791
			c-0.853,2.303-1.364,4.605-1.45,6.439H2.861C2.99,12.158,4.184,9.3,6.146,7.126z M2.861,16.634h5.161
			c0.043,1.792,0.554,4.136,1.45,6.438c-1.28,0.555-2.432,1.151-3.327,1.791C4.184,22.689,2.99,19.833,2.861,16.634z M7.041,25.76
			c0.811-0.598,1.792-1.152,2.901-1.621c0.596,1.621,1.407,3.156,2.389,4.478C10.327,28.147,8.534,27.124,7.041,25.76z"/>
	</g>
</g>
<g id="unknown">
	<g>
		<path fill-rule="evenodd" clip-rule="evenodd" d="M15.359,29.171c-0.427,0-0.853-0.043-1.323-0.128
			c-1.193-1.578-2.218-3.454-2.985-5.374c1.029-0.363,2.082-0.619,3.093-0.768c-0.361-0.889-0.111-0.607,0.037-1.313
			c-1.14,0.19-2.361,0.554-3.557,1.058c-0.768-2.046-1.237-4.094-1.323-6.011h6.057c0,0,0,0.831,0,1.802
			c0.758-1.544,1.279-1.802,1.279-1.802s0.218-0.674,1.992-1.28c-1.101,0-1.992,0-1.992,0v-4.818
			c1.449-0.085,3.113-0.512,4.733-1.194c0.588,1.535,1.002,3.069,1.201,4.603c0.447-0.525,0.838-0.166,1.267,0.007
			c-0.217-1.542-0.669-3.289-1.315-5.037c1.28-0.555,2.433-1.151,3.327-1.79c1.961,2.174,3.157,5.031,3.284,8.229
			c0,0-0.215,0-0.559,0c1.482,0.552,1.671,1.236,2.307,2.541c0.076-0.621,0.115-1.256,0.115-1.901c0-8.38-6.617-14.995-15-14.995
			C7.618,1,1,7.615,1,15.995C1,24.374,7.618,30.99,15.999,30.99c0.438,0,1.131,0.044,1.297-0.054
			C15.639,30.227,15.359,29.171,15.359,29.171z M24.957,6.23c-0.769,0.555-1.751,1.109-2.86,1.578
			c-0.639-1.62-1.49-3.198-2.429-4.477C21.672,3.842,23.463,4.866,24.957,6.23z M16.639,2.819c0.427,0,0.854,0.042,1.322,0.128
			c1.152,1.578,2.219,3.369,3.027,5.33c-1.406,0.512-2.941,0.853-4.35,0.938V2.819z M15.359,15.355H9.302
			c0.086-2.004,0.555-4.008,1.323-6.012c1.62,0.682,3.284,1.108,4.734,1.194V15.355z M15.359,2.819v6.396
			c-1.408-0.085-2.943-0.426-4.351-0.938c0.81-1.961,1.877-3.752,3.028-5.33C14.506,2.861,14.933,2.819,15.359,2.819z M12.332,3.331
			C11.393,4.61,10.539,6.188,9.9,7.808C8.791,7.339,7.809,6.785,7.041,6.23C8.535,4.866,10.327,3.842,12.332,3.331z M6.146,7.126
			c0.896,0.639,2.047,1.235,3.327,1.79c-0.853,2.303-1.363,4.605-1.449,6.439H2.862C2.991,12.158,4.184,9.3,6.146,7.126z
			 M2.862,16.635h5.161c0.043,1.791,0.554,4.136,1.449,6.438c-1.279,0.554-2.431,1.15-3.327,1.79
			C4.184,22.688,2.991,19.832,2.862,16.635z M7.041,25.76c0.811-0.598,1.792-1.151,2.901-1.621c0.597,1.621,1.407,3.155,2.389,4.478
			C10.327,28.147,8.535,27.124,7.041,25.76z M23.5,15.995c-4.143,0-7.501,3.356-7.501,7.498c0,4.141,3.358,7.498,7.501,7.498
			c4.142,0,7.5-3.357,7.5-7.498C31,19.352,27.642,15.995,23.5,15.995z M24.463,28.985h-1.868v-1.896h1.868V28.985z M26.646,23.02
			c-0.232,0.374-0.729,0.882-1.492,1.525c-0.395,0.333-0.639,0.601-0.734,0.804c-0.096,0.201-0.139,0.564-0.129,1.086h-1.696
			c-0.005-0.248-0.008-0.398-0.008-0.452c0-0.558,0.092-1.017,0.273-1.377s0.545-0.765,1.091-1.214
			c0.545-0.451,0.871-0.745,0.978-0.885c0.164-0.221,0.246-0.463,0.246-0.728c0-0.369-0.146-0.686-0.436-0.948
			c-0.29-0.264-0.682-0.396-1.173-0.396c-0.476,0-0.872,0.138-1.191,0.412s-0.538,0.693-0.658,1.255l-1.715-0.217
			c0.049-0.804,0.387-1.487,1.013-2.05c0.628-0.563,1.451-0.844,2.471-0.844c1.073,0,1.927,0.284,2.56,0.854
			c0.635,0.568,0.951,1.231,0.951,1.986C26.996,22.251,26.88,22.646,26.646,23.02z"/>
	</g>
</g>
<g id="step1">
	<g>
		<path fill-rule="evenodd" clip-rule="evenodd" d="M2.587,6.603c0,0,0.868,6.918-1.263,9.845c0,0-1.397,2.701,1.607,1.893
			c0,0,1.664-0.97,2.222-5.678c0,0,4.044,11.604,17.133,13.25c0,0,1.751,0.323,5.868-0.27c0,0,2.971,0.12,2.842-1.903
			c-0.109-1.702-2.842-0.952-2.842-0.952s-5.664,1.802-11.675-1.608c-5.333-3.024-7.388-5.729-8.71-9.463c0,0,5.205,1.338,6.181-0.353
			c0.837-1.029-0.277-1.487-1.341-1.54C7.452,9.614,6.098,7.991,4.48,6.603C3.203,5.247,2.587,6.603,2.587,6.603z"/>
	</g>
</g>
<g id="step2">
	<g>
		<path fill-rule="evenodd" clip-rule="evenodd" d="M29.413,6.603c0,0-0.868,6.918,1.263,9.845c0,0,1.396,2.701-1.606,1.893
			c0,0-1.664-0.97-2.222-5.678c0,0-4.045,11.604-17.134,13.25c0,0-1.751,0.323-5.868-0.27c0,0-2.971,0.12-2.841-1.903
			c0.109-1.702,2.841-0.952,2.841-0.952s5.664,1.802,11.675-1.608c5.334-3.024,7.388-5.729,8.71-9.463c0,0-5.205,1.338-6.181-0.353
			c-0.837-1.029,0.276-1.487,1.341-1.54c5.157-0.209,6.511-1.832,8.129-3.22C28.797,5.247,29.413,6.603,29.413,6.603z"/>
	</g>
</g>
<g id="confirm">
	<g>
		<path d="M16.5,2C8.492,2,2,8.492,2,16.5C2,24.509,8.492,31,16.5,31C24.508,31,31,24.509,31,16.5C31,8.492,24.508,2,16.5,2z
			 M16.5,29.155c-6.989,0-12.655-5.666-12.655-12.655S9.511,3.845,16.5,3.845S29.155,9.511,29.155,16.5S23.489,29.155,16.5,29.155z
			 M17.955,22.454c-0.136-0.137-0.302-0.243-0.5-0.319c-0.197-0.076-0.424-0.114-0.679-0.114c-0.256,0-0.482,0.038-0.68,0.114
			c-0.197,0.076-0.364,0.183-0.5,0.319c-0.135,0.138-0.238,0.298-0.308,0.48c-0.07,0.184-0.104,0.382-0.104,0.596
			c0,0.419,0.137,0.77,0.412,1.051c0.275,0.283,0.668,0.424,1.179,0.424c0.511,0,0.906-0.141,1.185-0.424
			c0.278-0.281,0.418-0.632,0.418-1.051c0-0.214-0.036-0.412-0.11-0.596C18.195,22.752,18.091,22.592,17.955,22.454z M20.703,9.154
			c-0.426-0.381-0.946-0.671-1.558-0.869s-1.309-0.297-2.091-0.297c-0.712,0-1.372,0.093-1.98,0.28
			c-0.608,0.187-1.139,0.465-1.592,0.834c-0.453,0.37-0.809,0.828-1.069,1.373c-0.259,0.545-0.393,1.176-0.4,1.893h2.823
			c0-0.366,0.064-0.679,0.192-0.938c0.127-0.259,0.296-0.473,0.505-0.641c0.209-0.168,0.445-0.29,0.709-0.366
			c0.263-0.076,0.534-0.114,0.813-0.114c0.697,0,1.226,0.188,1.586,0.566c0.36,0.378,0.54,0.925,0.54,1.642
			c0,0.328-0.051,0.625-0.15,0.892c-0.102,0.267-0.238,0.519-0.413,0.754c-0.174,0.236-0.376,0.467-0.604,0.692
			s-0.474,0.463-0.737,0.715c-0.348,0.335-0.643,0.652-0.882,0.949c-0.24,0.297-0.436,0.612-0.586,0.944
			c-0.151,0.331-0.26,0.697-0.326,1.098c-0.065,0.4-0.099,0.871-0.099,1.412h2.636c0.008-0.572,0.084-1.084,0.227-1.539
			c0.144-0.453,0.428-0.87,0.854-1.252c0.373-0.343,0.732-0.689,1.082-1.04c0.349-0.351,0.657-0.716,0.929-1.098
			c0.271-0.382,0.488-0.79,0.65-1.224c0.163-0.435,0.244-0.903,0.244-1.407c0-0.693-0.11-1.315-0.331-1.864
			C21.452,10,21.129,9.535,20.703,9.154z"/>
	</g>
</g>
</svg>
