<svg version="1.1" id="_x31_" xmlns="http://www.w3.org/2000/svg" xmlns:xlink="http://www.w3.org/1999/xlink" x="0px" y="0px"
	 width="11px" height="11px" viewBox="0 0 11 11" enable-background="new 0 0 11 11" xml:space="preserve">
<g id="network_icon">
	<g>
		<path fill-rule="evenodd" clip-rule="evenodd" d="M5.5,0.001c-3.037,0-5.499,2.462-5.499,5.499c0,3.036,2.462,5.499,5.499,5.499
			c3.038,0,5.499-2.463,5.499-5.499C10.999,2.463,8.538,0.001,5.5,0.001z M3.593,1.468C4.172,1.19,4.813,1.021,5.5,1.021
			c0.011,0,0.021,0.003,0.032,0.003c0.24,0.419,0.672,1.354,0.71,2.691C6.156,3.77,6.091,3.849,6.031,3.931
			C5.692,3.882,5.333,3.846,4.938,3.836C4.493,3.825,4.083,3.869,3.694,3.931C3.616,3.815,3.516,3.717,3.388,3.657
			C3.208,2.576,3.434,1.807,3.593,1.468z M3.776,4.634c0.449-0.072,0.932-0.109,1.46-0.067c0.253,0.02,0.491,0.049,0.718,0.084
			c0.05,0.106,0.119,0.201,0.208,0.275C6.153,4.991,6.151,5.051,6.14,5.116c-0.149,0.854-0.385,1.52-0.653,2.07
			c-0.04-0.006-0.076-0.023-0.117-0.023c-0.052,0-0.098,0.02-0.147,0.029C5.026,6.984,4.832,6.764,4.644,6.5
			C4.197,5.873,3.897,5.298,3.69,4.771C3.721,4.726,3.756,4.685,3.776,4.634z M2.677,2.044C2.6,2.312,2.491,2.926,2.596,3.759
			C2.437,3.886,2.332,4.069,2.313,4.284C1.721,4.499,1.282,4.732,1.086,4.852C1.251,3.722,1.838,2.736,2.677,2.044z M1.038,5.75
			C1.33,5.537,1.877,5.204,2.601,4.94c0.094,0.074,0.204,0.121,0.327,0.145C3.178,5.758,3.571,6.501,4.21,7.3
			c0.14,0.175,0.281,0.331,0.423,0.479c-0.01,0.05-0.03,0.097-0.03,0.149c0,0.152,0.056,0.286,0.133,0.406
			C4.185,8.968,3.628,9.277,3.318,9.39C2.022,8.661,1.126,7.319,1.038,5.75z M5.5,9.979c-0.571,0-1.112-0.117-1.614-0.312
			L4.094,9.72c0,0,0.612-0.262,1.272-1.026c0.001,0,0.002,0.001,0.003,0.001c0.08,0,0.152-0.022,0.224-0.045
			C6.395,9.268,7.061,9.546,7.241,9.61C6.705,9.84,6.121,9.979,5.5,9.979z M8.257,9.006C8.186,8.995,7.225,8.825,6.121,8.007
			c0.003-0.026,0.016-0.05,0.016-0.078c0-0.104-0.021-0.205-0.06-0.296c0.347-0.655,0.647-1.485,0.798-2.565
			c0.095-0.029,0.177-0.08,0.252-0.14C8.872,5.497,9.515,6.525,9.716,6.96C9.433,7.776,8.918,8.479,8.257,9.006z M7.4,4.251
			C7.365,3.982,7.197,3.755,6.957,3.649c-0.039-1.33-0.391-2.244-0.516-2.525C8.463,1.557,9.979,3.349,9.979,5.5
			c0,0.188-0.033,0.367-0.056,0.549C9.737,5.759,9.022,4.809,7.4,4.251z"/>
	</g>
</g>
<g id="group_icon">
	<g>
		<path fill-rule="evenodd" clip-rule="evenodd" d="M2.245,4.009H0.749c0,0-0.748,0.013-0.748,0.716v1.579
			c0,0.711,0.748,0.7,0.748,0.7h1.497c0,0,0.748-0.011,0.748-0.7V4.708C2.993,4.031,2.245,4.009,2.245,4.009z M5,5.006H4v0.999h1
			v3.996h2V9.002H6V6.005h1V5.006H6V2.01h1V1.011H5V5.006z M10.252,7.991c-0.66,0-1.492,0-1.492,0S8.012,8.012,8.012,8.743v1.504
			C8.012,11.03,8.76,11,8.76,11h1.492c0,0,0.748-0.032,0.748-0.753c0-0.89,0-1.705,0-1.705S10.988,7.991,10.252,7.991z
			 M10.252,3.996c-0.66,0-1.492,0-1.492,0S8.012,4.017,8.012,4.748v1.504c0,0.783,0.748,0.752,0.748,0.752h1.492
			c0,0,0.748-0.031,0.748-0.752c0-0.89,0-1.705,0-1.705S10.988,3.996,10.252,3.996z M10.252,0C9.592,0,8.76,0,8.76,0
			S8.012,0.021,8.012,0.752v1.504c0,0.783,0.748,0.752,0.748,0.752h1.492c0,0,0.748-0.031,0.748-0.752c0-0.89,0-1.705,0-1.705
			S10.988,0,10.252,0z"/>
	</g>
</g>
</svg>
