<svg version="1.1" id="_1" xmlns="http://www.w3.org/2000/svg" xmlns:xlink="http://www.w3.org/1999/xlink" x="0px" y="0px"
	 width="16px" height="16px" viewBox="0 0 16 16" enable-background="new 0 0 16 16" xml:space="preserve">
<g>
	<g>
		<path fill-rule="evenodd" clip-rule="evenodd" d="M13.992,12.997c-0.141,0.18-0.715,0.799-1.235,1
			c-0.05,0.883-0.599,0.83-0.478,0.861c-2.393,0-7.995,0-7.995,0s-1.142,0.025-1.142-1.154c0-1.426,0-10.395,0-10.395
			s0.16-1.154,1.142-1.154c0.981,0,2.284,0,2.284,0S7.71,2.435,7.71,3.31v0.578c0,0-0.037,1.155,1.142,1.155
			c0.827,0,2.856,0,2.856,0s1.142-0.065,1.142,1.155c0,1.064,0,1.621,0,1.621l1.143,1.202V4.055L9.995,1H3.142
			C3.142,1,2,0.995,2,1.948c0,1.985,0,13.185,0,13.185S2.001,16,3.028,16c1.175,0,6.958-0.006,9.964-0.006
			c0.075,0,0.955-0.031,1-0.998C13.992,15.055,14.011,13.29,13.992,12.997z M9.008,2.064l2.991,1.991H9.008V2.064z M13.992,10.997
			l-3.928-3v2.182H5.997v1.636h4.067v2.182L13.992,10.997z"/>
	</g>
</g>
</svg>
