<svg version="1.1" id="_x31_" xmlns="http://www.w3.org/2000/svg" xmlns:xlink="http://www.w3.org/1999/xlink" x="0px" y="0px"
	 width="16px" height="16px" viewBox="0 0 16 16" enable-background="new 0 0 16 16" xml:space="preserve">
<g>
	<g>
		<path d="M9.5,10.063c0.538,0,3.499-4.396,3.499-6.375C12.999,1.706,11.434,0,9.5,0C7.567,0,5.999,1.706,5.999,3.687
			C5.999,5.667,8.977,10.063,9.5,10.063z M7.556,3.587c0-1.101,0.869-1.993,1.944-1.993c1.073,0,1.943,0.893,1.943,1.993
			S10.573,5.58,9.5,5.58C8.425,5.58,7.556,4.688,7.556,3.587z M14.99,14.236c0,0,0-9.618,0-9.742s-0.033-0.332-0.477-0.364
			c-0.006-0.007-0.812,2.178-0.812,2.172c0,2.636,0,7.169,0,7.169l-3.519,0.956c0,0,0-1.478,0-3.104
			c0.037-0.255-1.371-0.263-1.299,0c0,1.628,0,3.106,0,3.106l-2.587-0.937c0,0,0-3.134,0-5.278C6.298,8.149,5,7.031,5,7.277
			c0,2.125,0,6.217,0,6.217l-3.7,0.938L1.296,6.749c0,0,2.504-0.664,3.394-0.901c0.193-0.051-0.162-1.389-0.572-1.251
			C2.623,5.096,0.315,5.65,0.23,5.701C0.06,5.8,0,6.028,0,6.028v9.645C0,15.844,0.213,16,0.461,16c0.246,0,0.459-0.109,0.459-0.109
			l4.698-1.201c0,0,2.485,0.859,3.249,1.103C8.843,15.783,9.232,16,9.541,16c0.246,0,0.576-0.109,0.576-0.109
			s4.298-1.154,4.628-1.312C15.073,14.424,14.99,14.236,14.99,14.236z"/>
	</g>
</g>
</svg>
