<svg version="1.1" id="_x31_" xmlns="http://www.w3.org/2000/svg" xmlns:xlink="http://www.w3.org/1999/xlink" x="0px" y="0px"
	 width="16px" height="16px" viewBox="0 0 16 16" enable-background="new 0 0 16 16" xml:space="preserve">
<g>
	<g>
		<path d="M14.998,2.087c-0.012-0.742-0.697-0.018-0.697-0.018l-1.428,1.533c0,0-1.857-2.603-5.516-2.603
			c-4.13,0-7.322,2.974-7.322,7.228c0,0-0.155,0.774,0.642,0.774c0,0,0.608-0.001,0.608-0.774c0-3.477,2.743-6.169,6.072-6.169
			c2.823,0,4.616,2.317,4.683,2.258l-1.674,1.182c-0.821,0.718,0.106,0.679,0.106,0.679L14.99,6.18C14.995,6.144,15,5.84,15,5.84
			L14.998,2.087z M14.335,7.988c0,0-0.608,0.001-0.608,0.776c0,3.481-2.746,6.176-6.077,6.176c-2.826,0-4.62-2.318-4.686-2.26
			l1.675-1.186c0.822-0.719-0.108-0.68-0.108-0.68l-4.521-0.002C0.006,10.85,0,11.152,0,11.152l0.002,3.759
			C0.014,15.654,0.7,14.93,0.7,14.93l1.429-1.535c0,0,1.858,2.605,5.52,2.605c4.134,0,7.328-2.979,7.328-7.236
			C14.977,8.764,15.133,7.988,14.335,7.988z"/>
	</g>
</g>
</svg>
