<svg version="1.1" id="_x31_" xmlns="http://www.w3.org/2000/svg" xmlns:xlink="http://www.w3.org/1999/xlink" x="0px" y="0px"
	 width="16px" height="16px" viewBox="0 0 16 16" enable-background="new 0 0 16 16" xml:space="preserve">
<g>
	<g>
		<path d="M14.607,13.382l-2.564-2.385c-0.387-0.431-1.048-0.597-1.605-0.524c0.744-1.134,1.338-2.082,1.338-3.685
			C11.775,3.829,9.514,1,5.889,1C2.982,1,0.123,2.992,0.002,6.788c-0.082,2.616,2.009,5.788,5.887,5.788
			c1.348,0.001,2.433-0.372,3.257-0.896c-0.17,0.5-0.072,1.063,0.313,1.493l2.525,2.265c0.601,0.672,1.677,0.754,2.398,0.186
			C15.107,15.057,15.208,14.053,14.607,13.382z M5.929,11.374c-2.519,0-4.63-2.017-4.628-4.823c0-2.295,1.857-4.256,4.628-4.256
			c3.002,0.004,4.631,1.927,4.629,4.54C10.559,9.458,8.443,11.374,5.929,11.374z M2.691,5.551c0.835,0.55,1.215-0.724,1.215-0.724
			S5.897,3.64,6.091,4.351C6.861,4.142,6.352,3.38,6.352,3.38S3.565,2.827,2.691,5.551z"/>
	</g>
</g>
</svg>
