<svg version="1.1" id="_x31_" xmlns="http://www.w3.org/2000/svg" xmlns:xlink="http://www.w3.org/1999/xlink" x="0px" y="0px"
	 width="16px" height="16px" viewBox="0 0 16 16" enable-background="new 0 0 16 16" xml:space="preserve">
<g>
	<g>
		<path d="M13.5,9.986c-0.378,0-0.721,0.146-0.982,0.38L9.828,8.412c0.113-0.283,0.184-0.589,0.184-0.914
			c0-0.586-0.213-1.118-0.556-1.543l2.294-2.151c0.223,0.128,0.477,0.207,0.75,0.207c0.828,0,1.5-0.669,1.5-1.495
			c0-0.825-0.672-1.495-1.5-1.495s-1.501,0.67-1.501,1.495c0,0.271,0.078,0.521,0.204,0.74l-2.314,2.17
			C8.49,5.164,8.013,5.009,7.5,5.009c-0.536,0-1.03,0.169-1.438,0.453L3.823,3.238C3.98,2.948,4.051,2.609,3.99,2.259
			c-0.144-0.825-0.933-1.38-1.762-1.237c-0.829,0.145-1.385,0.93-1.241,1.756c0.144,0.826,0.932,1.381,1.761,1.237
			c0.201-0.035,0.385-0.109,0.548-0.21L5.505,6c-0.32,0.417-0.517,0.932-0.517,1.497c0,0.206,0.033,0.401,0.08,0.592L2.866,8.887
			C2.632,8.36,2.11,7.992,1.5,7.992c-0.829,0-1.5,0.676-1.5,1.51s0.671,1.512,1.5,1.512c0.76,0,1.381-0.572,1.479-1.312l2.405-0.87
			C5.811,9.49,6.543,9.936,7.383,9.975L7.23,13.035c-0.707,0.121-1.246,0.73-1.246,1.47c0,0.825,0.672,1.495,1.5,1.495
			c0.828,0,1.5-0.67,1.5-1.495c0-0.633-0.396-1.17-0.952-1.389l0.162-3.238c0.49-0.142,0.914-0.426,1.232-0.802l2.66,1.935
			C12.034,11.164,12,11.326,12,11.498c0,0.834,0.672,1.512,1.5,1.512s1.5-0.678,1.5-1.512S14.328,9.986,13.5,9.986z M7.5,8.837
			c-0.747,0-1.353-0.599-1.353-1.339c0-0.739,0.605-1.339,1.353-1.339s1.354,0.6,1.354,1.339C8.854,8.238,8.247,8.837,7.5,8.837z"/>
	</g>
</g>
</svg>
