<svg version="1.1" id="_x31_" xmlns="http://www.w3.org/2000/svg" xmlns:xlink="http://www.w3.org/1999/xlink" x="0px" y="0px"
	 width="16px" height="16px" viewBox="0 0 16 16" enable-background="new 0 0 16 16" xml:space="preserve">
<g>
	<g>
		<path d="M14.443,14.139l0.018-0.033l-2.429-3.203c0.56-0.221,0.957-0.766,0.957-1.404c0-0.836-0.675-1.513-1.509-1.513
			c-0.17,0-0.33,0.034-0.482,0.086L9.096,5.414c0.539-0.46,0.891-1.139,0.891-1.907C9.984,2.123,8.869,1,7.492,1
			C6.116,1,4.999,2.123,4.999,3.507c0,0.78,0.361,1.467,0.916,1.927L3.993,8.078C3.834,8.021,3.665,7.984,3.485,7.984
			c-0.833,0-1.508,0.677-1.508,1.513c0,0.657,0.422,1.213,1.008,1.42l-2.484,3.161l0.044,0.092C0.225,14.348,0,14.636,0,14.982
			c0,0.545,0.525,0.985,1.173,0.985s1.174-0.44,1.174-0.985c0-0.486-0.427-0.873-0.979-0.953l2.125-2.701l2.126,2.678
			c-0.648,0.096-1.081,0.614-0.97,1.159c0.112,0.547,0.731,0.913,1.383,0.817c0.649-0.094,1.086-0.613,0.974-1.16
			c-0.061-0.291-0.269-0.524-0.544-0.672l0.04-0.082l-2.505-3.154c0.581-0.211,0.998-0.764,0.998-1.417
			c0-0.347-0.12-0.661-0.315-0.916L6.657,5.86c0.262,0.094,0.541,0.155,0.835,0.155c0.306,0,0.595-0.063,0.865-0.164l1.944,2.715
			C10.1,8.823,9.973,9.145,9.973,9.498c0,0.656,0.42,1.21,1.004,1.419L8.498,14.08l0.047,0.097
			c-0.334,0.175-0.568,0.474-0.568,0.831C7.977,15.557,8.501,16,9.148,16c0.648,0,1.175-0.443,1.175-0.992
			c0-0.488-0.425-0.875-0.972-0.959l2.157-2.756l2.06,2.717c-0.604,0.118-1.006,0.617-0.898,1.149
			c0.109,0.55,0.719,0.919,1.355,0.823c0.64-0.096,1.066-0.617,0.957-1.168C14.924,14.52,14.717,14.285,14.443,14.139z M7.492,4.858
			c-0.741,0-1.342-0.606-1.342-1.352s0.601-1.35,1.342-1.35c0.742,0,1.342,0.604,1.342,1.35S8.234,4.858,7.492,4.858z"/>
	</g>
</g>
</svg>
