<svg version="1.1" id="_x31_" xmlns="http://www.w3.org/2000/svg" xmlns:xlink="http://www.w3.org/1999/xlink" x="0px" y="0px"
	 width="16px" height="16px" viewBox="0 0 16 16" enable-background="new 0 0 16 16" xml:space="preserve">
<path id="minus" fill-rule="evenodd" clip-rule="evenodd" d="M15,7v2H1V7H15z"/>
<path id="plus" fill-rule="evenodd" clip-rule="evenodd" d="M7,7V1h2v6h6v2H9v6H7V9H1V7H7z"/>
<path id="close" fill-rule="evenodd" clip-rule="evenodd" d="M2.118,3.585c0,0-0.038-1.661-0.116-1.583
	c-0.017,0.017,1.595,0.1,1.595,0.1l4.407,4.417l4.408-4.417c0,0,1.629-0.02,1.549-0.1c-0.062-0.062-0.069,1.583-0.069,1.583
	L9.484,8.002l4.407,4.417c0,0,0.188,1.452,0.069,1.569c-0.048,0.049-1.549-0.086-1.549-0.086L8.004,9.486l-4.407,4.417
	c0,0-1.657,0.025-1.595,0.086c0.079,0.08,0.116-1.569,0.116-1.569l4.407-4.417L2.118,3.585z"/>
<g id="rackview">
	<g>
		<path d="M2.128,9.473c0,0.656,0.178,0.713,0.529,0.713c0.351,0,0.529-0.057,0.529-0.713V8.756c0-0.265-0.037-0.415-0.094-0.52h-0.87
			C2.165,8.34,2.128,8.491,2.128,8.756V9.473z M7.999,10h1V8.995h-1V10z M9.135,16l2.879-0.014v-0.998l-2.879-0.021V16z M8.013,13.982
			h-1c-0.405,0-1,0.396-1,0.668v0.668c0,0.271,0.595,0.668,1,0.668h1c0.405,0,1-0.396,1-0.668V14.65
			C9.014,14.381,8.418,13.982,8.013,13.982z M9.998,10h1V8.995h-1V10z M7.028,12.008v1.975h0.971v-1.975H7.028z M3.011,15.986
			L5.892,16v-1.033l-2.881,0.021V15.986z M7.999,4.006h1V3h-1V4.006z M6,4.006h1V3H6V4.006z M9.998,4.006h1V3h-1V4.006z M11.998,4.006
			H13V3h-1.002V4.006z M11.998,10H13V8.995h-1.002V10z M14.236,6.997H0.762C0.769,6.997,0,6.914,0,7.991v2.981
			c0,0.896,0.838,0.993,0.762,0.993h13.477c-0.009,0,0.762,0.037,0.762-0.993V7.991C15,7.004,14.23,6.997,14.236,6.997z M13.77,9.891
			c0-0.002-0.065,0.828-0.711,0.828H1.941c-0.646,0-0.713-0.83-0.713-0.828V9.064c0,0.002,0.002-0.829,0.713-0.829h0.281
			c0.085-0.157,0.226-0.195,0.435-0.195c0.21,0,0.35,0.038,0.436,0.195h9.966c0.645,0,0.711,0.756,0.711,0.829V9.891L13.77,9.891z
			 M2.128,3.478c0,0.657,0.178,0.715,0.529,0.715c0.351,0,0.529-0.058,0.529-0.715V2.763c0-0.266-0.037-0.415-0.094-0.521h-0.87
			C2.166,2.348,2.128,2.497,2.128,2.763V3.478z M14.236,1.001H0.762C0.769,1.001,0,0.919,0,1.996v2.982
			c0,0.896,0.838,0.994,0.762,0.994h13.477C14.23,5.973,15,6.009,15,4.979V1.996C15,1.01,14.23,1.001,14.236,1.001z M13.77,3.897
			c0-0.004-0.065,0.828-0.711,0.828H1.941c-0.646,0-0.713-0.832-0.713-0.828V3.069c0,0.004,0.002-0.828,0.713-0.828h0.281
			c0.085-0.157,0.226-0.195,0.435-0.195c0.21,0,0.35,0.038,0.436,0.195h9.966c0.645,0,0.711,0.756,0.711,0.828V3.897L13.77,3.897z
			 M6,10h1V8.995H6V10z"/>
	</g>
</g>
<!-- <g id="head_usermanage">
	<g>
		<path fill-rule="evenodd" clip-rule="evenodd" d="M8,10.001V8.995H7v1.006H8z M8,15c-0.443-0.443-0.554-1.017-0.554-1.017
			c-0.449,0-1.109,0.397-1.109,0.668v0.668c0,0.27,0.66,0.667,1.109,0.667c0,0,0.292,0,0.576,0C9.723,15.986,8.548,15.547,8,15z
			 M3.013,15.986l3.191,0.013v-1.032l-3.191,0.021V15.986z M9,10.001c0,0,0.724-1.006,0.462-1.006c-0.236,0-0.462,0-0.462,0V10.001z
			 M2.129,8.756v0.715c0,0.657,0.179,0.715,0.529,0.715s0.529-0.058,0.529-0.715V8.756c0-0.265-0.037-0.415-0.094-0.52H2.223
			C2.166,8.342,2.129,8.492,2.129,8.756z M7.737,10.72c-2.939,0-5.794,0-5.794,0c-0.646,0-0.713-0.832-0.713-0.828V9.063
			c0,0.004,0.002-0.827,0.713-0.827c0,0,0.104,0,0.28,0c0.085-0.157,0.226-0.195,0.436-0.195s0.35,0.038,0.436,0.195h5.68
			c-0.003,0,2.238-1.24,0.394-1.24c-3.963,0-8.405,0-8.405,0C0.769,6.997,0,6.914,0,7.99v2.981c0,0.896,0.838,0.995,0.762,0.995
			c0,0,3.06,0,6.367,0C8.238,11.967,7.812,10.72,7.737,10.72z M14.053,8.662c0-1.158-0.188-1.647-1.489-1.647
			c-1.233,0-1.639,0.49-1.639,1.647c0,1.158,0.7,2.546,1.564,2.546C13.319,11.208,14.053,9.82,14.053,8.662z M11,4.006h1.001V3H11
			V4.006z M9,4.006h1V3H9V4.006z M7,4.006h1V3H7V4.006z M13,4.006h1V3h-1V4.006z M15.238,1.001H0.762C0.769,1.001,0,0.919,0,1.996
			v2.982c0,0.896,0.838,0.994,0.762,0.994h14.476C15.231,5.972,16,6.009,16,4.978V1.996C16,1.009,15.231,1.001,15.238,1.001z
			 M14.771,3.896c0-0.003-0.068,0.828-0.713,0.828H1.942c-0.646,0-0.713-0.832-0.713-0.828V3.069c0,0.003,0.002-0.828,0.713-0.828
			h0.28c0.085-0.157,0.226-0.195,0.436-0.195s0.35,0.038,0.436,0.195h10.965c0.645,0,0.713,0.756,0.713,0.828V3.896z M15.538,10.011
			c0.237,0,0.462,0,0.462,0V9.004C16,9.004,14.589,10.011,15.538,10.011z M2.129,3.477c0,0.658,0.179,0.715,0.529,0.715
			s0.529-0.057,0.529-0.715V2.762c0-0.265-0.037-0.415-0.094-0.52H2.223c-0.057,0.105-0.094,0.255-0.094,0.52V3.477z M16,8.001
			V6.996c0,0-0.225,0-0.462,0C14.495,6.996,16,8.001,16,8.001z M14.084,11.508l-1.521,1.048l-1.665-1.048
			c-0.231,0.012-1.48,0.304-1.762,0.898c-0.138,0.291-0.149,2.189-0.149,2.189L12.563,16l3.427-1.404c0,0,0.004-1.78-0.149-2.189
			C15.572,11.687,14.084,11.508,14.084,11.508z"/>
	</g>
</g> -->
<g id="customized">
	<g>
		<path d="M4.033,4.396c-0.127,0.143-0.127,0.375,0,0.519l0.829,0.933c0.127,0.144,0.333,0.144,0.46,0
			c0.127-0.143,0.127-0.375,0-0.518L4.493,4.396C4.366,4.252,4.16,4.252,4.033,4.396z M10.507,4.396L9.679,5.329
			c-0.127,0.143-0.127,0.375,0,0.518c0.127,0.144,0.333,0.144,0.46,0l0.829-0.933c0.127-0.143,0.127-0.375,0-0.519
			S10.634,4.252,10.507,4.396z M1.946,12.779c-0.561-1.022-0.882-2.495-0.882-3.766c0-3.806,2.881-6.892,6.436-6.892
			c2.387,0,4.472,1.393,5.583,3.461c0.073,0.073,1.214,0.193,1.262,0.185C13.173,2.958,10.548,1,7.5,1C3.358,1,0,4.614,0,9.071
			c0,1.854,0.403,3.562,1.379,4.925c0.637,0,3.021,0,5.527,0.002c0.077,0.001-0.223-1.059-0.25-1.213
			C3.701,12.787,2.286,12.788,1.946,12.779z M2.543,11.809l1.149-0.435c0.177-0.066,0.27-0.278,0.209-0.473
			c-0.061-0.193-0.252-0.296-0.429-0.229l-1.149,0.435c-0.176,0.066-0.27,0.277-0.209,0.473C2.174,11.772,2.367,11.876,2.543,11.809
			z M7.5,3.173c-0.18,0-0.326,0.165-0.326,0.367v1.32c0,0.203,0.146,0.367,0.326,0.367S7.826,5.063,7.826,4.86V3.54
			C7.826,3.338,7.68,3.173,7.5,3.173z M3.408,8.354C3.581,8.407,3.76,8.291,3.806,8.095C3.853,7.9,3.75,7.699,3.576,7.646
			L2.444,7.305C2.27,7.252,2.092,7.368,2.045,7.564C1.999,7.76,2.102,7.96,2.275,8.013L3.408,8.354z M6.247,9.577
			c-0.06,0.181,1.169-1.593,1.305-1.591C7.025,7.2,6.27,6.068,6.258,6.053C6.24,6.063,6.267,9.512,6.247,9.577z M15.733,10.199H15.2
			c-0.169,0-0.226,0.052-0.274-0.11l-0.215-0.514c-0.078-0.15,0.188-0.342,0.307-0.461l0.188-0.188
			c0.12-0.12-0.039-0.417-0.158-0.537l-0.436-0.436c-0.12-0.12-0.418-0.279-0.537-0.159l-0.377,0.377
			c-0.119,0.12-0.123,0.196-0.272,0.118L12.91,8.075c-0.162-0.049-0.109-0.106-0.109-0.275V7.267c0-0.17-0.322-0.267-0.492-0.267
			h-0.615C11.523,7,11.2,7.097,11.2,7.267V7.8c0,0.169,0.052,0.227-0.111,0.275l-0.514,0.214c-0.148,0.079-0.152,0.002-0.272-0.118
			L9.926,7.794c-0.12-0.12-0.417,0.04-0.536,0.159L8.954,8.389c-0.119,0.12-0.279,0.417-0.16,0.537l0.377,0.377
			c0.121,0.12,0.197,0.122,0.119,0.272l-0.215,0.514c-0.049,0.162-0.373,0.111-0.542,0.11H8.267C8.098,10.2,8,10.522,8,10.691v0.615
			c0,0.169,0.097,0.494,0.266,0.494H8.8c0.17-0.001,0.227-0.053,0.275,0.109l0.215,0.515c0.078,0.149,0.002,0.153-0.119,0.272
			l-0.377,0.377c-0.119,0.12,0.04,0.417,0.16,0.537l0.435,0.435c0.12,0.12,0.417,0.279,0.537,0.159l0.377-0.377
			c0.12-0.119,0.123-0.195,0.272-0.117l0.515,0.215c0.162,0.049,0.11,0.105,0.11,0.274v0.533c0,0.169,0.323,0.267,0.493,0.267h0.615
			c0.17,0,0.492-0.098,0.492-0.267V14.2c0-0.169-0.053-0.226,0.11-0.273l0.515-0.216c0.15-0.078,0.152-0.002,0.271,0.117
			l0.377,0.377c0.119,0.12,0.417-0.039,0.537-0.159l0.436-0.435c0.119-0.119,0.278-0.418,0.158-0.537l-0.377-0.377
			c-0.119-0.119-0.195-0.122-0.116-0.271l0.214-0.515c0.049-0.163,0.105-0.11,0.274-0.11h0.533C15.902,11.8,16,11.478,16,11.308
			v-0.615C16,10.522,15.903,10.199,15.733,10.199z M13.404,12.402c-0.782,0.783-2.051,0.783-2.834,0
			c-0.782-0.781-0.782-2.051,0.001-2.833c0.782-0.783,2.052-0.783,2.833,0C14.188,10.352,14.187,11.62,13.404,12.402z"/>
	</g>
</g>
<g id="trigger">
	<g>
		<path d="M2.572,5.96c0-1.881,1.536-3.406,3.431-3.406S9.434,4.079,9.434,5.96c0,0.246-0.025,0.485-0.076,0.715
			c0,0,0.33,0.178,0.488,0.406c0,0,0.162-0.735,0.162-1.125c0-2.193-1.793-3.972-4.005-3.972S1.998,3.763,1.998,5.956
			c0,1.708,1.088,3.166,2.615,3.726c0.161,0.156,0.241-0.316,0.302-0.49C3.554,8.741,2.572,7.465,2.572,5.96z M5.288,5.34
			c2.195-1.513,2.541,0.642,2.72,0.746c0-0.843-0.48-1.569-1.172-1.898C6.582,4.067,6.299,4,6.002,4
			C4.895,4,3.997,4.934,3.997,6.086c0,0.857,0.497,1.594,1.208,1.915C5.333,8.06,3.634,6.339,5.288,5.34z M0.603,6.007
			c0-2.984,2.42-5.404,5.404-5.404c2.985,0,5.405,2.419,5.405,5.404c0,0.544-0.08,1.071-0.23,1.567c0,0,0.156,0.15,0.612,0.019
			c0.14-0.507,0.213-1.04,0.213-1.59C12.007,2.688,9.318,0,6.003,0C2.687,0,0,2.688,0,6.002c0,2.632,1.694,4.869,4.052,5.678
			c0.293,0.012,0.275-0.305,0.33-0.519C2.191,10.473,0.603,8.425,0.603,6.007z M15.95,12.613c0,0-0.591-2.774-0.781-3.407
			c-0.19-0.634-1.187-0.435-1.187-0.435L9.189,9.032L7.926,6.34c0,0-0.484-0.758-1.455-0.308c-0.97,0.451-0.696,1.307-0.696,1.307
			l2.22,4.38l-0.988-0.359c0,0-0.987-0.364-1.416,0.82c-0.429,1.188,0.363,1.471,0.363,1.471s3.187,1.049,3.812,1.838
			s1.187,0.433,1.187,0.433s3.878-1.771,4.571-2.124C16.217,13.441,15.95,12.613,15.95,12.613z"/>
	</g>
</g>
<g id="configuration">
	<g>
		<path d="M11.277,11.262c-0.197-0.193-0.322-0.199-0.193-0.441l0.355-0.834c-0.469-0.201-0.722-0.101-0.951-0.73
			c-0.146,0.73-0.508,1.432-1.084,1.998c-1.545,1.52-4.049,1.52-5.594,0.001c-1.544-1.519-1.544-3.979,0-5.497
			C4.602,4.979,5.648,4.6,6.686,4.62c0.17,0.003,0.339,0.02,0.507,0.042C7.156,3.592,7.404,2.49,7.762,2.2
			c0.092-0.196-0.467-0.187-0.648-0.187L6.098,2.015c-0.28,0-0.812,0.157-0.813,0.433v0.865c0,0.274,0.085,0.367-0.183,0.447
			L4.253,4.107C4.007,4.234,4.001,4.11,3.803,3.916L3.18,3.304C2.983,3.109,2.491,3.369,2.294,3.562L1.576,4.269
			C1.377,4.463,1.114,4.946,1.312,5.141l0.623,0.611C2.132,5.946,2.26,5.951,2.129,6.194L1.775,7.029
			C1.694,7.293,1.16,7.209,0.88,7.208H0.44C0.161,7.209,0,7.732,0,8.007v0.999c0,0.273,0.16,0.801,0.44,0.801h0.881
			c0.28-0.002,0.374-0.086,0.454,0.178l0.354,0.836c0.13,0.242,0.003,0.246-0.195,0.441l-0.623,0.612
			c-0.197,0.194,0.066,0.676,0.264,0.871l0.719,0.706c0.198,0.193,0.689,0.453,0.886,0.259l0.623-0.612
			c0.198-0.193,0.203-0.318,0.45-0.189l0.85,0.348c0.268,0.08,0.183,0.172,0.182,0.446v0.864C5.286,14.842,5.819,14.999,6.098,15
			h1.018c0.279,0,0.812-0.158,0.812-0.434v-0.865c0-0.273-0.085-0.366,0.183-0.444l0.851-0.349c0.247-0.129,0.25-0.006,0.448,0.189
			l0.622,0.611c0.196,0.193,0.688-0.064,0.888-0.259l0.719-0.706c0.196-0.194,0.461-0.678,0.264-0.871L11.277,11.262z M15.732,4.203
			H15.2c-0.169,0-0.226,0.052-0.274-0.11l-0.215-0.515c-0.078-0.15,0.188-0.343,0.307-0.462l0.188-0.188
			c0.12-0.12-0.039-0.417-0.158-0.537l-0.437-0.436c-0.119-0.12-0.418-0.279-0.536-0.16l-0.377,0.378
			c-0.119,0.119-0.123,0.196-0.272,0.117l-0.514-0.215c-0.162-0.049-0.11-0.105-0.11-0.274V1.267c0-0.17-0.321-0.268-0.491-0.267
			h-0.615c-0.17,0-0.492,0.097-0.492,0.267v0.534c0,0.169,0.052,0.227-0.111,0.275L10.577,2.29
			c-0.149,0.079-0.153,0.002-0.272-0.117L9.928,1.795C9.809,1.676,9.51,1.835,9.391,1.954L8.956,2.39
			c-0.12,0.12-0.279,0.418-0.159,0.538c0,0,0.184,0.184,0.293,0.294c0.049,0.049,0.084,0.083,0.084,0.083
			c0.119,0.12,0.196,0.123,0.117,0.273L9.076,4.093c-0.049,0.162-0.371,0.11-0.541,0.11H8.269c-0.169,0-0.266,0.323-0.266,0.492
			v0.616c0,0.169,0.097,0.493,0.266,0.493h0.533c0.169,0,0.228-0.053,0.274,0.109L9.291,6.43C9.37,6.579,9.293,6.582,9.174,6.702
			L8.797,7.08c-0.12,0.119,0.039,0.417,0.158,0.537l0.436,0.436C9.51,8.172,9.809,8.332,9.928,8.212l0.377-0.377
			c0.119-0.12,0.123-0.196,0.271-0.118l0.515,0.215c0.162,0.049,0.11,0.105,0.11,0.275V8.74c0,0.17,0.322,0.268,0.492,0.268h0.615
			c0.17,0,0.491-0.098,0.491-0.268V8.207c0-0.169-0.052-0.226,0.11-0.274l0.515-0.215c0.15-0.079,0.152-0.003,0.271,0.117
			l0.378,0.377c0.118,0.12,0.417-0.039,0.536-0.159l0.437-0.436c0.119-0.12,0.278-0.418,0.158-0.537l-0.377-0.378
			c-0.119-0.12-0.195-0.122-0.117-0.271l0.215-0.516c0.05-0.162,0.104-0.11,0.274-0.11h0.531C15.902,5.804,16,5.481,16,5.312V4.695
			C16,4.525,15.902,4.203,15.732,4.203z M13.693,6.697c-0.935,0.936-2.449,0.937-3.385,0c-0.936-0.936-0.936-2.453,0-3.39
			s2.45-0.937,3.385,0C14.63,4.244,14.629,5.761,13.693,6.697z"/>
	</g>
</g>
<g id="usermanage">
	<g>
		<path d="M7.09,7.462C7.105,7.459,7.122,7.455,7.139,7.45c0.001,0,0.001-0.001,0.002-0.001C7.627,6.982,8.17,6.447,8.716,6.058
			c0.229-0.3,0.45-0.641,0.64-1.018c0.002-0.009,0.008-0.018,0.011-0.026c0.003-0.007,0.005-0.013,0.008-0.02
			C9.609,4.33,9.749,3.608,9.749,2.931c0.002-2.062-0.326-2.934-2.602-2.934c-2.155,0-2.862,0.871-2.862,2.934
			c0,2.04,1.196,4.479,2.683,4.532c0.017,0.001,0.033,0.001,0.05,0.001C7.042,7.464,7.066,7.463,7.09,7.462z M5,10.997
			c0-0.935,0.561-0.653,0.561-2.097c0-0.022-0.001-0.045-0.005-0.065C4.894,8.402,4.275,7.997,4.275,7.997
			C3.88,8.018,1.737,8.538,1.255,9.598C1.019,10.115,1,13.495,1,13.495s3.3,1.348,5.057,2.063c0,0,0,0,0-0.002
			c0.074-1.328,0.589-1.646,0.821-1.986c0.052-0.076-1.864-1.648-1.864-2.516C5.001,11.041,4.997,11.018,5,10.997z M14.76,10.025
			c0,0,0.615-0.711-0.121-1.564c-0.787-0.913-1.385-0.184-1.385-0.184s-0.658,0.795-1.49,1.763c0.711,0.846,0.666,0.91,1.438,1.828
			C14.007,10.932,14.76,10.025,14.76,10.025z M10.925,10.669l0.119-0.235l0.038-0.36c0,0-0.176-2.06-2.077-2.06
			c0,0-0.336,0.003-0.592,0.121l1.256,1.31c0,0,0.13,0.207,0,0.408s-0.785,0.899-0.785,0.899s-0.163,0.138-0.392,0l-1.335-1.31
			c0,0-0.157,0.117-0.157,0.654c0,0.536,0.305,2.194,2.041,2.209c0,0,0.434,0.021,0.55-0.164l3.833,3.69
			c0,0,0.254,0.163,0.551,0.163c0.295,0,1.004-0.206,1.02-0.98c0.011-0.332-0.156-0.654-0.156-0.654L10.925,10.669z M13.866,15.139
			c-0.209,0-0.378-0.195-0.378-0.437c0-0.242,0.169-0.437,0.378-0.437s0.378,0.193,0.378,0.437
			C14.244,14.941,14.075,15.139,13.866,15.139z M9.741,13.41c-0.011-0.01-0.021-0.018-0.027-0.026
			c-0.653,0.64-0.975,1.019-0.975,1.019L8.226,14.75l-0.448,0.889l0.259,0.365l0.801-0.393l0.391-0.521c0,0,0.297-0.366,1.041-1.085
			C10.244,14.031,9.979,13.663,9.741,13.41z"/>
	</g>
</g>
<g id="devicemanage">
	<g>
		<path d="M7.5,1C3.357,1,0,4.357,0,8.5C0,12.643,3.357,16,7.5,16c4.143,0,7.5-3.357,7.5-7.5C15,4.357,11.643,1,7.5,1z M4.522,2.962
			C5.411,2.482,6.418,2.191,7.5,2.191c0.497,0,0.979,0.063,1.441,0.172c0.235,0.543,0.635,1.747,0.59,3.384
			c-0.398,0.055-0.727,0.29-0.938,0.608C8.02,6.257,7.391,6.193,6.7,6.176C6.172,6.163,5.681,6.208,5.21,6.274
			C4.994,5.895,4.604,5.633,4.146,5.593C4.02,4.298,4.321,3.389,4.522,2.962z M5.395,6.947L5.395,6.947
			c0.538-0.067,1.11-0.093,1.726-0.045c0.444,0.035,0.848,0.093,1.234,0.161c0,0.011-0.006,0.021-0.006,0.033
			c0,0.537,0.312,0.997,0.76,1.221c-0.313,1.039-0.732,1.895-1.196,2.605c-0.152-0.059-0.315-0.094-0.487-0.094
			c-0.243,0-0.467,0.068-0.665,0.18c-0.26-0.292-0.517-0.604-0.764-0.951C5.487,9.34,5.116,8.671,4.835,8.045
			C5.173,7.796,5.395,7.399,5.395,6.947z M3.526,3.625C3.427,3.969,3.272,4.721,3.363,5.759C2.945,5.993,2.659,6.435,2.659,6.947
			c0,0.004,0.001,0.008,0.001,0.012C1.984,7.237,1.489,7.518,1.252,7.667C1.468,6.038,2.314,4.617,3.526,3.625z M1.195,8.553
			c0.339-0.245,0.906-0.6,1.654-0.922c0.237,0.407,0.673,0.684,1.179,0.684h0.001c0.359,0.839,0.881,1.751,1.655,2.72
			c0.169,0.211,0.339,0.4,0.509,0.583c-0.083,0.177-0.132,0.371-0.132,0.577c0,0.226,0.059,0.434,0.155,0.619
			c-0.744,0.615-1.434,0.978-1.859,1.149C2.481,12.883,1.214,10.868,1.195,8.553z M7.5,14.809c-0.825,0-1.612-0.162-2.334-0.451
			c0.319-0.127,0.919-0.42,1.603-0.972c0.196,0.108,0.418,0.177,0.658,0.177c0.276,0,0.533-0.084,0.748-0.226
			c0.89,0.604,1.58,0.882,1.782,0.953C9.199,14.611,8.375,14.809,7.5,14.809z M10.76,13.88c-0.447-0.178-1.21-0.541-2.074-1.151
			c0.069-0.164,0.107-0.345,0.107-0.533c0-0.299-0.1-0.571-0.261-0.797c0.503-0.779,0.962-1.744,1.295-2.945
			c0.432-0.035,0.789-0.281,1.015-0.622c1.881,0.909,2.516,2.175,2.674,2.573C13.05,11.873,12.052,13.094,10.76,13.88z
			 M11.079,7.122c0-0.009,0.005-0.017,0.005-0.026c0-0.565-0.343-1.049-0.831-1.258c0.075-1.642-0.226-2.804-0.338-3.166
			c2.285,0.948,3.894,3.2,3.894,5.828c0,0.268-0.021,0.529-0.055,0.79C13.55,8.968,12.775,7.918,11.079,7.122z"/>
	</g>
</g>
<g id="network">
	<g>
		<path d="M0.762,5.97h13.476C14.23,5.97,15,6.006,15,4.976V1.993c0-0.986-0.77-0.995-0.764-0.995H0.762
			C0.769,0.998,0,0.916,0,1.993v2.982C0,5.871,0.838,5.97,0.762,5.97z M1.229,3.066c0,0.004,0.002-0.828,0.713-0.828h0.281
			c0.085-0.157,0.226-0.195,0.435-0.195c0.21,0,0.35,0.038,0.436,0.195h9.965c0.646,0,0.711,0.756,0.711,0.828v0.828
			c0-0.004-0.065,0.828-0.711,0.828H1.942c-0.646,0-0.713-0.832-0.713-0.828V3.066z M8.999,2.997h-1v1.006h1V2.997z M7,2.997H6
			v1.006h1V2.997z M10.999,2.997h-1v1.006h1V2.997z M2.658,4.189c0.351,0,0.529-0.058,0.529-0.715V2.76
			c0-0.266-0.037-0.415-0.094-0.521h-0.87C2.166,2.345,2.129,2.494,2.129,2.76v0.715C2.129,4.132,2.307,4.189,2.658,4.189z
			 M13,2.997h-1.001v1.006H13V2.997z M2.129,9.471c0,0.655,0.178,0.713,0.529,0.713c0.351,0,0.529-0.058,0.529-0.713V8.753
			c0-0.265-0.037-0.415-0.094-0.52h-0.87c-0.057,0.104-0.094,0.255-0.094,0.52V9.471z M6.013,14.646l1-0.668
			C6.608,13.979,6.013,14.377,6.013,14.646z M3.012,14.984v0.998c0,0,1.984,0.008,2.489,0.012c-0.061-0.01,0.392-1.03,0.392-1.03
			L3.012,14.984z M5.438,10.716c-1.944,0-3.496,0-3.496,0c-0.646,0-0.713-0.83-0.713-0.827V9.063c0,0.002,0.002-0.829,0.713-0.829
			h0.281c0.085-0.157,0.226-0.195,0.435-0.195c0.21,0,0.35,0.038,0.436,0.195c0,0,1.857,0,3.969,0c0.033,0,0.445-1.239,0.312-1.239
			c-3.327,0-6.613,0-6.613,0C0.769,6.994,0,6.911,0,7.988v2.981c0,0.896,0.838,0.994,0.762,0.994c0,0,1.948,0,4.363,0
			C5.187,11.964,5.51,10.716,5.438,10.716z M5.501,15.994L5.501,15.994C5.675,15.995,5.644,15.994,5.501,15.994z M13.254,8.277
			c0,0-0.658,0.795-1.49,1.763c0.711,0.846,0.666,0.91,1.438,1.828c0.807-0.937,1.56-1.843,1.56-1.843s0.615-0.711-0.12-1.564
			C13.852,7.548,13.254,8.277,13.254,8.277z M10.925,10.669l0.119-0.235l0.038-0.36c0,0-0.176-2.06-2.077-2.06
			c0,0-0.336,0.003-0.591,0.121l1.255,1.31c0,0,0.13,0.207,0,0.408s-0.785,0.899-0.785,0.899s-0.163,0.138-0.392,0l-1.335-1.31
			c0,0-0.157,0.117-0.157,0.654c0,0.536,0.305,2.194,2.041,2.209c0,0,0.434,0.021,0.55-0.164l3.833,3.69
			c0,0,0.254,0.163,0.551,0.163c0.295,0,1.004-0.206,1.02-0.98c0.011-0.332-0.156-0.654-0.156-0.654L10.925,10.669z M13.866,15.139
			c-0.209,0-0.378-0.195-0.378-0.437c0-0.242,0.169-0.437,0.378-0.437s0.378,0.193,0.378,0.437
			C14.244,14.941,14.075,15.139,13.866,15.139z M9.741,13.41c-0.011-0.01-0.021-0.018-0.027-0.026
			c-0.653,0.64-0.975,1.019-0.975,1.019L8.227,14.75l-0.448,0.889l0.259,0.365l0.8-0.393l0.391-0.521c0,0,0.297-0.366,1.041-1.085
			C10.244,14.031,9.979,13.663,9.741,13.41z"/>
	</g>
</g>
<g id="checkbox">
	<g>
		<path fill-rule="evenodd" clip-rule="evenodd" d="M3.366,7.621l3.247,2.66c0,0,5.866-5.911,5.915-6.047
			c0,0.122,1.381,1.197,1.338,1.242c0.104-0.105-7.217,7.384-7.252,7.29c0.022,0.104-4.479-3.902-4.479-3.902L3.366,7.621z"/>
	</g>
</g>
</svg>
