<svg version="1.1" id="_1" xmlns="http://www.w3.org/2000/svg" xmlns:xlink="http://www.w3.org/1999/xlink" x="0px" y="0px"
	 width="16px" height="16px" viewBox="0 0 16 16" enable-background="new 0 0 16 16" xml:space="preserve">
	<g id="UserManageTitle1">
		<g>
			<path fill-rule="evenodd" clip-rule="evenodd" fill="#00BFA5" d="M7.516,8c1.328,0,2.504-2.317,2.504-4.25
				C10.021,1.817,9.72,1,7.635,1C5.659,1,5.011,1.817,5.011,3.75C5.011,5.684,6.133,8,7.516,8z M12.767,10
				c-0.423-1.201-2.761-1.5-2.761-1.5l-2.389,1.75L5.002,8.5C4.64,8.52,2.676,9.007,2.234,10C2.017,10.487,2,13.654,2,13.654
				L7.617,16L13,13.654C13,13.654,13.009,10.685,12.767,10z"/>
		</g>
	</g>
	<g id="UserManageTitle2">
		<g>
			<path fill-rule="evenodd" clip-rule="evenodd" fill="#BBBBBB" d="M7.516,8c1.328,0,2.504-2.317,2.504-4.25
				C10.021,1.817,9.72,1,7.635,1C5.659,1,5.011,1.817,5.011,3.75C5.011,5.684,6.133,8,7.516,8z M12.767,10
				c-0.423-1.201-2.761-1.5-2.761-1.5l-2.389,1.75L5.002,8.5C4.64,8.52,2.676,9.007,2.234,10C2.017,10.487,2,13.654,2,13.654
				L7.617,16L13,13.654C13,13.654,13.009,10.685,12.767,10z"/>
		</g>
	</g>
	<g id="UserManageTitle3">
		<g>
			<g>
				<path fill-rule="evenodd" clip-rule="evenodd" fill="#666666" d="M6.626,1c-1.974,0-2.62,0.817-2.62,2.75
					c0,1.934,1.12,4.251,2.501,4.251c1.327,0,2.5-2.317,2.5-4.251C9.007,1.817,8.706,1,6.626,1z M8.993,8.501
					c0,0-0.277,0.203-0.643,0.472c1.325,0,1.623,0.023,2.336,0.023C9.9,8.617,8.993,8.501,8.993,8.501z M1.234,10.001
					C1.017,10.488,1,13.655,1,13.655s2.664,1.114,4.319,1.807C4.906,14.797,4.961,13.646,5,11.995
					c0.028-1.214-0.117-2.512,0.782-2.299C5.017,9.184,3.997,8.501,3.997,8.501C3.635,8.521,1.675,9.008,1.234,10.001z"/>
			</g>
		</g>
		<g>
			<g>
				<path fill-rule="evenodd" clip-rule="evenodd" fill="#FB8C00" d="M9.507,12.854c0.495,0.298,0.963,0.046,1.094,0.001
					c0.67-0.545,2.61-1.927,2.991-2.53c0.242-0.385-0.541-0.328-0.541-0.328s-5.82,0-6.029,0c-0.621,0-0.626,0.26-0.561,0.351
					C6.865,10.915,9.055,12.409,9.507,12.854z M6,11.417v3.382l1.719-1.69L6,11.417z M10.106,14.515c0,0-0.098,0.12-0.209,0
					c-0.064-0.071-0.879-0.768-1.204-1.045c-0.034,0.01-2.278,2.284-2.278,2.284S6.407,16,6.642,16c0.104,0,6.723,0,6.723,0
					s0.226-0.009,0.226-0.265c0,0-2.269-2.109-2.349-2.205C10.911,13.815,10.106,14.515,10.106,14.515z M12.28,13.108l1.72,1.69
					v-3.382L12.28,13.108z"/>
			</g>
		</g>
	</g>
	<g id="UserManageTitle4">
		<g>
			<g>
				<path fill-rule="evenodd" clip-rule="evenodd" fill="#F44336" d="M13.176,10.234C11.93,8.755,9.723,8.567,8.245,9.813
					c-1.478,1.246-1.667,3.453-0.421,4.932s3.453,1.666,4.93,0.42C14.232,13.92,14.421,11.711,13.176,10.234z M8.639,14.057
					c-0.754-0.895-0.752-2.174-0.061-3.063c1.616,2.045,1.745,2.256,3.07,3.641C10.655,15.168,9.393,14.953,8.639,14.057z
					 M12.433,13.967c-1.601-1.859-1.815-2.072-3.073-3.629c0.99-0.527,2.248-0.311,3.001,0.582
					C13.11,11.811,13.113,13.08,12.433,13.967z"/>
			</g>
		</g>
		<g>
			<g>
				<path fill-rule="evenodd" clip-rule="evenodd" fill="#666666" d="M6.626,1.002c-1.973,0-2.619,0.816-2.619,2.747
					c0,1.932,1.12,4.247,2.5,4.247c1.327,0,2.5-2.315,2.5-4.247C9.008,1.819,8.707,1.002,6.626,1.002z M6.354,9.725
					C5.672,9.217,4.014,8.498,3.998,8.496c-0.362,0.02-2.322,0.506-2.763,1.499c-0.217,0.488-0.234,3.652-0.234,3.652
					s3.847,1.668,5.472,2.352C6.232,14.609,5.597,13.484,6.354,9.725z"/>
			</g>
		</g>
	</g>
	<g id="more">
		<g>
			<path fill-rule="evenodd" clip-rule="evenodd" d="M8.5,5C9.328,5,10,4.328,10,3.5C10,2.671,9.328,2,8.5,2S7,2.671,7,3.5
				C7,4.328,7.672,5,8.5,5z M8.5,7C7.672,7,7,7.671,7,8.5C7,9.328,7.672,10,8.5,10S10,9.328,10,8.5C10,7.671,9.328,7,8.5,7z
				 M8.5,11.999c-0.828,0-1.5,0.672-1.5,1.501C7,14.328,7.672,15,8.5,15s1.5-0.672,1.5-1.5C10,12.671,9.328,11.999,8.5,11.999z"/>
		</g>
	</g>
	<g id="edit">
		<g>
			<path fill-rule="evenodd" clip-rule="evenodd" d="M9.789,11.093c0,1.688,0,3.728,0,3.728H1.198V4.188c0,0,4.139,0,5.994,0
				C7.229,4.22,8.423,3.021,8.391,3.007c-1.194,0-6.595,0-7.124,0C0.041,3.008,0,4.265,0,4.265s0,9.706,0,10.479
				C0,16.004,1.268,16,1.268,16s7.764,0,8.454,0c1.301,0,1.268-1.256,1.268-1.256s0-2.472,0-4.821
				C10.989,9.969,9.789,11.081,9.789,11.093z M3.878,9.783l2.307,2.306l6.921-6.915L10.8,2.869L3.878,9.783z M14.646,2.1
				c0,0-0.224-0.223-0.769-0.768c-0.748-0.747-1.539,0-1.539,0L11.568,2.1l2.309,2.306c0,0,0.173-0.174,0.769-0.769
				C15.442,2.841,14.646,2.1,14.646,2.1z M3.108,10.553l-0.121,2.463l2.429-0.158L3.108,10.553z"/>
		</g>
	</g>
	<g id="remove">
		<g>
			<path fill-rule="evenodd" clip-rule="evenodd" d="M3,14c0,0,0.402,2,2,2c1.598,0,5,0,5,0S12,15.789,12,14c0-1.79,0-9,0-9H3V14z
				 M9.999,6H11v9H9.999V6z M8,6h1v9H8V6z M6,6h1v9H6V6z M4,6H5v9H4V6z M11,2c-0.888,0-2,0-2,0V1H6v1C6,2,4.883,2,4,2
				C3.024,2,2,3,2,3v1h10.999L13,3C13,3,11.945,2,11,2z"/>
		</g>
	</g>
	<g id="date">
		<g>
			<path fill-rule="evenodd" clip-rule="evenodd" d="M13.001,9.625H10v1.75h3.001V9.625z M9,7.001H6.001V8.75H9V7.001z M11,4
				c1.021,0,1.001-0.537,1.001-1.201V2.2C12.001,1.537,11.99,1,11,1s-1,0.537-1,1.2v0.6C10,3.463,9.979,4,11,4z M4,4
				C4.927,4,5,3.463,5,2.8V2.2C5,1.537,4.896,1,4,1C3.01,1,3,1.537,3,2.2v0.6C3,3.463,2.979,4,4,4z M13.001,7.001H10V8.75h3.001
				V7.001z M5,7.001H2V8.75h3V7.001z M5,12.251H2v1.75h3V12.251z M5,9.625H2v1.75h3V9.625z M9,9.625H6.001v1.75H9V9.625z M14.001,3
				c0,0-0.557,0-1,0C12.985,3,13.002,5,11,5C8.993,5,9.012,3,9,3H6.001C5.976,3,6.002,5,4,5C1.932,5,2.049,3,2,3C1.58,3,1,3,1,3
				C0.31,3,0,3.518,0,4.171v10.83C0,15.653,0.31,16,1,16h13.001C14.69,16,15,15.653,15,15.001V4.171C15,3.518,14.69,3,14.001,3z
				 M14.001,15.001H1V6h13.001V15.001z M9,12.251H6.001v1.75H9V12.251z M13.001,12.251H10v1.75h3.001V12.251z"/>
		</g>
	</g>
	<g id="time">
		<g>
			<path fill-rule="evenodd" clip-rule="evenodd" d="M7.5,1C3.358,1,0,4.358,0,8.5C0,12.643,3.358,16,7.5,16
				c4.143,0,7.5-3.357,7.5-7.5C15,4.358,11.643,1,7.5,1z M7.5,14.704c-3.426,0-6.203-2.778-6.203-6.204
				c0-3.425,2.777-6.203,6.203-6.203c3.426,0,6.204,2.778,6.204,6.203C13.704,11.926,10.926,14.704,7.5,14.704z M8.25,7.75v-4.5h-1.5
				v6h5.251v-1.5H8.25z"/>
		</g>
	</g>
	<g id="view">
		<g>
			<path fill-rule="evenodd" clip-rule="evenodd" d="M10,1H3.143C3.143,1,2,0.995,2,1.947C2,3.93,2,15.12,2,15.12
				s0.001,0.865,1.028,0.865H9.44c0,0.166-1.15-1.141-1.154-1.141c-2.395,0-4,0-4,0s-1.143,0.024-1.143-1.153
				c0-1.424,0-10.384,0-10.384s0.161-1.153,1.143-1.153c0.981,0,2.286,0,2.286,0s1.144,0.279,1.144,1.153v0.577
				c0,0-0.038,1.154,1.143,1.154c0.826,0,2.857,0,2.857,0s1.143-0.066,1.143,1.154c0,1.063,0,4.615,0,4.615L14,12.008V4.052L10,1z
				 M9.013,4.052V2.063l2.993,1.989H9.013z M12.225,12.981c-0.232-0.258-0.629-0.357-0.963-0.315
				c0.446-0.678,0.802-1.247,0.802-2.206c0-1.773-1.358-3.468-3.532-3.468C6.787,6.993,5.072,8.186,5,10.46
				c-0.049,1.567,1.205,3.468,3.532,3.468c0.809,0,1.459-0.225,1.954-0.539c-0.102,0.301-0.044,0.638,0.188,0.896l1.517,1.355
				c0.359,0.402,1.005,0.452,1.438,0.111c0.436-0.339,0.495-0.94,0.135-1.342L12.225,12.981z M8.531,12.981
				c-1.398,0-2.57-1.12-2.569-2.68c0-1.274,1.032-2.364,2.569-2.364c1.666,0.002,2.57,1.07,2.569,2.522
				C11.101,11.917,9.926,12.981,8.531,12.981z"/>
		</g>
	</g>
	<g id="_export">
		<g>
			<path fill-rule="evenodd" clip-rule="evenodd" d="M13.992,12.997c-0.141,0.18-0.715,0.799-1.235,1
				c-0.05,0.883-0.599,0.83-0.478,0.861c-2.393,0-7.995,0-7.995,0s-1.142,0.025-1.142-1.154c0-1.426,0-10.395,0-10.395
				s0.16-1.154,1.142-1.154c0.981,0,2.284,0,2.284,0S7.71,2.435,7.71,3.31v0.578c0,0-0.037,1.155,1.142,1.155
				c0.827,0,2.856,0,2.856,0s1.142-0.065,1.142,1.155c0,1.064,0,1.621,0,1.621l1.143,1.202V4.055L9.995,1H3.142
				C3.142,1,2,0.995,2,1.948c0,1.985,0,13.185,0,13.185S2.001,16,3.028,16c1.175,0,6.958-0.006,9.964-0.006
				c0.075,0,0.955-0.031,1-0.998C13.992,15.055,14.011,13.29,13.992,12.997z M9.008,2.064l2.991,1.991H9.008V2.064z M13.992,10.997
				l-3.928-3v2.182H5.997v1.636h4.067v2.182L13.992,10.997z"/>
		</g>
	</g>
	<g id="userManageLeft">
		<g>
			<path fill-rule="evenodd" clip-rule="evenodd" d="M12,7V6h-1V5h-1V4H9V3H8v2h1v1h1v1h1v2h-1v1H9v1.001H8V13h1v-1h1v-0.999h1V10h1
				V9h1V7H12z M8,9h1V7H8V6H7V5H6V4H5V3H4v2h1v1h1v1h1v2H6v1H5v1.001H4V13h1v-1h1v-0.999h1V10h1V9z"/>
		</g>
	</g>
	<g id="userManageRight">
		<g>
			<path fill-rule="evenodd" clip-rule="evenodd" d="M7,10H6V9H5V7h1V6h1V4.999h1V3H7v1H6v0.999H5V6H4v1H3v2h1v1h1v1h1v1h1v1h1v-2H7
				V10z M10,7V6h1V4.999h1V3h-1v1h-1v0.999H9V6H8v1H7v2h1v1h1v1h1v1h1v1h1v-2h-1v-1h-1V9H9V7H10z"/>
		</g>
	</g>
	<g id="copy">
		<g>
			<path fill-rule="evenodd" clip-rule="evenodd" d="M13.998,4.055L10,1H5.143C5.143,1,4,0.995,4,1.948V3
				c0,0.843,0.001,0.828,0.001,1.19c0,0,0,0-0.001,0c0,3.41,0,8.945,0,8.945s0.002,0.865,1.028,0.865
				c0.907,0,3.367-0.002,5.826-0.003c0-0.012-0.001-0.021-0.001-0.033c0,0.023,0.689,0.009,0.997,0.032c0.391,0,0.776,0,1.149,0
				c0.074,0,0.953-0.031,1-0.999v-0.001C14,11.839,13.998,4.055,13.998,4.055z M9.012,2.064l2.992,1.99H9.012V2.064z M12.285,12.859
				c-2.395,0-6,0-6,0s-1.143,0.025-1.143-1.155c0-1.425,0-8.395,0-8.395s0.161-1.154,1.143-1.154h0.286c0,0,1.143,0.279,1.143,1.154
				v0.578c0,0-0.038,1.154,1.143,1.154c0.827,0,2.856,0,2.856,0s1.143-0.065,1.143,1.155c0,0.465-0.002,5.081-0.002,5.769
				C12.854,12.564,13,12.859,12.285,12.859z M10.285,14.859c-2.394,0-6,0-6,0s-1.143,0.024-1.143-1.155c0-1.426,0-8.395,0-8.395
				S3.272,4.387,4,4.191V3C3.352,3,3.143,3,3.143,3S2,2.994,2,3.947c0,1.985,0,11.188,0,11.188S2.002,16,3.029,16
				c1.177,0,4.962-0.004,7.971-0.004c0.074,0,0.953-0.031,1-1v-0.968c0-0.015-0.062-0.024-0.149-0.031c-0.329,0-0.663,0-0.996,0.001
				C10.859,14.574,10.986,14.859,10.285,14.859z"/>
		</g>
	</g>
	<g id="search">
		<g>
			<path d="M14.607,13.382l-2.564-2.385c-0.387-0.431-1.048-0.597-1.605-0.524c0.744-1.134,1.338-2.082,1.338-3.685
			C11.775,3.829,9.514,1,5.889,1C2.982,1,0.123,2.992,0.002,6.788c-0.082,2.616,2.009,5.788,5.887,5.788
			c1.348,0.001,2.433-0.372,3.257-0.896c-0.17,0.5-0.072,1.063,0.313,1.493l2.525,2.265c0.601,0.672,1.677,0.754,2.398,0.186
			C15.107,15.057,15.208,14.053,14.607,13.382z M5.929,11.374c-2.519,0-4.63-2.017-4.628-4.823c0-2.295,1.857-4.256,4.628-4.256
			c3.002,0.004,4.631,1.927,4.629,4.54C10.559,9.458,8.443,11.374,5.929,11.374z M2.691,5.551c0.835,0.55,1.215-0.724,1.215-0.724
			S5.897,3.64,6.091,4.351C6.861,4.142,6.352,3.38,6.352,3.38S3.565,2.827,2.691,5.551z"/>
		</g>
	</g>
	<g id="show-pass">
		<g>
			<path d="M5.213,5.505C5.057,5.391,4.926,5.287,4.809,5.189L1.585,2l-0.59,0.73l2.384,2.358C1.078,6.274,0,7.998,0,7.998
			S2.686,12,8,12c0.768,0,1.475-0.089,2.13-0.23L13.396,15l0.59-0.73L5.155,5.531C5.175,5.523,5.193,5.513,5.213,5.505z
			 M5.528,7.215C5.453,7.45,5.405,7.695,5.405,7.953c0,1.38,1.162,2.499,2.595,2.499c0.244,0,0.477-0.038,0.7-0.099l0.522,0.516
			C8.831,10.967,8.426,11.037,8,11.037c-3.575,0-6.4-3.039-6.4-3.039s1.002-1.156,2.656-2.042L5.528,7.215z M8,3.995
			c-0.611,0-1.185,0.049-1.722,0.136c0.11,0.183,0.586,0.771,0.7,0.922C7.32,5.004,7.715,4.958,8,4.958c3.791,0,6.4,3.04,6.4,3.04
			s-1.033,1.111-2.642,1.99c0.246,0.133,0.697,0.638,0.935,0.84C14.893,9.646,16,7.998,16,7.998S13.525,3.995,8,3.995z M10.51,8.588
			c0.057-0.203,0.086-0.416,0.086-0.635c0-1.381-1.162-2.5-2.596-2.5c-0.206,0-0.406,0.023-0.599,0.067
			C8.55,6.613,8.87,7.058,10.51,8.588z"/>
		</g>
	</g>
	<g id="hide-pass">
		<g>
			<path d="M8,4C2.475,4,0,8,0,8s2.686,4,8,4c5.314,0,8-4,8-4S13.525,4,8,4z M8,11.064C4.298,11.064,1.373,8,1.373,8
			S4.075,4.935,8,4.935C11.926,4.935,14.627,8,14.627,8S11.701,11.064,8,11.064z M8,5.474C6.567,5.474,5.405,6.605,5.405,8
			c0,1.396,1.162,2.525,2.595,2.525c1.434,0,2.596-1.131,2.596-2.525C10.596,6.605,9.434,5.474,8,5.474z"/>
		</g>
	</g>
	<g id="start">
		<g>
		<path fill-rule="evenodd" clip-rule="evenodd" d="M12.803,3.197c-2.928-2.929-7.676-2.929-10.606,0c-2.928,2.929-2.928,7.676,0,10.608c2.93,2.928,7.679,2.928,10.606,0
			C15.732,10.873,15.732,6.125,12.803,3.197z M12.031,13.033c-2.502,2.502-6.557,2.502-9.058,0c-2.501-2.5-2.501-6.557,0-9.059
			s6.556-2.502,9.058,0C14.534,6.477,14.534,10.533,12.031,13.033z M6.027,12l3.976-3.484L6.027,5.03V12z"/>
	</g>
	</g>
	<g id="pause">
		<g>
		<path fill-rule="evenodd" clip-rule="evenodd" d="M12.805,3.197c-2.93-2.929-7.679-2.929-10.608,0c-2.928,2.929-2.928,7.678,0,10.608c2.93,2.928,7.679,2.928,10.608,0
			C15.732,10.875,15.732,6.125,12.805,3.197z M12.033,13.035c-2.502,2.5-6.559,2.5-9.06,0c-2.502-2.502-2.502-6.559,0-9.062
			c2.501-2.501,6.558-2.501,9.06,0C14.535,6.476,14.535,10.533,12.033,13.035z M9.229,5.575C8.441,5.534,8.443,6.42,8.443,6.42
			v4.208c0,0,0.002,0.838,0.786,0.838c0.767,0,0.775-0.838,0.775-0.838V6.42C10.005,6.42,9.986,5.615,9.229,5.575z M5.792,5.575
			C5.004,5.534,5.006,6.42,5.006,6.42v4.208c0,0,0.002,0.838,0.786,0.838c0.767,0,0.777-0.838,0.777-0.838V6.42
			C6.568,6.42,6.55,5.615,5.792,5.575z"/>
	</g>
	</g>
	<g id="checkbox">
	<g>
		<path fill-rule="evenodd" clip-rule="evenodd" d="M3.366,7.621l3.247,2.66c0,0,5.866-5.911,5.915-6.047
			c0,0.122,1.381,1.197,1.338,1.242c0.104-0.105-7.217,7.384-7.252,7.29c0.022,0.104-4.479-3.902-4.479-3.902L3.366,7.621z"/>
	</g>
</g>
</svg>
