
<svg  xmlns="http://www.w3.org/2000/svg" viewBox="0 0 16 16" >
<path fill="#333" d="M8,15.3c-1.9,0-3.8-0.8-5.1-2.1C1.5,11.8,0.7,9.9,0.7,8c0-1.9,0.8-3.8,2.1-5.1C4.2,1.5,6.1,0.7,8,0.7c1,0,1.9,0.2,2.8,0.6
	c0.9,0.4,1.6,0.9,2.3,1.6c0.7,0.7,1.2,1.4,1.6,2.3C15.1,6.1,15.3,7,15.3,8c0,1.9-0.8,3.8-2.1,5.1C11.8,14.5,9.9,15.3,8,15.3L8,15.3z
	 M8,1.3c-3.7,0-6.7,3-6.7,6.7c0,3.7,3,6.7,6.7,6.7c3.7,0,6.7-3,6.7-6.7C14.7,4.3,11.7,1.3,8,1.3L8,1.3z M8,1.2"/>
<rect x="0.7" y="0.7" fill="none" width="14.6" height="14.6"/>
<path fill="#333" d="M6.9,8.2H4.6c-0.5,0-0.9,0.4-0.9,0.9v2.2c0,0.2,0.1,0.5,0.3,0.6c0.2,0.2,0.4,0.3,0.6,0.3h2.2c0.5,0,0.9-0.4,0.9-0.9V9.1
	C7.8,8.6,7.4,8.2,6.9,8.2z M7.3,11.3c0,0.2-0.2,0.4-0.4,0.4H4.6c-0.2,0-0.4-0.2-0.4-0.4V9.1c0-0.1,0-0.2,0.1-0.3
	c0.1-0.1,0.2-0.1,0.3-0.1h2.2c0.1,0,0.2,0,0.3,0.1C7.3,8.9,7.3,9,7.3,9.1V11.3z"/>
<path fill="#333" d="M11.4,8.2H9.1c-0.5,0-0.9,0.4-0.9,0.9v2.2c0,0.5,0.4,0.9,0.9,0.9h2.2c0.2,0,0.5-0.1,0.6-0.3c0.2-0.2,0.3-0.4,0.3-0.6V9.1
	C12.2,8.6,11.8,8.2,11.4,8.2z M11.8,11.3c0,0.2-0.2,0.4-0.4,0.4H9.1c-0.2,0-0.4-0.2-0.4-0.4V9.1c0-0.1,0-0.2,0.1-0.3
	C8.9,8.7,9,8.7,9.1,8.7h2.2c0.2,0,0.4,0.2,0.4,0.4V11.3z"/>
<path d="M11.4,3.8H9.1c-0.5,0-0.9,0.4-0.9,0.9v2.2c0,0.2,0.1,0.5,0.3,0.6c0.2,0.2,0.4,0.3,0.6,0.3h2.2
	c0.2,0,0.5-0.1,0.6-0.3c0.2-0.2,0.3-0.4,0.3-0.6V4.7C12.2,4.2,11.8,3.8,11.4,3.8z M11.8,6.9c0,0.2-0.2,0.4-0.4,0.4H9.1
	c-0.2,0-0.4-0.2-0.4-0.4V4.7c0-0.2,0.2-0.4,0.4-0.4h2.2c0.2,0,0.4,0.2,0.4,0.4V6.9z"/>
<path fill="#333" d="M6.9,3.8H4.6c-0.5,0-0.9,0.4-0.9,0.9v2.2c0,0.5,0.4,0.9,0.9,0.9h2.2c0.5,0,0.9-0.4,0.9-0.9V4.7C7.8,4.2,7.4,3.8,6.9,3.8z
	 M7.3,6.9c0,0.2-0.2,0.4-0.4,0.4H4.6c-0.2,0-0.4-0.2-0.4-0.4V4.7c0-0.2,0.2-0.4,0.4-0.4h2.2c0.1,0,0.2,0,0.3,0.1
	c0.1,0.1,0.1,0.2,0.1,0.3V6.9z"/>
</svg>
