<svg version="1.1" id="_x31_" xmlns="http://www.w3.org/2000/svg" xmlns:xlink="http://www.w3.org/1999/xlink" x="0px" y="0px"
	 width="16px" height="16px" viewBox="0 0 16 16" enable-background="new 0 0 16 16" xml:space="preserve">
<path id="pre" fill-rule="evenodd" clip-rule="evenodd" d="M6,8l4-4v1L7,8l3,3.001V12L6,8"/>
<path id="next" fill-rule="evenodd" clip-rule="evenodd" d="M10,8L6,4v1l3,3l-3,3.001V12L10,8"/>
<g id="last">
	<g>
		<path fill-rule="evenodd" clip-rule="evenodd" d="M4,4v1l3,3l-3,3.001V12L8,8L4,4z M8,4v1l3,3l-3,3.001V12l4-4L8,4z"/>
	</g>
</g>
<g id="first">
	<g>
		<path fill-rule="evenodd" clip-rule="evenodd" d="M12,4L8,8l4,4v-0.999L9,8l3-3V4z M8,5V4L4,8l4,4v-0.999L4.999,8L8,5z"/>
	</g>
</g>
</svg>
