<svg version="1.1" id="_x31_" xmlns="http://www.w3.org/2000/svg" xmlns:xlink="http://www.w3.org/1999/xlink" x="0px" y="0px"
	 width="24px" height="24px" viewBox="0 0 24 24" enable-background="new 0 0 24 24" xml:space="preserve">
<g id="org">
	<g>
		<path d="M22.163,15.275l0.394-0.315C22.829,14.662,23,14.271,23,13.84c0-0.619-0.512-1.32-1.02-1.61l-1.123-6.701
			c0.188-0.274,0.468-0.771,0.468-1.13c0-0.941-0.767-1.704-1.712-1.704c-0.699,0-1.336,0.456-1.6,1.056L7.604,2.885
			C7.303,2.451,6.642,2,6.08,2C5.157,2,4.409,2.763,4.409,3.704c0,0.51,0.224,0.962,0.572,1.275l-2.733,8.986
			C1.616,14.213,1,14.826,1,15.549c0,0.942,0.761,1.705,1.698,1.705c0.356,0,0.852-0.109,1.125-0.299l9.247,5.287l0.337,0.154
			c0.17,0.153,0.368,0.438,0.592,0.511l0.071,0.075l0.041-0.039C14.243,22.977,14.379,23,14.521,23c0.93,0,1.684-0.764,1.684-1.704
			c0-0.129,0.148-0.583,0.123-0.704l5.207-5.128C21.701,15.425,22.021,15.359,22.163,15.275z M4.269,14.902l4.585-1.286
			c0.28,1.067,1.232,1.858,2.382,1.893l2.093,4.585c-0.25,0.254-0.415,0.588-0.468,0.961l-8.567-4.939
			c0.062-0.18,0.103-0.365,0.103-0.564C4.397,15.318,4.351,15.102,4.269,14.902z M7.742,3.783l10.195,0.955
			c0,0,0.166,0.487,0.317,0.687l-6.211,5.13c-0.235-0.072-0.479-0.121-0.737-0.121c-0.41,0-0.792,0.105-1.135,0.277L7.43,4.7
			C7.615,4.44,7.727,4.125,7.742,3.783z M19.732,13.201l-5.902-0.457c-0.061-0.655-0.361-1.235-0.824-1.651l6.137-5.066
			c0.15,0.043,0.309,0.074,0.474,0.074c0.153,0,0.303-0.027,0.444-0.065l0.981,6.153C20.447,12.28,19.955,12.669,19.732,13.201z
			 M14.521,19.593c-0.098,0-0.188,0.013-0.279,0.028l-1.963-4.299c0.681-0.28,1.202-0.852,1.435-1.555l5.94,0.461
			c0.106,0.441,0.392,0.813,0.777,1.043l-4.813,4.742C15.324,19.755,14.943,19.593,14.521,19.593z M6.08,5.408
			c0.177,0,0.345-0.036,0.505-0.088l2.763,6.051c-0.271,0.33-0.463,0.723-0.541,1.161l-5.349,1.5c-0.09-0.046-0.185-0.082-0.284-0.111
			l2.585-8.53C5.812,5.397,6.027,5.408,6.08,5.408z"/>
	</g>
</g>
<g id="critical">
	<g>
		<path d="M18.924,5.076c-4.1-4.101-10.748-4.101-14.848,0c-4.1,4.1-4.101,10.75,0,14.849c4.101,4.101,10.749,4.101,14.848,0
			C23.025,15.825,23.025,9.176,18.924,5.076z M17.996,18.997c-3.588,3.588-9.405,3.588-12.993,0c-3.587-3.588-3.587-9.405,0-12.994
			c3.588-3.588,9.405-3.588,12.993,0C21.585,9.592,21.585,15.409,17.996,18.997z M15.018,7.27l-3.488,3.5l-3.487-3.5L6.3,9.019
			l3.486,3.5L6.3,16.018l1.743,1.752l3.487-3.5l3.488,3.5l1.742-1.752l-3.486-3.498l3.486-3.5L15.018,7.27z"/>
	</g>
</g>
<g id="warning">
	<g>
		<path d="M10.213,9.991l0.01,1.684l0.636,3.63h1.343l0.601-3.63l-0.004-1.684c0,0-0.554-1.347-1.252-1.347
			C10.759,8.645,10.213,9.991,10.213,9.991z M21.35,19.441c-2.346-4.344-7.039-13.033-8.967-16.603
			c-0.704-1.143-1.11-1.073-1.668-0.066C8.818,6.316,4.083,15.152,1.681,19.48C0.567,21.172,1.007,22,1.675,22h19.702
			C22.23,22,22.191,21.001,21.35,19.441z M2.901,20.709c0,0,3.808-7.575,8.598-16.443c2.146,3.975,6.442,12.452,8.597,16.443H2.901z
			 M11.506,16.675c-0.724,0-1.311,0.597-1.311,1.331s0.587,1.331,1.311,1.331c0.724,0,1.311-0.597,1.311-1.331
			S12.23,16.675,11.506,16.675z"/>
	</g>
</g>
<path id="close" fill-rule="evenodd" clip-rule="evenodd" d="M3.117,4.585c0,0-0.037-1.661-0.115-1.583
	c-0.018,0.017,1.597,0.1,1.597,0.1l7.406,7.417l7.405-7.417c0,0,1.631-0.02,1.553-0.1c-0.062-0.061-0.071,1.583-0.071,1.583
	l-7.406,7.417l7.406,7.417c0,0,0.188,1.453,0.071,1.57c-0.049,0.049-1.553-0.086-1.553-0.086l-7.405-7.417l-7.406,7.417
	c0,0-1.658,0.025-1.597,0.086c0.079,0.08,0.115-1.57,0.115-1.57l7.406-7.417L3.117,4.585z"/>
<g id="info">
	<g>
		<path d="M12.076,10.632h-1.127C10.775,10.632,10.58,11,10.58,11l-0.368,3.895v4.053c0,0,0.026,0.367,0.368,0.367h1.842
			c0.366,0,0.369-0.367,0.369-0.367v-4.053L12.422,11C12.422,11,12.281,10.632,12.076,10.632z M18.925,5.075
			c-4.101-4.101-10.749-4.101-14.85,0c-4.101,4.101-4.101,10.748,0,14.85c4.101,4.101,10.749,4.101,14.85,0
			C23.023,15.823,23.023,9.176,18.925,5.075z M17.997,18.996c-3.589,3.588-9.405,3.588-12.994,0c-3.587-3.589-3.587-9.405,0-12.993
			c3.589-3.588,9.405-3.588,12.994,0C21.585,9.591,21.585,15.407,17.997,18.996z M11.501,6.054c-0.712,0-1.289,0.578-1.289,1.29
			c0,0.712,0.577,1.29,1.289,1.29s1.29-0.577,1.29-1.29C12.791,6.632,12.213,6.054,11.501,6.054z"/>
	</g>
</g>
<g id="event">
	<g>
		<path d="M7.009,5.007c0.553,0,1.002-0.404,1.002-0.902V2.902C8.011,2.404,7.562,2,7.009,2C6.456,2,6.007,2.404,6.007,2.902v1.203
			C6.007,4.604,6.456,5.007,7.009,5.007z M16.99,5.007c0.554,0,1.002-0.404,1.002-0.902V2.902C17.992,2.404,17.544,2,16.99,2
			c-0.553,0-1.002,0.404-1.002,0.902v1.203C15.988,4.604,16.438,5.007,16.99,5.007z M4.994,16h4.02v-3.014L4.99,12.993L4.994,16z
			 M7.99,14.01v0.993H6.016L6.008,14.01H7.99z M14.994,20h4.02v-3.014l-4.022,0.006L14.994,20z M17.99,18.01v0.993h-1.975
			l-0.009-0.993H17.99z M19.973,4.143h-0.521c-0.228,0-0.054,2.143-1.419,2.143h-1.71c-1.468,0-1.242-2.143-1.421-2.143H9.097
			c-0.248,0-0.03,2.143-1.419,2.143h-1.71c-1.445,0-1.231-2.143-1.419-2.143H4.232c0.009,0-0.034,0-0.182,0H4.027
			C1.927,4.143,2,6.244,2,6.244s0,12.499,0,14.654C2,23.057,4.027,23,4.027,23s13.926,0,15.946,0C21.99,23,22,20.898,22,20.898
			s0-12.603,0-14.655C22,4.19,19.973,4.143,19.973,4.143z M20.788,20.577c0,1.274-0.84,1.204-1.212,1.212c0,0-14.2-0.029-15.152,0
			c-1.316,0.039-1.212-1.212-1.212-1.212s0-13.041,0-14.135c0-1.095,0.917-0.871,0.917-0.871s-0.137,0-0.291,0
			c0.278,0,0.146,1.881,1.798,1.881H8.06c1.548,0,1.36-1.881,1.746-1.881h4.387c0.342,0,0.129,1.881,1.746,1.881h2.424
			c1.531,0,1.541-1.635,1.755-1.841c-0.074-0.025-0.156-0.04-0.247-0.04h0.29c-0.017,0-0.028,0.026-0.043,0.04
			c0.509,0.17,0.67,0.831,0.67,0.831S20.788,20.438,20.788,20.577z M4.994,20h4.02v-3.014L4.99,16.992L4.994,20z M7.99,18.01v0.993
			H6.016L6.008,18.01H7.99z M10,16h4v-3h-4V16z M11,14h2v1h-2V14z M10,12h4V9h-4V12z M14.994,16h4.02v-3.014l-4.022,0.007L14.994,16
			z M17.99,14.01v0.993h-1.975l-0.009-0.993H17.99z M14.994,12h4.02V8.986L14.99,8.993L14.994,12z M17.99,10.009v0.994h-1.975
			l-0.009-0.993L17.99,10.009z M10,20h4v-3h-4V20z M11,18h2v1h-2V18z M4.994,12h4.02V8.986L4.99,8.993L4.994,12z M7.99,10.009v0.994
			H6.016L6.008,10.01L7.99,10.009z"/>
	</g>
</g>
</svg>
