<svg version="1.1" id="_x31__2_" xmlns="http://www.w3.org/2000/svg" xmlns:xlink="http://www.w3.org/1999/xlink" x="0px" y="0px"
	 width="16px" height="16px" viewBox="0 0 16 16" enable-background="new 0 0 16 16" xml:space="preserve">

	<g id="check"><g id="_x31__1_">
	<path fill="#FFFFFF" d="M2.133,15.5c-0.9,0-1.633-0.732-1.633-1.634V2.134C0.5,1.234,1.233,0.5,2.133,0.5h11.734
		c0.9,0,1.633,0.732,1.633,1.634v11.732c0,0.899-0.732,1.634-1.633,1.634H2.133z"/>
	<path fill="#DDDDDD" d="M13.867,1C14.492,1,15,1.509,15,2.134v11.732C15,14.491,14.492,15,13.867,15H2.133
		C1.508,15,1,14.491,1,13.866V2.134C1,1.509,1.508,1,2.133,1H13.867 M13.867,0H2.133C0.955,0,0,0.955,0,2.134v11.732
		C0,15.045,0.955,16,2.133,16h11.734C15.045,16,16,15.045,16,13.866V2.134C16,0.955,15.045,0,13.867,0L13.867,0z"/>
</g>
<path id="_x31_" fill="#e6189a" d="M3.26,7.572l3.321,2.804c0,0,6-6.231,6.05-6.376c0,0.128,1.412,1.262,1.368,1.309
	c0.106-0.109-7.382,7.789-7.418,7.688C6.604,13.105,2,8.882,2,8.882L3.26,7.572z"/>
	</g>
	<g id="uncheck">
		<g id="_x32_">
	<path fill="#FFFFFF" d="M2.133,15.5c-0.9,0-1.633-0.732-1.633-1.633V2.133c0-0.9,0.733-1.633,1.633-1.633h11.734
		c0.9,0,1.633,0.733,1.633,1.633v11.734c0,0.9-0.732,1.633-1.633,1.633H2.133L2.133,15.5z"/>
	<path fill="#DDDDDD" d="M13.867,1C14.492,1,15,1.508,15,2.133v11.734C15,14.492,14.492,15,13.867,15H2.133
		C1.508,15,1,14.492,1,13.867V2.133C1,1.508,1.508,1,2.133,1H13.867 M13.867,0H2.133C0.955,0,0,0.956,0,2.133v11.734
		C0,15.045,0.955,16,2.133,16h11.734C15.045,16,16,15.045,16,13.867V2.133C16,0.956,15.045,0,13.867,0L13.867,0z"/>
</g>
	</g>
</svg>
