<svg version="1.1" id="_x31_" xmlns="http://www.w3.org/2000/svg" xmlns:xlink="http://www.w3.org/1999/xlink" x="0px" y="0px"
	 width="16px" height="16px" viewBox="0 0 16 16" enable-background="new 0 0 16 16" xml:space="preserve">
<g>
	<g>
		<path d="M1.671,11.807c-0.269,0-0.487-0.225-0.487-0.506v-8.6c0-0.28,0.218-0.506,0.487-0.506h11.661
			c0.271,0,0.487,0.227,0.487,0.506c0,0,0,2.276,0,4.487c0.438,0.211,0.667,0.323,1.167,0.5c0-2.686,0-5.645,0-5.645
			C15.034,2.109,15.014,1,13.986,1H1C0.99,1,0,0.947,0,2.043v9.914c0-0.167-0.027,1.044,1,1.044c0,0,2.953,0,6.656,0
			c0.013-0.03-0.337-1.194-0.375-1.194C4.026,11.807,1.671,11.807,1.671,11.807z M7.594,13.994
			c-0.736-0.001-1.511-0.002-1.614,0.005c-0.027,0.002,0.472,1.335-2.499,1.335c-0.417,0-0.5,0.332-0.5,0.332
			c0,0.186,0.224,0.334,0.5,0.334c0,0,2.119,0,4.175,0C7.563,15.531,7.654,14.027,7.594,13.994z M14.303,11.992H9.696
			c-0.385,0-0.697,0.242-0.697,0.542v2.924c0,0.3,0.313,0.542,0.697,0.542h4.604C14.688,16,15,15.758,15,15.458v-2.924
			C15,12.234,14.688,11.992,14.303,11.992z M12.004,15.012c-0.541,0-0.98-0.447-0.98-1.002c0-0.554,0.439-1.002,0.98-1.002
			c0.543,0,0.982,0.448,0.982,1.002C12.986,14.564,12.547,15.012,12.004,15.012z M12.996,11.988h-1.637
			C11.93,11.99,12.996,11.995,12.996,11.988z M14.012,11.99v-1.227C14.012,9.236,13.113,8,12.006,8
			c-1.108,0-2.008,1.236-2.008,2.764v1.227c0.003,0,0.614-0.001,1.361-0.001c-0.209,0-0.355-0.001-0.355,0v-1.185
			c0-1,0.107-1.809,0.996-1.809c0.828,0,0.996,0.809,0.996,1.809v1.184v0.001C13.576,11.989,14.012,11.989,14.012,11.99z"/>
	</g>
</g>
</svg>
