<svg version="1.1" id="_x31_" xmlns="http://www.w3.org/2000/svg" xmlns:xlink="http://www.w3.org/1999/xlink" x="0px" y="0px"
	 width="16px" height="16px" viewBox="0 0 16 16" enable-background="new 0 0 16 16" xml:space="preserve">
<g>
	<g>
		<path d="M7.513,13.993c-0.712-0.001-1.438-0.001-1.535,0.005C5.95,14,6.449,15.333,3.478,15.333c-0.416,0-0.5,0.332-0.5,0.332
			c0,0.186,0.225,0.334,0.5,0.334c0,0,2.118,0,4.174,0C7.76,16.068,7.474,13.962,7.513,13.993z M5.468,11.806
			c-2.58,0-3.799,0-3.799,0c-0.27,0-0.488-0.225-0.488-0.506V2.7c0-0.28,0.219-0.506,0.488-0.506h11.66
			c0.271,0,0.487,0.227,0.487,0.506c0,0,0,5.692,0,7.814c0.312,0.141,0.612,0.146,1.167,0.416c0-2.534,0-8.888,0-8.888
			C15.031,2.109,15.011,1,13.983,1H0.997c-0.01,0-1-0.053-1,1.043v9.914c0-0.167-0.027,1.044,1,1.044c0,0,1.816,0,4.921,0
			C5.92,13.035,5.618,11.944,5.468,11.806z M8.012,11.987c0.005,0.008,1.066,0.002,1.637,0H8.012z M9.005,8.995
			c0.89,0,0.996,0.809,0.996,1.809v1.185c0.002-0.001-0.145,0-0.353,0c0.742,0,1.354,0.001,1.358,0.001v-1.227
			C11.007,9.235,10.107,8,9,8c-1.106,0-2.003,1.236-2.003,2.763v1.227c0-0.001,0.435-0.001,1.015-0.001v-0.001v-1.184
			C8.012,9.804,8.181,8.995,9.005,8.995z M14.306,11.991H9.703c-0.384,0-0.696,0.242-0.696,0.543v2.924
			c0,0.299,0.313,0.541,0.696,0.541h4.603c0.384,0,0.697-0.242,0.697-0.541v-2.924C15.003,12.233,14.69,11.991,14.306,11.991z
			 M11.999,15.011c-0.543,0-0.98-0.447-0.98-1.002c0-0.554,0.438-1.002,0.98-1.002c0.542,0,0.982,0.448,0.982,1.002
			C12.981,14.563,12.541,15.011,11.999,15.011z"/>
	</g>
</g>
</svg>
