<svg version="1.1" id="_x31_" xmlns="http://www.w3.org/2000/svg" xmlns:xlink="http://www.w3.org/1999/xlink" x="0px" y="0px"
	 width="16px" height="16px" viewBox="0 0 16 16" enable-background="new 0 0 16 16" xml:space="preserve">
<g id="_x32_">
	<path fill="#FFFFFF" d="M2.133,15.5c-0.9,0-1.633-0.732-1.633-1.633V2.133c0-0.9,0.733-1.633,1.633-1.633h11.734
		c0.9,0,1.633,0.733,1.633,1.633v11.734c0,0.9-0.732,1.633-1.633,1.633H2.133L2.133,15.5z"/>
	<path fill="#DDDDDD" d="M13.867,1C14.492,1,15,1.508,15,2.133v11.734C15,14.492,14.492,15,13.867,15H2.133
		C1.508,15,1,14.492,1,13.867V2.133C1,1.508,1.508,1,2.133,1H13.867 M13.867,0H2.133C0.955,0,0,0.956,0,2.133v11.734
		C0,15.045,0.955,16,2.133,16h11.734C15.045,16,16,15.045,16,13.867V2.133C16,0.956,15.045,0,13.867,0L13.867,0z"/>
</g>
</svg>
