<svg version="1.1" id="_x31_" xmlns="http://www.w3.org/2000/svg" xmlns:xlink="http://www.w3.org/1999/xlink" x="0px" y="0px"
	 width="16px" height="16px" viewBox="0 0 16 16" enable-background="new 0 0 16 16" xml:space="preserve">
<g>
	<path fill-rule="evenodd" clip-rule="evenodd" fill="#F5F5F5" d="M2,0h12c1.104,0,2,0.896,2,2v12c0,1.104-0.896,2-2,2H2
		c-1.104,0-2-0.896-2-2V2C0,0.896,0.896,0,2,0z"/>
	<path fill="#CCCCCC" d="M9,0H6.5C6.224,0,6,0.224,6,0.5S6.224,1,6.5,1H9c0.276,0,0.5-0.224,0.5-0.5S9.276,0,9,0L9,0z M4,0H2l0,0
		C1.999,0,1.998,0,1.996,0c0,0,0,0-0.001,0C1.994,0,1.994,0,1.993,0c0,0-0.001,0-0.001,0C1.99,0,1.99,0,1.989,0c0,0-0.001,0-0.001,0
		C1.987,0,1.986,0,1.984,0c0,0,0,0,0,0C1.983,0,1.981,0,1.98,0c0,0-0.001,0-0.001,0S1.978,0,1.977,0c0,0-0.001,0-0.001,0
		S1.974,0,1.973,0c0,0,0,0-0.001,0C1.971,0,1.97,0,1.969,0c0,0,0,0-0.001,0C1.967,0,1.965,0,1.964,0c0,0,0,0-0.001,0
		C1.962,0,1.961,0,1.96,0c0,0,0,0-0.001,0C1.958,0,1.958,0,1.957,0c0,0,0,0-0.001,0C1.955,0,1.954,0,1.953,0c0,0,0,0-0.001,0
		C1.951,0,1.949,0,1.948,0h0c-0.001,0-0.002,0-0.003,0c0,0,0,0-0.001,0c-0.001,0-0.001,0-0.002,0c0,0-0.001,0-0.001,0
		s-0.001,0-0.002,0c0,0-0.001,0-0.001,0c-0.001,0-0.002,0-0.004,0l0,0c-0.001,0-0.002,0-0.003,0c0,0-0.001,0-0.001,0
		c-0.001,0-0.002,0-0.003,0c0,0,0,0-0.001,0c-0.001,0-0.002,0-0.003,0c0,0,0,0-0.001,0c-0.002,0-0.005,0-0.007,0c0,0,0,0-0.001,0
		c-0.001,0-0.002,0-0.003,0c0,0,0,0-0.001,0c-0.001,0-0.001,0-0.002,0c0,0-0.001,0-0.001,0c-0.001,0-0.002,0-0.004,0l0,0
		c-0.001,0-0.002,0-0.004,0c0,0,0,0,0,0c-0.001,0-0.002,0-0.003,0c0,0,0,0-0.001,0c-0.001,0-0.002,0-0.003,0c0,0,0,0-0.001,0
		c-0.001,0-0.002,0-0.003,0l0,0c-0.001,0-0.002,0-0.004,0h0c-0.001,0-0.002,0-0.003,0h0c-0.001,0-0.002,0-0.003,0
		c0,0-0.001,0-0.001,0c-0.001,0-0.002,0-0.003,0c0,0,0,0,0,0c-0.002,0-0.005,0-0.007,0c0,0,0,0,0,0c-0.001,0-0.002,0-0.003,0h0
		c-0.001,0-0.002,0-0.003,0h0c-0.002,0-0.005,0-0.008,0l0,0c-0.001,0-0.002,0-0.003,0c0,0,0,0,0,0c-0.001,0-0.002,0-0.003,0
		c0,0,0,0,0,0c-0.002,0-0.005,0-0.008,0.001l0,0c-0.001,0-0.002,0-0.003,0c0,0,0,0,0,0c-0.001,0-0.002,0-0.004,0l0,0
		c-0.004,0-0.008,0-0.011,0.001c0,0,0,0-0.001,0c-0.001,0-0.002,0-0.003,0c0,0,0,0,0,0c-0.004,0-0.008,0.001-0.012,0.001l0,0
		c-0.001,0-0.002,0-0.003,0c0,0,0,0,0,0c-0.004,0-0.008,0.001-0.012,0.001l0,0c-0.001,0-0.002,0-0.003,0c0,0,0,0,0,0
		c-0.001,0-0.002,0-0.004,0l0,0c-0.002,0-0.005,0-0.007,0c0,0,0,0,0,0c-0.001,0-0.002,0-0.003,0h0c-0.001,0-0.002,0-0.003,0h0
		c-0.002,0-0.005,0.001-0.007,0.001c0,0,0,0,0,0c-0.001,0-0.002,0-0.003,0h0c-0.001,0-0.002,0-0.003,0c0,0,0,0-0.001,0
		c-0.002,0-0.005,0.001-0.007,0.001l0,0c-0.001,0-0.002,0-0.003,0c0,0,0,0-0.001,0c-0.001,0-0.002,0-0.003,0c0,0,0,0-0.001,0
		c-0.001,0-0.002,0-0.003,0c0,0,0,0,0,0c-0.001,0-0.002,0-0.004,0l0,0c-0.001,0-0.002,0-0.003,0c0,0,0,0-0.001,0
		c-0.001,0-0.001,0-0.002,0c0,0-0.001,0-0.001,0c-0.001,0-0.002,0-0.003,0c0,0,0,0-0.001,0c-0.002,0-0.005,0.001-0.007,0.001l0,0
		c-0.001,0-0.002,0-0.003,0c0,0,0,0-0.001,0c-0.001,0-0.002,0-0.002,0c0,0-0.001,0-0.001,0c-0.001,0-0.002,0-0.003,0h0
		c-0.001,0-0.002,0-0.003,0c0,0-0.001,0-0.001,0c-0.001,0-0.001,0-0.002,0c0,0-0.001,0-0.001,0s-0.001,0-0.002,0
		c0,0-0.001,0-0.001,0c-0.001,0-0.001,0-0.002,0c0,0-0.001,0-0.001,0c-0.001,0-0.002,0-0.003,0c0,0-0.001,0-0.001,0
		c-0.001,0-0.001,0-0.002,0c0,0-0.001,0-0.002,0s-0.001,0-0.001,0s-0.001,0-0.002,0c0,0-0.001,0-0.001,0
		c-0.002,0-0.005,0.001-0.007,0.001c0,0,0,0-0.001,0c-0.001,0-0.001,0-0.002,0c0,0,0,0-0.001,0c-0.001,0-0.001,0-0.002,0
		c0,0,0,0-0.001,0C1.639,0.033,1.635,0.033,1.631,0.034h0c-0.001,0-0.002,0-0.003,0l0,0C1.585,0.042,1.544,0.052,1.503,0.063
		c-0.267,0.069-0.427,0.34-0.359,0.607c0.058,0.227,0.261,0.377,0.484,0.377c0.041,0,0.083-0.005,0.124-0.016
		C1.832,1.01,1.916,1,2,1h2c0.276,0,0.5-0.224,0.5-0.5S4.276,0,4,0L4,0z M0.503,1.393c-0.26,0-0.479,0.201-0.499,0.463
		c0,0.01-0.001,0.021-0.002,0.031v0c0,0.001,0,0.002,0,0.002s0,0.001,0,0.001c0,0.001,0,0.002,0,0.004c0,0,0,0.001,0,0.001
		c0,0.001,0,0.001,0,0.002c0,0,0,0.001,0,0.001c0,0.001,0,0.001,0,0.002c0,0.001,0,0.002,0,0.003c0,0,0,0.001,0,0.002
		s0,0.002,0,0.003c0,0,0,0.001,0,0.001c0,0.001,0,0.001,0,0.002c0,0,0,0.001,0,0.001c0,0.001,0,0.002,0,0.004v0
		c0,0.001,0,0.002,0,0.003c0,0,0,0,0,0.001c0,0.001,0,0.002,0,0.003c0,0,0,0,0,0c0,0.001,0,0.003,0,0.004v0c0,0.001,0,0.002,0,0.003
		c0,0,0,0,0,0.001c0,0.003,0,0.005,0,0.008c0,0,0,0,0,0.001c0,0.001,0,0.002,0,0.003v0c0,0.001,0,0.003,0,0.004c0,0,0,0,0,0.001
		c0,0.001,0,0.002,0,0.003c0,0,0,0,0,0.001c0,0.001,0,0.002,0,0.004l0,0c0,0.001,0,0.003,0,0.004c0,0,0,0.001,0,0.001
		c0,0.001,0,0.002,0,0.003c0,0,0,0,0,0.001c0,0.001,0,0.002,0,0.004v0C0,1.979,0,1.98,0,1.981c0,0,0,0.001,0,0.001
		c0,0.001,0,0.002,0,0.003c0,0,0,0,0,0.001c0,0.001,0,0.002,0,0.004c0,0,0,0,0,0.001c0,0.001,0,0.002,0,0.003c0,0,0,0,0,0.001
		C0,1.998,0,1.999,0,2l0,0v2.358c0,0.276,0.224,0.5,0.5,0.5S1,4.634,1,4.358V2c0-0.024,0.001-0.048,0.002-0.072
		c0.02-0.275-0.188-0.515-0.464-0.534C0.527,1.394,0.515,1.393,0.503,1.393L0.503,1.393z M0.5,6.358c-0.276,0-0.5,0.224-0.5,0.5v2.5
		c0,0.275,0.224,0.5,0.5,0.5S1,9.634,1,9.358v-2.5C1,6.582,0.776,6.358,0.5,6.358L0.5,6.358z M0.5,11.358
		c-0.276,0-0.5,0.224-0.5,0.5V14l0,0c0,0.001,0,0.002,0,0.003v0.001c0,0.001,0,0.002,0,0.002c0,0.001,0,0.001,0,0.001
		c0,0.001,0,0.002,0,0.002c0,0.001,0,0.001,0,0.002c0,0,0,0.001,0,0.002c0,0,0,0,0,0.001c0,0,0,0.001,0,0.002v0.001
		c0,0.001,0,0.001,0,0.002v0.001c0,0.001,0,0.002,0,0.003l0,0c0,0.001,0,0.002,0,0.003s0,0.001,0,0.001c0,0.001,0,0.002,0,0.003
		c0,0,0,0,0,0.001c0,0,0,0.001,0,0.002c0,0,0,0,0,0.001c0,0,0,0.001,0,0.002v0.001c0,0.001,0,0.001,0,0.002v0.001
		c0,0.001,0,0.002,0,0.002c0,0.001,0,0.001,0,0.001c0,0.001,0,0.002,0,0.003l0,0c0,0.001,0,0.002,0,0.004l0,0
		c0,0.001,0,0.002,0,0.003c0,0,0,0,0,0.001c0,0,0,0.001,0,0.002c0,0,0,0.001,0,0.001c0,0.001,0,0.001,0,0.002v0.001
		c0,0.001,0,0.001,0,0.002v0.001c0,0.001,0,0.002,0,0.002c0,0.001,0,0.001,0,0.001c0,0.001,0,0.002,0,0.003l0,0
		c0,0.003,0,0.005,0,0.007l0,0c0,0.001,0,0.002,0,0.003v0.001c0,0.001,0,0.001,0,0.002v0.001c0,0.001,0,0.001,0,0.002
		c0,0.001,0,0.001,0,0.001c0,0.001,0,0.002,0,0.003l0,0c0,0.001,0,0.002,0,0.003l0,0c0,0.004,0,0.007,0,0.01l0,0
		c0,0.001,0,0.002,0,0.003v0.001c0,0.001,0,0.002,0,0.002c0,0.001,0,0.001,0,0.001c0,0.001,0,0.002,0,0.002c0,0.001,0,0.001,0,0.001
		c0,0.001,0,0.002,0,0.003l0,0c0,0.001,0,0.002,0,0.003l0,0c0,0.003,0,0.005,0,0.007c0,0,0,0,0,0c0,0.001,0,0.002,0,0.003
		c0,0,0,0,0,0.001c0,0,0,0.001,0,0.002v0.001c0,0.001,0,0.002,0,0.002c0,0.001,0,0.001,0,0.001c0,0.001,0,0.002,0,0.003l0,0
		c0,0.001,0,0.002,0,0.003l0,0c0,0.004,0,0.007,0,0.01l0,0c0,0.001,0,0.002,0,0.003c0,0,0,0,0,0.001c0,0,0,0.001,0,0.002v0.001
		c0,0.001,0,0.002,0,0.002c0,0.001,0,0.001,0,0.001c0,0.001,0,0.002,0,0.003l0,0c0,0.003,0,0.007,0.001,0.01l0,0
		c0,0.001,0,0.002,0,0.003l0,0c0,0.001,0,0.002,0,0.003c0,0,0,0,0,0.001c0,0,0,0.001,0,0.002v0.001c0,0.001,0,0.002,0,0.003l0,0
		c0,0.003,0,0.006,0.001,0.009v0.001c0,0.001,0,0.002,0,0.002c0,0.001,0,0.001,0,0.001c0,0.001,0,0.002,0,0.003l0,0
		c0,0.001,0,0.002,0,0.003c0,0,0,0,0,0.001c0,0,0,0.001,0,0.002c0,0,0,0,0,0.001s0,0.001,0,0.002v0.001c0,0.001,0,0.002,0,0.003l0,0
		c0,0.001,0,0.002,0,0.003l0,0c0,0.001,0,0.002,0,0.003v0.001c0,0.001,0,0.001,0,0.002c0,0,0,0.001,0,0.001c0,0.001,0,0.002,0,0.002
		c0,0.001,0,0.001,0,0.001c0,0.001,0,0.002,0,0.002c0,0.001,0,0.001,0,0.001c0,0.001,0,0.002,0,0.002c0,0.001,0,0.001,0,0.001
		c0,0.001,0,0.002,0,0.002c0,0.001,0,0.001,0,0.002c0,0.001,0,0.002,0,0.003l0,0c0,0.001,0,0.002,0,0.003c0,0,0,0,0,0.001
		c0,0,0,0.001,0,0.002v0.001c0,0.001,0,0.001,0,0.002l0,0.001c0,0.001,0,0.001,0,0.002v0.001c0,0.001,0,0.001,0,0.002v0.001
		c0,0.001,0,0.001,0,0.001c0,0.001,0,0.002,0,0.002v0.001c0,0.002,0,0.005,0.001,0.007v0.001c0,0.001,0,0.001,0,0.002
		c0,0,0,0,0,0.001c0,0,0,0.001,0,0.002c0,0,0,0,0,0.001c0,0,0,0.001,0,0.002c0,0,0,0,0,0.001c0,0,0,0.001,0,0.002l0,0
		c0.001,0.006,0.001,0.011,0.002,0.017l0,0c0.003,0.021,0.007,0.044,0.011,0.065c0.043,0.241,0.254,0.411,0.491,0.411
		c0.03,0,0.06-0.002,0.089-0.008c0.271-0.049,0.453-0.309,0.403-0.58C1.005,14.121,1,14.062,1,14v-2.142
		C1,11.582,0.776,11.358,0.5,11.358L0.5,11.358z M1.787,14.985c-0.245,0-0.459,0.18-0.495,0.43c-0.039,0.272,0.15,0.524,0.423,0.564
		c0.054,0.008,0.108,0.014,0.163,0.017l0,0c0.001,0,0.002,0,0.003,0c0,0,0,0,0,0c0.003,0.001,0.006,0.001,0.009,0.001
		c0,0,0,0,0.001,0c0.001,0,0.002,0,0.002,0s0,0,0.001,0c0.001,0,0.003,0,0.005,0c0,0,0,0,0.001,0.001c0.001,0,0.002,0,0.002,0
		s0.001,0,0.001,0c0.002,0,0.005,0,0.008,0c0,0,0.001,0,0.001,0c0.001,0,0.001,0,0.002,0c0,0,0.001,0,0.001,0
		c0.001,0,0.002,0,0.003,0c0,0,0.001,0,0.002,0.001c0.001,0,0.001,0,0.002,0c0.001,0,0.001,0,0.002,0c0.001,0,0.001,0,0.002,0
		c0.001,0,0.002,0,0.003,0s0.001,0,0.002,0s0.001,0,0.002,0c0,0,0.001,0,0.001,0c0.001,0,0.002,0,0.002,0s0.001,0,0.001,0
		c0.001,0,0.002,0,0.004,0c0,0,0.001,0,0.001,0s0.001,0,0.002,0c0,0,0.001,0,0.001,0c0.001,0,0.002,0,0.004,0
		c0,0,0,0.001,0.001,0.001c0.001,0,0.002,0,0.003,0c0,0,0.001,0,0.001,0c0.001,0,0.002,0,0.003,0c0,0,0,0,0.001,0
		c0.001,0,0.002,0,0.004,0c0,0,0,0,0.001,0c0.001,0,0.002,0,0.003,0c0,0,0.001,0,0.001,0c0.001,0,0.002,0,0.004,0c0,0,0,0,0,0
		c0.001,0,0.002,0,0.003,0c0,0,0.001,0,0.001,0c0.001,0,0.002,0,0.003,0c0,0,0,0,0.001,0c0.001,0,0.002,0,0.004,0c0,0,0,0,0.001,0
		c0.001,0,0.002,0,0.003,0c0,0,0.001,0,0.001,0C1.997,16,1.999,16,2,16h2.216c0.276,0,0.5-0.224,0.5-0.5S4.492,15,4.216,15H2
		c-0.048,0-0.096-0.003-0.143-0.01C1.833,14.986,1.81,14.985,1.787,14.985L1.787,14.985z M9.216,15h-2.5c-0.276,0-0.5,0.224-0.5,0.5
		S6.44,16,6.716,16h2.5c0.276,0,0.5-0.224,0.5-0.5S9.492,15,9.216,15L9.216,15z M14.163,14.991c-0.018,0-0.036,0.001-0.054,0.003
		C14.073,14.998,14.037,15,14,15h-2.284c-0.275,0-0.5,0.224-0.5,0.5s0.225,0.5,0.5,0.5H14c0.001,0,0.002,0,0.003,0s0.001,0,0.001,0
		c0.001,0,0.002,0,0.003,0h0.001c0.001,0,0.002,0,0.002,0c0.001,0,0.001,0,0.002,0c0,0,0.001,0,0.002,0h0.001
		c0.001,0,0.001,0,0.002,0s0.001,0,0.002,0h0.001c0.001,0,0.001,0,0.002,0s0.001,0,0.002,0h0.001c0.001,0,0.002,0,0.002,0
		c0.001,0,0.001,0,0.002,0c0,0,0.001,0,0.002,0h0.001c0.001,0,0.001,0,0.002,0s0.001,0,0.002,0h0.001c0.001,0,0.002,0,0.002,0
		c0.001,0,0.001,0,0.002,0c0,0,0.001,0,0.002,0h0.001c0.001,0,0.001,0,0.002-0.001h0.001c0.001,0,0.002,0,0.002,0
		c0.001,0,0.001,0,0.002,0c0,0,0.001,0,0.002,0h0.001c0.001,0,0.001,0,0.002,0h0.001c0.001,0,0.002,0,0.002,0
		c0.001,0,0.001,0,0.001,0c0.001,0,0.003,0,0.005,0h0.001c0.001,0,0.001,0,0.002,0s0.001,0,0.001,0c0.001,0,0.002,0,0.002,0
		c0.001,0,0.001,0,0.002,0c0,0,0.001,0,0.002,0h0.001c0.001,0,0.001,0,0.002,0s0.001,0,0.002-0.001h0.001c0.001,0,0.001,0,0.002,0
		s0.001,0,0.002,0h0.001c0.001,0,0.002,0,0.002,0c0.001,0,0.001,0,0.002,0c0,0,0.001,0,0.002,0h0.001c0.001,0,0.001,0,0.002,0h0.001
		c0.001,0,0.002,0,0.002,0c0.001,0,0.001,0,0.002,0c0,0,0.001,0,0.002,0c0-0.001,0.001-0.001,0.001-0.001c0.001,0,0.001,0,0.002,0
		c0,0,0.001,0,0.002,0h0.001c0.001,0,0.001,0,0.002,0c0,0,0.001,0,0.002,0h0.001c0.001,0,0.001,0,0.002,0s0.001,0,0.002,0h0.001
		c0.001,0,0.002,0,0.003-0.001c0,0,0,0,0.001,0c0.002,0,0.004,0,0.006,0c0.001,0,0.001,0,0.001,0c0.001,0,0.002,0,0.003,0l0,0
		c0.001,0,0.002,0,0.003,0h0.001c0.001,0,0.002-0.001,0.003-0.001l0,0c0.001,0,0.002,0,0.003,0c0,0,0,0,0.001,0s0.002,0,0.003,0l0,0
		c0.001,0,0.002,0,0.003,0l0,0c0.001,0,0.002-0.001,0.004-0.001l0,0c0.022-0.001,0.044-0.003,0.066-0.006
		c0.274-0.029,0.474-0.275,0.443-0.55C14.632,15.182,14.415,14.991,14.163,14.991L14.163,14.991z M15.5,11.426
		c-0.276,0-0.5,0.224-0.5,0.5V14c0,0.072-0.008,0.144-0.022,0.212c-0.058,0.271,0.113,0.536,0.384,0.595
		c0.035,0.007,0.07,0.011,0.105,0.011c0.23,0,0.438-0.16,0.488-0.395c0.003-0.011,0.005-0.021,0.007-0.032c0,0,0-0.001,0-0.002
		c0,0,0-0.001,0.001-0.001c0-0.001,0-0.002,0-0.002c0-0.001,0-0.001,0-0.001c0-0.001,0-0.002,0.001-0.003l0,0
		c0-0.001,0-0.002,0-0.003l0,0c0.001-0.001,0.001-0.002,0.001-0.003c0,0,0,0,0-0.001s0-0.002,0.001-0.003l0,0
		c0-0.001,0-0.002,0-0.003l0,0c0-0.001,0.001-0.002,0.001-0.003l0,0c0-0.001,0-0.002,0-0.003l0,0c0.016-0.084,0.025-0.17,0.03-0.257
		l0,0c0-0.001,0-0.002,0-0.003s0-0.001,0-0.001c0-0.001,0-0.002,0-0.003h0.001c0-0.001,0-0.002,0-0.003l0,0c0-0.001,0-0.002,0-0.003
		v-0.001c0-0.001,0-0.002,0-0.003l0,0c0-0.001,0-0.002,0-0.003l0,0c0-0.001,0-0.002,0-0.003c0,0,0,0,0-0.001s0-0.002,0-0.003l0,0
		c0-0.001,0-0.002,0-0.003h0.001c0-0.005,0-0.011,0-0.016l0,0c0-0.001,0-0.002,0-0.003c0,0,0,0,0-0.001c0,0,0-0.001,0-0.002v-0.001
		c0-0.001,0-0.001,0-0.002s0-0.001,0-0.001c0-0.001,0-0.002,0-0.002c0-0.001,0-0.001,0-0.002c0,0,0-0.001,0-0.002v-0.001
		C16,14.044,16,14.044,16,14.043s0-0.001,0-0.002V14.04c0-0.001,0-0.001,0-0.002s0-0.001,0-0.002v-0.001c0-0.001,0-0.002,0-0.002
		c0-0.001,0-0.001,0-0.002c0,0,0-0.001,0-0.002v-0.001c0-0.001,0-0.001,0-0.002c0,0,0-0.001,0-0.002v-0.001c0-0.001,0-0.001,0-0.002
		s0-0.001,0-0.002v-0.001c0-0.001,0-0.001,0-0.002s0-0.001,0-0.002v-0.001c0-0.001,0-0.002,0-0.002c0-0.001,0-0.001,0-0.002
		c0,0,0-0.001,0-0.002v-0.001c0-0.001,0-0.002,0-0.003c0,0,0,0,0-0.001s0-0.002,0-0.003v-2.074C16,11.649,15.776,11.426,15.5,11.426
		L15.5,11.426z M15.5,6.426c-0.276,0-0.5,0.224-0.5,0.5v2.5c0,0.276,0.224,0.5,0.5,0.5s0.5-0.224,0.5-0.5v-2.5
		C16,6.649,15.776,6.426,15.5,6.426L15.5,6.426z M15.5,1.5C15.224,1.5,15,1.724,15,2v2.426c0,0.276,0.224,0.5,0.5,0.5
		s0.5-0.224,0.5-0.5V2l0,0C16,1.724,15.776,1.5,15.5,1.5L15.5,1.5z M14,0h-2.5C11.224,0,11,0.224,11,0.5S11.224,1,11.5,1H14l0,0
		c0.096,0,0.19,0.013,0.28,0.04c0.047,0.014,0.094,0.02,0.141,0.02c0.217,0,0.416-0.142,0.479-0.36
		c0.077-0.264-0.074-0.541-0.338-0.619c-0.1-0.029-0.202-0.051-0.308-0.064l0,0c-0.009-0.001-0.017-0.002-0.025-0.003l0,0
		c-0.002,0-0.004,0-0.006-0.001l0,0c-0.002,0-0.005,0-0.007,0l0,0c-0.001,0-0.002,0-0.003,0l0,0c-0.001,0-0.002,0-0.003,0
		c0,0,0,0,0,0c-0.001,0-0.002,0-0.003,0c0,0,0,0-0.001,0s-0.002,0-0.003,0l0,0c-0.001,0-0.002,0-0.003,0v0c-0.002,0-0.004,0-0.006,0
		c0,0,0,0-0.001,0c0,0-0.001,0-0.002,0h-0.001c-0.001,0-0.002,0-0.003,0l0,0c-0.001,0-0.002,0-0.003,0l0,0c-0.002,0-0.004,0-0.006,0
		h-0.001c-0.001,0-0.002,0-0.002,0c-0.001,0-0.001,0-0.001,0c-0.001,0-0.002,0-0.003,0l0,0c-0.001,0-0.002,0-0.003,0l0,0
		c-0.001,0-0.002,0-0.003,0h-0.001c-0.001,0-0.002,0-0.002,0c-0.001,0-0.001,0-0.001,0c-0.002,0-0.004,0-0.006,0c0,0,0,0-0.001,0
		c0,0-0.001,0-0.002,0c0,0,0,0-0.001,0s-0.002,0-0.002,0c-0.001,0-0.001,0-0.001,0c-0.001,0-0.002,0-0.003,0l0,0
		c-0.002,0-0.004,0-0.006,0h-0.001c-0.001,0-0.002,0-0.003,0l0,0c-0.001,0-0.002,0-0.003,0l0,0c-0.001,0-0.002,0-0.003,0l0,0
		c-0.001,0-0.002,0-0.003,0h-0.001c-0.001,0-0.002,0-0.002,0c-0.001,0-0.001,0-0.001,0c-0.001,0-0.002,0-0.003,0v0
		c-0.001,0-0.002,0-0.003,0c0,0,0,0-0.001,0c0,0-0.001,0-0.002,0c0,0,0,0-0.001,0s-0.002,0-0.003,0l0,0c-0.001,0-0.002,0-0.003,0
		l0,0c-0.001,0-0.002,0-0.003,0h-0.001c-0.001,0-0.001,0-0.002,0h-0.001c-0.001,0-0.002,0-0.003,0l0,0c-0.001,0-0.002,0-0.003,0
		c0,0,0,0-0.001,0c0,0-0.001,0-0.002,0c0,0,0,0-0.001,0s-0.002,0-0.002,0c-0.001,0-0.001,0-0.001,0c-0.001,0-0.002,0-0.003,0l0,0
		c-0.001,0-0.002,0-0.003,0c0,0-0.001,0-0.001,0c-0.001,0-0.001,0-0.002,0H14.08c-0.001,0-0.002,0-0.002,0c-0.001,0-0.001,0-0.001,0
		c-0.001,0-0.002,0-0.003,0c0,0,0,0-0.001,0c0,0-0.001,0-0.002,0c0,0,0,0-0.001,0c-0.001,0-0.002,0-0.003,0l0,0
		c-0.001,0-0.002,0-0.002,0c-0.001,0-0.001,0-0.001,0c-0.001,0-0.002,0-0.003,0c0,0,0,0-0.001,0c0,0-0.001,0-0.002,0h-0.001
		c-0.001,0-0.002,0-0.002,0c-0.001,0-0.001,0-0.001,0c-0.001,0-0.002,0-0.003,0c0,0,0,0-0.001,0s-0.001,0-0.002,0c0,0,0,0-0.001,0
		s-0.002,0-0.003,0l0,0c-0.001,0-0.002,0-0.003,0l0,0c-0.001,0-0.002,0-0.003,0l0,0c-0.001,0-0.002,0-0.003,0s-0.001,0-0.001,0
		c-0.001,0-0.002,0-0.002,0c-0.001,0-0.001,0-0.001,0c-0.001,0-0.002,0-0.003,0c0,0,0,0-0.001,0c0,0-0.001,0-0.002,0h-0.001
		c-0.001,0-0.002,0-0.003,0l0,0c-0.001,0-0.002,0-0.003,0c0,0,0,0-0.001,0c0,0-0.001,0-0.002,0c0,0,0,0-0.001,0s-0.001,0-0.002,0
		s-0.001,0-0.001,0c-0.001,0-0.002,0-0.003,0l0,0c-0.001,0-0.002,0-0.003,0h-0.001c-0.001,0-0.001,0-0.002,0h-0.001
		C14.002,0,14.001,0,14,0L14,0z"/>
</g>
</svg>
